<mxfile host="app.diagrams.net" agent="Mozilla/5.0 (Windows NT 10.0; Win64; x64) AppleWebKit/537.36 (KHTML, like Gecko) Chrome/133.0.0.0 Safari/537.36" version="26.0.16">
  <diagram name="PÃ¡gina-1" id="iwGBhONeHlc8heLU-qq9">
    <mxGraphModel dx="2620" dy="2008" grid="0" gridSize="10" guides="1" tooltips="1" connect="1" arrows="1" fold="1" page="0" pageScale="1" pageWidth="827" pageHeight="1169" math="0" shadow="0">
      <root>
        <mxCell id="0" />
        <mxCell id="1" parent="0" />
        <mxCell id="_UacAsJ8LhsHdzwPXFp5-85" value="" style="shape=table;childLayout=tableLayout;startSize=0;fillColor=none;collapsible=0;recursiveResize=0;expand=0;" vertex="1" parent="1">
          <mxGeometry x="-999" y="-1003" width="2400" height="2400" as="geometry" />
        </mxCell>
        <mxCell id="_UacAsJ8LhsHdzwPXFp5-86" value="" style="shape=tableRow;horizontal=0;swimlaneHead=0;swimlaneBody=0;top=0;left=0;strokeColor=inherit;bottom=0;right=0;dropTarget=0;fontStyle=0;fillColor=none;points=[[0,0.5],[1,0.5]];portConstraint=eastwest;startSize=40;collapsible=0;recursiveResize=0;expand=0;" vertex="1" parent="_UacAsJ8LhsHdzwPXFp5-85">
          <mxGeometry width="2400" height="120" as="geometry" />
        </mxCell>
        <mxCell id="_UacAsJ8LhsHdzwPXFp5-87" value="" style="swimlane;swimlaneHead=0;swimlaneBody=0;fontStyle=0;strokeColor=inherit;connectable=0;fillColor=none;startSize=40;collapsible=0;recursiveResize=0;expand=0;" vertex="1" parent="_UacAsJ8LhsHdzwPXFp5-86">
          <mxGeometry x="40" width="118" height="120" as="geometry">
            <mxRectangle width="118" height="120" as="alternateBounds" />
          </mxGeometry>
        </mxCell>
        <mxCell id="_UacAsJ8LhsHdzwPXFp5-88" value="" style="swimlane;swimlaneHead=0;swimlaneBody=0;fontStyle=0;strokeColor=inherit;connectable=0;fillColor=none;startSize=40;collapsible=0;recursiveResize=0;expand=0;" vertex="1" parent="_UacAsJ8LhsHdzwPXFp5-86">
          <mxGeometry x="158" width="118" height="120" as="geometry">
            <mxRectangle width="118" height="120" as="alternateBounds" />
          </mxGeometry>
        </mxCell>
        <mxCell id="_UacAsJ8LhsHdzwPXFp5-89" value="" style="swimlane;swimlaneHead=0;swimlaneBody=0;fontStyle=0;strokeColor=inherit;connectable=0;fillColor=none;startSize=40;collapsible=0;recursiveResize=0;expand=0;" vertex="1" parent="_UacAsJ8LhsHdzwPXFp5-86">
          <mxGeometry x="276" width="118" height="120" as="geometry">
            <mxRectangle width="118" height="120" as="alternateBounds" />
          </mxGeometry>
        </mxCell>
        <mxCell id="_UacAsJ8LhsHdzwPXFp5-90" value="" style="swimlane;swimlaneHead=0;swimlaneBody=0;fontStyle=0;strokeColor=inherit;connectable=0;fillColor=none;startSize=40;collapsible=0;recursiveResize=0;expand=0;" vertex="1" parent="_UacAsJ8LhsHdzwPXFp5-86">
          <mxGeometry x="394" width="118" height="120" as="geometry">
            <mxRectangle width="118" height="120" as="alternateBounds" />
          </mxGeometry>
        </mxCell>
        <mxCell id="_UacAsJ8LhsHdzwPXFp5-91" value="" style="swimlane;swimlaneHead=0;swimlaneBody=0;fontStyle=0;strokeColor=inherit;connectable=0;fillColor=none;startSize=40;collapsible=0;recursiveResize=0;expand=0;" vertex="1" parent="_UacAsJ8LhsHdzwPXFp5-86">
          <mxGeometry x="512" width="118" height="120" as="geometry">
            <mxRectangle width="118" height="120" as="alternateBounds" />
          </mxGeometry>
        </mxCell>
        <mxCell id="_UacAsJ8LhsHdzwPXFp5-92" value="" style="swimlane;swimlaneHead=0;swimlaneBody=0;fontStyle=0;strokeColor=inherit;connectable=0;fillColor=none;startSize=40;collapsible=0;recursiveResize=0;expand=0;" vertex="1" parent="_UacAsJ8LhsHdzwPXFp5-86">
          <mxGeometry x="630" width="118" height="120" as="geometry">
            <mxRectangle width="118" height="120" as="alternateBounds" />
          </mxGeometry>
        </mxCell>
        <mxCell id="_UacAsJ8LhsHdzwPXFp5-93" value="" style="swimlane;swimlaneHead=0;swimlaneBody=0;fontStyle=0;strokeColor=inherit;connectable=0;fillColor=none;startSize=40;collapsible=0;recursiveResize=0;expand=0;" vertex="1" parent="_UacAsJ8LhsHdzwPXFp5-86">
          <mxGeometry x="748" width="118" height="120" as="geometry">
            <mxRectangle width="118" height="120" as="alternateBounds" />
          </mxGeometry>
        </mxCell>
        <mxCell id="_UacAsJ8LhsHdzwPXFp5-94" value="" style="swimlane;swimlaneHead=0;swimlaneBody=0;fontStyle=0;strokeColor=inherit;connectable=0;fillColor=none;startSize=40;collapsible=0;recursiveResize=0;expand=0;" vertex="1" parent="_UacAsJ8LhsHdzwPXFp5-86">
          <mxGeometry x="866" width="118" height="120" as="geometry">
            <mxRectangle width="118" height="120" as="alternateBounds" />
          </mxGeometry>
        </mxCell>
        <mxCell id="_UacAsJ8LhsHdzwPXFp5-95" value="" style="swimlane;swimlaneHead=0;swimlaneBody=0;fontStyle=0;strokeColor=inherit;connectable=0;fillColor=none;startSize=40;collapsible=0;recursiveResize=0;expand=0;" vertex="1" parent="_UacAsJ8LhsHdzwPXFp5-86">
          <mxGeometry x="984" width="118" height="120" as="geometry">
            <mxRectangle width="118" height="120" as="alternateBounds" />
          </mxGeometry>
        </mxCell>
        <mxCell id="_UacAsJ8LhsHdzwPXFp5-96" value="" style="swimlane;swimlaneHead=0;swimlaneBody=0;fontStyle=0;strokeColor=inherit;connectable=0;fillColor=none;startSize=40;collapsible=0;recursiveResize=0;expand=0;" vertex="1" parent="_UacAsJ8LhsHdzwPXFp5-86">
          <mxGeometry x="1102" width="118" height="120" as="geometry">
            <mxRectangle width="118" height="120" as="alternateBounds" />
          </mxGeometry>
        </mxCell>
        <mxCell id="_UacAsJ8LhsHdzwPXFp5-97" value="" style="swimlane;swimlaneHead=0;swimlaneBody=0;fontStyle=0;strokeColor=inherit;connectable=0;fillColor=none;startSize=40;collapsible=0;recursiveResize=0;expand=0;" vertex="1" parent="_UacAsJ8LhsHdzwPXFp5-86">
          <mxGeometry x="1220" width="118" height="120" as="geometry">
            <mxRectangle width="118" height="120" as="alternateBounds" />
          </mxGeometry>
        </mxCell>
        <mxCell id="_UacAsJ8LhsHdzwPXFp5-98" value="" style="swimlane;swimlaneHead=0;swimlaneBody=0;fontStyle=0;strokeColor=inherit;connectable=0;fillColor=none;startSize=40;collapsible=0;recursiveResize=0;expand=0;" vertex="1" parent="_UacAsJ8LhsHdzwPXFp5-86">
          <mxGeometry x="1338" width="118" height="120" as="geometry">
            <mxRectangle width="118" height="120" as="alternateBounds" />
          </mxGeometry>
        </mxCell>
        <mxCell id="_UacAsJ8LhsHdzwPXFp5-99" value="" style="swimlane;swimlaneHead=0;swimlaneBody=0;fontStyle=0;strokeColor=inherit;connectable=0;fillColor=none;startSize=40;collapsible=0;recursiveResize=0;expand=0;" vertex="1" parent="_UacAsJ8LhsHdzwPXFp5-86">
          <mxGeometry x="1456" width="118" height="120" as="geometry">
            <mxRectangle width="118" height="120" as="alternateBounds" />
          </mxGeometry>
        </mxCell>
        <mxCell id="_UacAsJ8LhsHdzwPXFp5-100" value="" style="swimlane;swimlaneHead=0;swimlaneBody=0;fontStyle=0;strokeColor=inherit;connectable=0;fillColor=none;startSize=40;collapsible=0;recursiveResize=0;expand=0;" vertex="1" parent="_UacAsJ8LhsHdzwPXFp5-86">
          <mxGeometry x="1574" width="118" height="120" as="geometry">
            <mxRectangle width="118" height="120" as="alternateBounds" />
          </mxGeometry>
        </mxCell>
        <mxCell id="_UacAsJ8LhsHdzwPXFp5-101" value="" style="swimlane;swimlaneHead=0;swimlaneBody=0;fontStyle=0;strokeColor=inherit;connectable=0;fillColor=none;startSize=40;collapsible=0;recursiveResize=0;expand=0;" vertex="1" parent="_UacAsJ8LhsHdzwPXFp5-86">
          <mxGeometry x="1692" width="118" height="120" as="geometry">
            <mxRectangle width="118" height="120" as="alternateBounds" />
          </mxGeometry>
        </mxCell>
        <mxCell id="_UacAsJ8LhsHdzwPXFp5-102" value="" style="swimlane;swimlaneHead=0;swimlaneBody=0;fontStyle=0;strokeColor=inherit;connectable=0;fillColor=none;startSize=40;collapsible=0;recursiveResize=0;expand=0;" vertex="1" parent="_UacAsJ8LhsHdzwPXFp5-86">
          <mxGeometry x="1810" width="118" height="120" as="geometry">
            <mxRectangle width="118" height="120" as="alternateBounds" />
          </mxGeometry>
        </mxCell>
        <mxCell id="_UacAsJ8LhsHdzwPXFp5-103" value="" style="swimlane;swimlaneHead=0;swimlaneBody=0;fontStyle=0;strokeColor=inherit;connectable=0;fillColor=none;startSize=40;collapsible=0;recursiveResize=0;expand=0;" vertex="1" parent="_UacAsJ8LhsHdzwPXFp5-86">
          <mxGeometry x="1928" width="118" height="120" as="geometry">
            <mxRectangle width="118" height="120" as="alternateBounds" />
          </mxGeometry>
        </mxCell>
        <mxCell id="_UacAsJ8LhsHdzwPXFp5-104" value="" style="swimlane;swimlaneHead=0;swimlaneBody=0;fontStyle=0;strokeColor=inherit;connectable=0;fillColor=none;startSize=40;collapsible=0;recursiveResize=0;expand=0;" vertex="1" parent="_UacAsJ8LhsHdzwPXFp5-86">
          <mxGeometry x="2046" width="118" height="120" as="geometry">
            <mxRectangle width="118" height="120" as="alternateBounds" />
          </mxGeometry>
        </mxCell>
        <mxCell id="_UacAsJ8LhsHdzwPXFp5-105" value="" style="swimlane;swimlaneHead=0;swimlaneBody=0;fontStyle=0;strokeColor=inherit;connectable=0;fillColor=none;startSize=40;collapsible=0;recursiveResize=0;expand=0;" vertex="1" parent="_UacAsJ8LhsHdzwPXFp5-86">
          <mxGeometry x="2164" width="118" height="120" as="geometry">
            <mxRectangle width="118" height="120" as="alternateBounds" />
          </mxGeometry>
        </mxCell>
        <mxCell id="_UacAsJ8LhsHdzwPXFp5-106" value="" style="swimlane;swimlaneHead=0;swimlaneBody=0;fontStyle=0;strokeColor=inherit;connectable=0;fillColor=none;startSize=40;collapsible=0;recursiveResize=0;expand=0;" vertex="1" parent="_UacAsJ8LhsHdzwPXFp5-86">
          <mxGeometry x="2282" width="118" height="120" as="geometry">
            <mxRectangle width="118" height="120" as="alternateBounds" />
          </mxGeometry>
        </mxCell>
        <mxCell id="_UacAsJ8LhsHdzwPXFp5-107" value="" style="shape=tableRow;horizontal=0;swimlaneHead=0;swimlaneBody=0;top=0;left=0;strokeColor=inherit;bottom=0;right=0;dropTarget=0;fontStyle=0;fillColor=none;points=[[0,0.5],[1,0.5]];portConstraint=eastwest;startSize=40;collapsible=0;recursiveResize=0;expand=0;" vertex="1" parent="_UacAsJ8LhsHdzwPXFp5-85">
          <mxGeometry y="120" width="2400" height="120" as="geometry" />
        </mxCell>
        <mxCell id="_UacAsJ8LhsHdzwPXFp5-108" value="" style="swimlane;swimlaneHead=0;swimlaneBody=0;fontStyle=0;connectable=0;strokeColor=inherit;fillColor=none;startSize=0;collapsible=0;recursiveResize=0;expand=0;" vertex="1" parent="_UacAsJ8LhsHdzwPXFp5-107">
          <mxGeometry x="40" width="118" height="120" as="geometry">
            <mxRectangle width="118" height="120" as="alternateBounds" />
          </mxGeometry>
        </mxCell>
        <mxCell id="_UacAsJ8LhsHdzwPXFp5-109" value="" style="swimlane;swimlaneHead=0;swimlaneBody=0;fontStyle=0;connectable=0;strokeColor=inherit;fillColor=none;startSize=0;collapsible=0;recursiveResize=0;expand=0;" vertex="1" parent="_UacAsJ8LhsHdzwPXFp5-107">
          <mxGeometry x="158" width="118" height="120" as="geometry">
            <mxRectangle width="118" height="120" as="alternateBounds" />
          </mxGeometry>
        </mxCell>
        <mxCell id="_UacAsJ8LhsHdzwPXFp5-110" value="" style="swimlane;swimlaneHead=0;swimlaneBody=0;fontStyle=0;connectable=0;strokeColor=inherit;fillColor=none;startSize=0;collapsible=0;recursiveResize=0;expand=0;" vertex="1" parent="_UacAsJ8LhsHdzwPXFp5-107">
          <mxGeometry x="276" width="118" height="120" as="geometry">
            <mxRectangle width="118" height="120" as="alternateBounds" />
          </mxGeometry>
        </mxCell>
        <mxCell id="_UacAsJ8LhsHdzwPXFp5-111" value="" style="swimlane;swimlaneHead=0;swimlaneBody=0;fontStyle=0;connectable=0;strokeColor=inherit;fillColor=none;startSize=0;collapsible=0;recursiveResize=0;expand=0;" vertex="1" parent="_UacAsJ8LhsHdzwPXFp5-107">
          <mxGeometry x="394" width="118" height="120" as="geometry">
            <mxRectangle width="118" height="120" as="alternateBounds" />
          </mxGeometry>
        </mxCell>
        <mxCell id="_UacAsJ8LhsHdzwPXFp5-112" value="" style="swimlane;swimlaneHead=0;swimlaneBody=0;fontStyle=0;connectable=0;strokeColor=inherit;fillColor=none;startSize=0;collapsible=0;recursiveResize=0;expand=0;" vertex="1" parent="_UacAsJ8LhsHdzwPXFp5-107">
          <mxGeometry x="512" width="118" height="120" as="geometry">
            <mxRectangle width="118" height="120" as="alternateBounds" />
          </mxGeometry>
        </mxCell>
        <mxCell id="_UacAsJ8LhsHdzwPXFp5-113" value="" style="swimlane;swimlaneHead=0;swimlaneBody=0;fontStyle=0;connectable=0;strokeColor=inherit;fillColor=none;startSize=0;collapsible=0;recursiveResize=0;expand=0;" vertex="1" parent="_UacAsJ8LhsHdzwPXFp5-107">
          <mxGeometry x="630" width="118" height="120" as="geometry">
            <mxRectangle width="118" height="120" as="alternateBounds" />
          </mxGeometry>
        </mxCell>
        <mxCell id="_UacAsJ8LhsHdzwPXFp5-114" value="" style="swimlane;swimlaneHead=0;swimlaneBody=0;fontStyle=0;connectable=0;strokeColor=inherit;fillColor=none;startSize=0;collapsible=0;recursiveResize=0;expand=0;" vertex="1" parent="_UacAsJ8LhsHdzwPXFp5-107">
          <mxGeometry x="748" width="118" height="120" as="geometry">
            <mxRectangle width="118" height="120" as="alternateBounds" />
          </mxGeometry>
        </mxCell>
        <mxCell id="_UacAsJ8LhsHdzwPXFp5-115" value="" style="swimlane;swimlaneHead=0;swimlaneBody=0;fontStyle=0;connectable=0;strokeColor=inherit;fillColor=none;startSize=0;collapsible=0;recursiveResize=0;expand=0;" vertex="1" parent="_UacAsJ8LhsHdzwPXFp5-107">
          <mxGeometry x="866" width="118" height="120" as="geometry">
            <mxRectangle width="118" height="120" as="alternateBounds" />
          </mxGeometry>
        </mxCell>
        <mxCell id="_UacAsJ8LhsHdzwPXFp5-116" value="" style="swimlane;swimlaneHead=0;swimlaneBody=0;fontStyle=0;connectable=0;strokeColor=inherit;fillColor=none;startSize=0;collapsible=0;recursiveResize=0;expand=0;" vertex="1" parent="_UacAsJ8LhsHdzwPXFp5-107">
          <mxGeometry x="984" width="118" height="120" as="geometry">
            <mxRectangle width="118" height="120" as="alternateBounds" />
          </mxGeometry>
        </mxCell>
        <mxCell id="_UacAsJ8LhsHdzwPXFp5-117" value="" style="swimlane;swimlaneHead=0;swimlaneBody=0;fontStyle=0;connectable=0;strokeColor=inherit;fillColor=none;startSize=0;collapsible=0;recursiveResize=0;expand=0;" vertex="1" parent="_UacAsJ8LhsHdzwPXFp5-107">
          <mxGeometry x="1102" width="118" height="120" as="geometry">
            <mxRectangle width="118" height="120" as="alternateBounds" />
          </mxGeometry>
        </mxCell>
        <mxCell id="_UacAsJ8LhsHdzwPXFp5-118" value="" style="swimlane;swimlaneHead=0;swimlaneBody=0;fontStyle=0;connectable=0;strokeColor=inherit;fillColor=none;startSize=0;collapsible=0;recursiveResize=0;expand=0;" vertex="1" parent="_UacAsJ8LhsHdzwPXFp5-107">
          <mxGeometry x="1220" width="118" height="120" as="geometry">
            <mxRectangle width="118" height="120" as="alternateBounds" />
          </mxGeometry>
        </mxCell>
        <mxCell id="_UacAsJ8LhsHdzwPXFp5-119" value="" style="swimlane;swimlaneHead=0;swimlaneBody=0;fontStyle=0;connectable=0;strokeColor=inherit;fillColor=none;startSize=0;collapsible=0;recursiveResize=0;expand=0;" vertex="1" parent="_UacAsJ8LhsHdzwPXFp5-107">
          <mxGeometry x="1338" width="118" height="120" as="geometry">
            <mxRectangle width="118" height="120" as="alternateBounds" />
          </mxGeometry>
        </mxCell>
        <mxCell id="_UacAsJ8LhsHdzwPXFp5-120" value="" style="swimlane;swimlaneHead=0;swimlaneBody=0;fontStyle=0;connectable=0;strokeColor=inherit;fillColor=none;startSize=0;collapsible=0;recursiveResize=0;expand=0;" vertex="1" parent="_UacAsJ8LhsHdzwPXFp5-107">
          <mxGeometry x="1456" width="118" height="120" as="geometry">
            <mxRectangle width="118" height="120" as="alternateBounds" />
          </mxGeometry>
        </mxCell>
        <mxCell id="_UacAsJ8LhsHdzwPXFp5-121" value="" style="swimlane;swimlaneHead=0;swimlaneBody=0;fontStyle=0;connectable=0;strokeColor=inherit;fillColor=none;startSize=0;collapsible=0;recursiveResize=0;expand=0;" vertex="1" parent="_UacAsJ8LhsHdzwPXFp5-107">
          <mxGeometry x="1574" width="118" height="120" as="geometry">
            <mxRectangle width="118" height="120" as="alternateBounds" />
          </mxGeometry>
        </mxCell>
        <mxCell id="_UacAsJ8LhsHdzwPXFp5-122" value="" style="swimlane;swimlaneHead=0;swimlaneBody=0;fontStyle=0;connectable=0;strokeColor=inherit;fillColor=none;startSize=0;collapsible=0;recursiveResize=0;expand=0;" vertex="1" parent="_UacAsJ8LhsHdzwPXFp5-107">
          <mxGeometry x="1692" width="118" height="120" as="geometry">
            <mxRectangle width="118" height="120" as="alternateBounds" />
          </mxGeometry>
        </mxCell>
        <mxCell id="_UacAsJ8LhsHdzwPXFp5-123" value="" style="swimlane;swimlaneHead=0;swimlaneBody=0;fontStyle=0;connectable=0;strokeColor=inherit;fillColor=none;startSize=0;collapsible=0;recursiveResize=0;expand=0;" vertex="1" parent="_UacAsJ8LhsHdzwPXFp5-107">
          <mxGeometry x="1810" width="118" height="120" as="geometry">
            <mxRectangle width="118" height="120" as="alternateBounds" />
          </mxGeometry>
        </mxCell>
        <mxCell id="_UacAsJ8LhsHdzwPXFp5-124" value="" style="swimlane;swimlaneHead=0;swimlaneBody=0;fontStyle=0;connectable=0;strokeColor=inherit;fillColor=none;startSize=0;collapsible=0;recursiveResize=0;expand=0;" vertex="1" parent="_UacAsJ8LhsHdzwPXFp5-107">
          <mxGeometry x="1928" width="118" height="120" as="geometry">
            <mxRectangle width="118" height="120" as="alternateBounds" />
          </mxGeometry>
        </mxCell>
        <mxCell id="_UacAsJ8LhsHdzwPXFp5-125" value="" style="swimlane;swimlaneHead=0;swimlaneBody=0;fontStyle=0;connectable=0;strokeColor=inherit;fillColor=none;startSize=0;collapsible=0;recursiveResize=0;expand=0;" vertex="1" parent="_UacAsJ8LhsHdzwPXFp5-107">
          <mxGeometry x="2046" width="118" height="120" as="geometry">
            <mxRectangle width="118" height="120" as="alternateBounds" />
          </mxGeometry>
        </mxCell>
        <mxCell id="_UacAsJ8LhsHdzwPXFp5-126" value="" style="swimlane;swimlaneHead=0;swimlaneBody=0;fontStyle=0;connectable=0;strokeColor=inherit;fillColor=none;startSize=0;collapsible=0;recursiveResize=0;expand=0;" vertex="1" parent="_UacAsJ8LhsHdzwPXFp5-107">
          <mxGeometry x="2164" width="118" height="120" as="geometry">
            <mxRectangle width="118" height="120" as="alternateBounds" />
          </mxGeometry>
        </mxCell>
        <mxCell id="_UacAsJ8LhsHdzwPXFp5-127" value="" style="swimlane;swimlaneHead=0;swimlaneBody=0;fontStyle=0;connectable=0;strokeColor=inherit;fillColor=none;startSize=0;collapsible=0;recursiveResize=0;expand=0;" vertex="1" parent="_UacAsJ8LhsHdzwPXFp5-107">
          <mxGeometry x="2282" width="118" height="120" as="geometry">
            <mxRectangle width="118" height="120" as="alternateBounds" />
          </mxGeometry>
        </mxCell>
        <mxCell id="_UacAsJ8LhsHdzwPXFp5-128" value="" style="shape=tableRow;horizontal=0;swimlaneHead=0;swimlaneBody=0;top=0;left=0;strokeColor=inherit;bottom=0;right=0;dropTarget=0;fontStyle=0;fillColor=none;points=[[0,0.5],[1,0.5]];portConstraint=eastwest;startSize=40;collapsible=0;recursiveResize=0;expand=0;" vertex="1" parent="_UacAsJ8LhsHdzwPXFp5-85">
          <mxGeometry y="240" width="2400" height="120" as="geometry" />
        </mxCell>
        <mxCell id="_UacAsJ8LhsHdzwPXFp5-129" value="" style="swimlane;swimlaneHead=0;swimlaneBody=0;fontStyle=0;connectable=0;strokeColor=inherit;fillColor=none;startSize=0;collapsible=0;recursiveResize=0;expand=0;" vertex="1" parent="_UacAsJ8LhsHdzwPXFp5-128">
          <mxGeometry x="40" width="118" height="120" as="geometry">
            <mxRectangle width="118" height="120" as="alternateBounds" />
          </mxGeometry>
        </mxCell>
        <mxCell id="_UacAsJ8LhsHdzwPXFp5-130" value="" style="swimlane;swimlaneHead=0;swimlaneBody=0;fontStyle=0;connectable=0;strokeColor=inherit;fillColor=none;startSize=0;collapsible=0;recursiveResize=0;expand=0;" vertex="1" parent="_UacAsJ8LhsHdzwPXFp5-128">
          <mxGeometry x="158" width="118" height="120" as="geometry">
            <mxRectangle width="118" height="120" as="alternateBounds" />
          </mxGeometry>
        </mxCell>
        <mxCell id="_UacAsJ8LhsHdzwPXFp5-131" value="" style="swimlane;swimlaneHead=0;swimlaneBody=0;fontStyle=0;connectable=0;strokeColor=inherit;fillColor=none;startSize=0;collapsible=0;recursiveResize=0;expand=0;" vertex="1" parent="_UacAsJ8LhsHdzwPXFp5-128">
          <mxGeometry x="276" width="118" height="120" as="geometry">
            <mxRectangle width="118" height="120" as="alternateBounds" />
          </mxGeometry>
        </mxCell>
        <mxCell id="_UacAsJ8LhsHdzwPXFp5-132" value="" style="swimlane;swimlaneHead=0;swimlaneBody=0;fontStyle=0;connectable=0;strokeColor=inherit;fillColor=none;startSize=0;collapsible=0;recursiveResize=0;expand=0;" vertex="1" parent="_UacAsJ8LhsHdzwPXFp5-128">
          <mxGeometry x="394" width="118" height="120" as="geometry">
            <mxRectangle width="118" height="120" as="alternateBounds" />
          </mxGeometry>
        </mxCell>
        <mxCell id="_UacAsJ8LhsHdzwPXFp5-133" value="" style="swimlane;swimlaneHead=0;swimlaneBody=0;fontStyle=0;connectable=0;strokeColor=inherit;fillColor=none;startSize=0;collapsible=0;recursiveResize=0;expand=0;" vertex="1" parent="_UacAsJ8LhsHdzwPXFp5-128">
          <mxGeometry x="512" width="118" height="120" as="geometry">
            <mxRectangle width="118" height="120" as="alternateBounds" />
          </mxGeometry>
        </mxCell>
        <mxCell id="_UacAsJ8LhsHdzwPXFp5-134" value="" style="swimlane;swimlaneHead=0;swimlaneBody=0;fontStyle=0;connectable=0;strokeColor=inherit;fillColor=none;startSize=0;collapsible=0;recursiveResize=0;expand=0;" vertex="1" parent="_UacAsJ8LhsHdzwPXFp5-128">
          <mxGeometry x="630" width="118" height="120" as="geometry">
            <mxRectangle width="118" height="120" as="alternateBounds" />
          </mxGeometry>
        </mxCell>
        <mxCell id="_UacAsJ8LhsHdzwPXFp5-135" value="" style="swimlane;swimlaneHead=0;swimlaneBody=0;fontStyle=0;connectable=0;strokeColor=inherit;fillColor=none;startSize=0;collapsible=0;recursiveResize=0;expand=0;" vertex="1" parent="_UacAsJ8LhsHdzwPXFp5-128">
          <mxGeometry x="748" width="118" height="120" as="geometry">
            <mxRectangle width="118" height="120" as="alternateBounds" />
          </mxGeometry>
        </mxCell>
        <mxCell id="_UacAsJ8LhsHdzwPXFp5-136" value="" style="swimlane;swimlaneHead=0;swimlaneBody=0;fontStyle=0;connectable=0;strokeColor=inherit;fillColor=none;startSize=0;collapsible=0;recursiveResize=0;expand=0;" vertex="1" parent="_UacAsJ8LhsHdzwPXFp5-128">
          <mxGeometry x="866" width="118" height="120" as="geometry">
            <mxRectangle width="118" height="120" as="alternateBounds" />
          </mxGeometry>
        </mxCell>
        <mxCell id="_UacAsJ8LhsHdzwPXFp5-137" value="" style="swimlane;swimlaneHead=0;swimlaneBody=0;fontStyle=0;connectable=0;strokeColor=inherit;fillColor=none;startSize=0;collapsible=0;recursiveResize=0;expand=0;" vertex="1" parent="_UacAsJ8LhsHdzwPXFp5-128">
          <mxGeometry x="984" width="118" height="120" as="geometry">
            <mxRectangle width="118" height="120" as="alternateBounds" />
          </mxGeometry>
        </mxCell>
        <mxCell id="_UacAsJ8LhsHdzwPXFp5-138" value="" style="swimlane;swimlaneHead=0;swimlaneBody=0;fontStyle=0;connectable=0;strokeColor=inherit;fillColor=none;startSize=0;collapsible=0;recursiveResize=0;expand=0;" vertex="1" parent="_UacAsJ8LhsHdzwPXFp5-128">
          <mxGeometry x="1102" width="118" height="120" as="geometry">
            <mxRectangle width="118" height="120" as="alternateBounds" />
          </mxGeometry>
        </mxCell>
        <mxCell id="_UacAsJ8LhsHdzwPXFp5-139" value="" style="swimlane;swimlaneHead=0;swimlaneBody=0;fontStyle=0;connectable=0;strokeColor=inherit;fillColor=none;startSize=0;collapsible=0;recursiveResize=0;expand=0;" vertex="1" parent="_UacAsJ8LhsHdzwPXFp5-128">
          <mxGeometry x="1220" width="118" height="120" as="geometry">
            <mxRectangle width="118" height="120" as="alternateBounds" />
          </mxGeometry>
        </mxCell>
        <mxCell id="_UacAsJ8LhsHdzwPXFp5-140" value="" style="swimlane;swimlaneHead=0;swimlaneBody=0;fontStyle=0;connectable=0;strokeColor=inherit;fillColor=none;startSize=0;collapsible=0;recursiveResize=0;expand=0;" vertex="1" parent="_UacAsJ8LhsHdzwPXFp5-128">
          <mxGeometry x="1338" width="118" height="120" as="geometry">
            <mxRectangle width="118" height="120" as="alternateBounds" />
          </mxGeometry>
        </mxCell>
        <mxCell id="_UacAsJ8LhsHdzwPXFp5-141" value="" style="swimlane;swimlaneHead=0;swimlaneBody=0;fontStyle=0;connectable=0;strokeColor=inherit;fillColor=none;startSize=0;collapsible=0;recursiveResize=0;expand=0;" vertex="1" parent="_UacAsJ8LhsHdzwPXFp5-128">
          <mxGeometry x="1456" width="118" height="120" as="geometry">
            <mxRectangle width="118" height="120" as="alternateBounds" />
          </mxGeometry>
        </mxCell>
        <mxCell id="_UacAsJ8LhsHdzwPXFp5-142" value="" style="swimlane;swimlaneHead=0;swimlaneBody=0;fontStyle=0;connectable=0;strokeColor=inherit;fillColor=none;startSize=0;collapsible=0;recursiveResize=0;expand=0;" vertex="1" parent="_UacAsJ8LhsHdzwPXFp5-128">
          <mxGeometry x="1574" width="118" height="120" as="geometry">
            <mxRectangle width="118" height="120" as="alternateBounds" />
          </mxGeometry>
        </mxCell>
        <mxCell id="_UacAsJ8LhsHdzwPXFp5-143" value="" style="swimlane;swimlaneHead=0;swimlaneBody=0;fontStyle=0;connectable=0;strokeColor=inherit;fillColor=none;startSize=0;collapsible=0;recursiveResize=0;expand=0;" vertex="1" parent="_UacAsJ8LhsHdzwPXFp5-128">
          <mxGeometry x="1692" width="118" height="120" as="geometry">
            <mxRectangle width="118" height="120" as="alternateBounds" />
          </mxGeometry>
        </mxCell>
        <mxCell id="_UacAsJ8LhsHdzwPXFp5-144" value="" style="swimlane;swimlaneHead=0;swimlaneBody=0;fontStyle=0;connectable=0;strokeColor=inherit;fillColor=none;startSize=0;collapsible=0;recursiveResize=0;expand=0;" vertex="1" parent="_UacAsJ8LhsHdzwPXFp5-128">
          <mxGeometry x="1810" width="118" height="120" as="geometry">
            <mxRectangle width="118" height="120" as="alternateBounds" />
          </mxGeometry>
        </mxCell>
        <mxCell id="_UacAsJ8LhsHdzwPXFp5-145" value="" style="swimlane;swimlaneHead=0;swimlaneBody=0;fontStyle=0;connectable=0;strokeColor=inherit;fillColor=none;startSize=0;collapsible=0;recursiveResize=0;expand=0;" vertex="1" parent="_UacAsJ8LhsHdzwPXFp5-128">
          <mxGeometry x="1928" width="118" height="120" as="geometry">
            <mxRectangle width="118" height="120" as="alternateBounds" />
          </mxGeometry>
        </mxCell>
        <mxCell id="_UacAsJ8LhsHdzwPXFp5-146" value="" style="swimlane;swimlaneHead=0;swimlaneBody=0;fontStyle=0;connectable=0;strokeColor=inherit;fillColor=none;startSize=0;collapsible=0;recursiveResize=0;expand=0;" vertex="1" parent="_UacAsJ8LhsHdzwPXFp5-128">
          <mxGeometry x="2046" width="118" height="120" as="geometry">
            <mxRectangle width="118" height="120" as="alternateBounds" />
          </mxGeometry>
        </mxCell>
        <mxCell id="_UacAsJ8LhsHdzwPXFp5-147" value="" style="swimlane;swimlaneHead=0;swimlaneBody=0;fontStyle=0;connectable=0;strokeColor=inherit;fillColor=none;startSize=0;collapsible=0;recursiveResize=0;expand=0;" vertex="1" parent="_UacAsJ8LhsHdzwPXFp5-128">
          <mxGeometry x="2164" width="118" height="120" as="geometry">
            <mxRectangle width="118" height="120" as="alternateBounds" />
          </mxGeometry>
        </mxCell>
        <mxCell id="_UacAsJ8LhsHdzwPXFp5-148" value="" style="swimlane;swimlaneHead=0;swimlaneBody=0;fontStyle=0;connectable=0;strokeColor=inherit;fillColor=none;startSize=0;collapsible=0;recursiveResize=0;expand=0;" vertex="1" parent="_UacAsJ8LhsHdzwPXFp5-128">
          <mxGeometry x="2282" width="118" height="120" as="geometry">
            <mxRectangle width="118" height="120" as="alternateBounds" />
          </mxGeometry>
        </mxCell>
        <mxCell id="_UacAsJ8LhsHdzwPXFp5-149" value="" style="shape=tableRow;horizontal=0;swimlaneHead=0;swimlaneBody=0;top=0;left=0;strokeColor=inherit;bottom=0;right=0;dropTarget=0;fontStyle=0;fillColor=none;points=[[0,0.5],[1,0.5]];portConstraint=eastwest;startSize=40;collapsible=0;recursiveResize=0;expand=0;" vertex="1" parent="_UacAsJ8LhsHdzwPXFp5-85">
          <mxGeometry y="360" width="2400" height="120" as="geometry" />
        </mxCell>
        <mxCell id="_UacAsJ8LhsHdzwPXFp5-150" value="" style="swimlane;swimlaneHead=0;swimlaneBody=0;fontStyle=0;connectable=0;strokeColor=inherit;fillColor=none;startSize=0;collapsible=0;recursiveResize=0;expand=0;" vertex="1" parent="_UacAsJ8LhsHdzwPXFp5-149">
          <mxGeometry x="40" width="118" height="120" as="geometry">
            <mxRectangle width="118" height="120" as="alternateBounds" />
          </mxGeometry>
        </mxCell>
        <mxCell id="_UacAsJ8LhsHdzwPXFp5-151" value="" style="swimlane;swimlaneHead=0;swimlaneBody=0;fontStyle=0;connectable=0;strokeColor=inherit;fillColor=none;startSize=0;collapsible=0;recursiveResize=0;expand=0;" vertex="1" parent="_UacAsJ8LhsHdzwPXFp5-149">
          <mxGeometry x="158" width="118" height="120" as="geometry">
            <mxRectangle width="118" height="120" as="alternateBounds" />
          </mxGeometry>
        </mxCell>
        <mxCell id="_UacAsJ8LhsHdzwPXFp5-520" value="" style="verticalLabelPosition=bottom;shadow=0;dashed=0;align=center;html=1;verticalAlign=top;shape=mxgraph.electrical.logic_gates.logic_gate;operation=and;" vertex="1" parent="_UacAsJ8LhsHdzwPXFp5-151">
          <mxGeometry x="4" y="2" width="100" height="60" as="geometry" />
        </mxCell>
        <mxCell id="_UacAsJ8LhsHdzwPXFp5-522" style="edgeStyle=none;curved=1;rounded=0;orthogonalLoop=1;jettySize=auto;html=1;exitX=1;exitY=0.5;exitDx=0;exitDy=0;exitPerimeter=0;entryX=0.94;entryY=0.567;entryDx=0;entryDy=0;entryPerimeter=0;fontSize=12;startSize=8;endSize=8;endArrow=none;startFill=0;strokeWidth=2;" edge="1" parent="_UacAsJ8LhsHdzwPXFp5-151" source="_UacAsJ8LhsHdzwPXFp5-520" target="_UacAsJ8LhsHdzwPXFp5-520">
          <mxGeometry relative="1" as="geometry">
            <Array as="points">
              <mxPoint x="125" y="142" />
            </Array>
          </mxGeometry>
        </mxCell>
        <mxCell id="_UacAsJ8LhsHdzwPXFp5-152" value="" style="swimlane;swimlaneHead=0;swimlaneBody=0;fontStyle=0;connectable=0;strokeColor=inherit;fillColor=none;startSize=0;collapsible=0;recursiveResize=0;expand=0;" vertex="1" parent="_UacAsJ8LhsHdzwPXFp5-149">
          <mxGeometry x="276" width="118" height="120" as="geometry">
            <mxRectangle width="118" height="120" as="alternateBounds" />
          </mxGeometry>
        </mxCell>
        <mxCell id="_UacAsJ8LhsHdzwPXFp5-521" value="" style="verticalLabelPosition=bottom;shadow=0;dashed=0;align=center;html=1;verticalAlign=top;shape=mxgraph.electrical.logic_gates.buffer2;" vertex="1" parent="_UacAsJ8LhsHdzwPXFp5-152">
          <mxGeometry x="28" y="2" width="100" height="60" as="geometry" />
        </mxCell>
        <mxCell id="_UacAsJ8LhsHdzwPXFp5-153" value="" style="swimlane;swimlaneHead=0;swimlaneBody=0;fontStyle=0;connectable=0;strokeColor=inherit;fillColor=none;startSize=0;collapsible=0;recursiveResize=0;expand=0;" vertex="1" parent="_UacAsJ8LhsHdzwPXFp5-149">
          <mxGeometry x="394" width="118" height="120" as="geometry">
            <mxRectangle width="118" height="120" as="alternateBounds" />
          </mxGeometry>
        </mxCell>
        <mxCell id="_UacAsJ8LhsHdzwPXFp5-154" value="" style="swimlane;swimlaneHead=0;swimlaneBody=0;fontStyle=0;connectable=0;strokeColor=inherit;fillColor=none;startSize=0;collapsible=0;recursiveResize=0;expand=0;" vertex="1" parent="_UacAsJ8LhsHdzwPXFp5-149">
          <mxGeometry x="512" width="118" height="120" as="geometry">
            <mxRectangle width="118" height="120" as="alternateBounds" />
          </mxGeometry>
        </mxCell>
        <mxCell id="_UacAsJ8LhsHdzwPXFp5-509" value="" style="verticalLabelPosition=bottom;shadow=0;dashed=0;align=center;html=1;verticalAlign=top;shape=mxgraph.electrical.logic_gates.logic_gate;operation=and;" vertex="1" parent="_UacAsJ8LhsHdzwPXFp5-154">
          <mxGeometry x="9" width="100" height="60" as="geometry" />
        </mxCell>
        <mxCell id="_UacAsJ8LhsHdzwPXFp5-155" value="" style="swimlane;swimlaneHead=0;swimlaneBody=0;fontStyle=0;connectable=0;strokeColor=inherit;fillColor=none;startSize=0;collapsible=0;recursiveResize=0;expand=0;" vertex="1" parent="_UacAsJ8LhsHdzwPXFp5-149">
          <mxGeometry x="630" width="118" height="120" as="geometry">
            <mxRectangle width="118" height="120" as="alternateBounds" />
          </mxGeometry>
        </mxCell>
        <mxCell id="_UacAsJ8LhsHdzwPXFp5-156" value="" style="swimlane;swimlaneHead=0;swimlaneBody=0;fontStyle=0;connectable=0;strokeColor=inherit;fillColor=none;startSize=0;collapsible=0;recursiveResize=0;expand=0;" vertex="1" parent="_UacAsJ8LhsHdzwPXFp5-149">
          <mxGeometry x="748" width="118" height="120" as="geometry">
            <mxRectangle width="118" height="120" as="alternateBounds" />
          </mxGeometry>
        </mxCell>
        <mxCell id="_UacAsJ8LhsHdzwPXFp5-518" style="edgeStyle=none;curved=1;rounded=0;orthogonalLoop=1;jettySize=auto;html=1;exitX=1;exitY=0.5;exitDx=0;exitDy=0;exitPerimeter=0;fontSize=12;startSize=8;endSize=8;" edge="1" parent="_UacAsJ8LhsHdzwPXFp5-156" source="_UacAsJ8LhsHdzwPXFp5-512">
          <mxGeometry relative="1" as="geometry">
            <mxPoint x="231" y="46" as="targetPoint" />
          </mxGeometry>
        </mxCell>
        <mxCell id="_UacAsJ8LhsHdzwPXFp5-512" value="" style="verticalLabelPosition=bottom;shadow=0;dashed=0;align=center;html=1;verticalAlign=top;shape=mxgraph.electrical.logic_gates.logic_gate;operation=and;negating=1;negSize=0.15;" vertex="1" parent="_UacAsJ8LhsHdzwPXFp5-156">
          <mxGeometry x="18" y="16" width="100" height="60" as="geometry" />
        </mxCell>
        <mxCell id="_UacAsJ8LhsHdzwPXFp5-157" value="" style="swimlane;swimlaneHead=0;swimlaneBody=0;fontStyle=0;connectable=0;strokeColor=inherit;fillColor=none;startSize=0;collapsible=0;recursiveResize=0;expand=0;" vertex="1" parent="_UacAsJ8LhsHdzwPXFp5-149">
          <mxGeometry x="866" width="118" height="120" as="geometry">
            <mxRectangle width="118" height="120" as="alternateBounds" />
          </mxGeometry>
        </mxCell>
        <mxCell id="_UacAsJ8LhsHdzwPXFp5-158" value="" style="swimlane;swimlaneHead=0;swimlaneBody=0;fontStyle=0;connectable=0;strokeColor=inherit;fillColor=none;startSize=0;collapsible=0;recursiveResize=0;expand=0;" vertex="1" parent="_UacAsJ8LhsHdzwPXFp5-149">
          <mxGeometry x="984" width="118" height="120" as="geometry">
            <mxRectangle width="118" height="120" as="alternateBounds" />
          </mxGeometry>
        </mxCell>
        <mxCell id="_UacAsJ8LhsHdzwPXFp5-159" value="" style="swimlane;swimlaneHead=0;swimlaneBody=0;fontStyle=0;connectable=0;strokeColor=inherit;fillColor=none;startSize=0;collapsible=0;recursiveResize=0;expand=0;" vertex="1" parent="_UacAsJ8LhsHdzwPXFp5-149">
          <mxGeometry x="1102" width="118" height="120" as="geometry">
            <mxRectangle width="118" height="120" as="alternateBounds" />
          </mxGeometry>
        </mxCell>
        <mxCell id="_UacAsJ8LhsHdzwPXFp5-160" value="" style="swimlane;swimlaneHead=0;swimlaneBody=0;fontStyle=0;connectable=0;strokeColor=inherit;fillColor=none;startSize=0;collapsible=0;recursiveResize=0;expand=0;" vertex="1" parent="_UacAsJ8LhsHdzwPXFp5-149">
          <mxGeometry x="1220" width="118" height="120" as="geometry">
            <mxRectangle width="118" height="120" as="alternateBounds" />
          </mxGeometry>
        </mxCell>
        <mxCell id="_UacAsJ8LhsHdzwPXFp5-161" value="" style="swimlane;swimlaneHead=0;swimlaneBody=0;fontStyle=0;connectable=0;strokeColor=inherit;fillColor=none;startSize=0;collapsible=0;recursiveResize=0;expand=0;" vertex="1" parent="_UacAsJ8LhsHdzwPXFp5-149">
          <mxGeometry x="1338" width="118" height="120" as="geometry">
            <mxRectangle width="118" height="120" as="alternateBounds" />
          </mxGeometry>
        </mxCell>
        <mxCell id="_UacAsJ8LhsHdzwPXFp5-162" value="" style="swimlane;swimlaneHead=0;swimlaneBody=0;fontStyle=0;connectable=0;strokeColor=inherit;fillColor=none;startSize=0;collapsible=0;recursiveResize=0;expand=0;" vertex="1" parent="_UacAsJ8LhsHdzwPXFp5-149">
          <mxGeometry x="1456" width="118" height="120" as="geometry">
            <mxRectangle width="118" height="120" as="alternateBounds" />
          </mxGeometry>
        </mxCell>
        <mxCell id="_UacAsJ8LhsHdzwPXFp5-163" value="" style="swimlane;swimlaneHead=0;swimlaneBody=0;fontStyle=0;connectable=0;strokeColor=inherit;fillColor=none;startSize=0;collapsible=0;recursiveResize=0;expand=0;" vertex="1" parent="_UacAsJ8LhsHdzwPXFp5-149">
          <mxGeometry x="1574" width="118" height="120" as="geometry">
            <mxRectangle width="118" height="120" as="alternateBounds" />
          </mxGeometry>
        </mxCell>
        <mxCell id="_UacAsJ8LhsHdzwPXFp5-164" value="" style="swimlane;swimlaneHead=0;swimlaneBody=0;fontStyle=0;connectable=0;strokeColor=inherit;fillColor=none;startSize=0;collapsible=0;recursiveResize=0;expand=0;" vertex="1" parent="_UacAsJ8LhsHdzwPXFp5-149">
          <mxGeometry x="1692" width="118" height="120" as="geometry">
            <mxRectangle width="118" height="120" as="alternateBounds" />
          </mxGeometry>
        </mxCell>
        <mxCell id="_UacAsJ8LhsHdzwPXFp5-165" value="" style="swimlane;swimlaneHead=0;swimlaneBody=0;fontStyle=0;connectable=0;strokeColor=inherit;fillColor=none;startSize=0;collapsible=0;recursiveResize=0;expand=0;" vertex="1" parent="_UacAsJ8LhsHdzwPXFp5-149">
          <mxGeometry x="1810" width="118" height="120" as="geometry">
            <mxRectangle width="118" height="120" as="alternateBounds" />
          </mxGeometry>
        </mxCell>
        <mxCell id="_UacAsJ8LhsHdzwPXFp5-166" value="" style="swimlane;swimlaneHead=0;swimlaneBody=0;fontStyle=0;connectable=0;strokeColor=inherit;fillColor=none;startSize=0;collapsible=0;recursiveResize=0;expand=0;" vertex="1" parent="_UacAsJ8LhsHdzwPXFp5-149">
          <mxGeometry x="1928" width="118" height="120" as="geometry">
            <mxRectangle width="118" height="120" as="alternateBounds" />
          </mxGeometry>
        </mxCell>
        <mxCell id="_UacAsJ8LhsHdzwPXFp5-167" value="" style="swimlane;swimlaneHead=0;swimlaneBody=0;fontStyle=0;connectable=0;strokeColor=inherit;fillColor=none;startSize=0;collapsible=0;recursiveResize=0;expand=0;" vertex="1" parent="_UacAsJ8LhsHdzwPXFp5-149">
          <mxGeometry x="2046" width="118" height="120" as="geometry">
            <mxRectangle width="118" height="120" as="alternateBounds" />
          </mxGeometry>
        </mxCell>
        <mxCell id="_UacAsJ8LhsHdzwPXFp5-168" value="" style="swimlane;swimlaneHead=0;swimlaneBody=0;fontStyle=0;connectable=0;strokeColor=inherit;fillColor=none;startSize=0;collapsible=0;recursiveResize=0;expand=0;" vertex="1" parent="_UacAsJ8LhsHdzwPXFp5-149">
          <mxGeometry x="2164" width="118" height="120" as="geometry">
            <mxRectangle width="118" height="120" as="alternateBounds" />
          </mxGeometry>
        </mxCell>
        <mxCell id="_UacAsJ8LhsHdzwPXFp5-169" value="" style="swimlane;swimlaneHead=0;swimlaneBody=0;fontStyle=0;connectable=0;strokeColor=inherit;fillColor=none;startSize=0;collapsible=0;recursiveResize=0;expand=0;" vertex="1" parent="_UacAsJ8LhsHdzwPXFp5-149">
          <mxGeometry x="2282" width="118" height="120" as="geometry">
            <mxRectangle width="118" height="120" as="alternateBounds" />
          </mxGeometry>
        </mxCell>
        <mxCell id="_UacAsJ8LhsHdzwPXFp5-514" style="edgeStyle=none;curved=1;rounded=0;orthogonalLoop=1;jettySize=auto;html=1;exitX=1;exitY=0.5;exitDx=0;exitDy=0;exitPerimeter=0;entryX=0;entryY=0.25;entryDx=0;entryDy=0;entryPerimeter=0;fontSize=12;startSize=8;endSize=8;endArrow=none;startFill=0;" edge="1" parent="_UacAsJ8LhsHdzwPXFp5-149" source="_UacAsJ8LhsHdzwPXFp5-509" target="_UacAsJ8LhsHdzwPXFp5-512">
          <mxGeometry relative="1" as="geometry" />
        </mxCell>
        <mxCell id="_UacAsJ8LhsHdzwPXFp5-170" value="" style="shape=tableRow;horizontal=0;swimlaneHead=0;swimlaneBody=0;top=0;left=0;strokeColor=inherit;bottom=0;right=0;dropTarget=0;fontStyle=0;fillColor=none;points=[[0,0.5],[1,0.5]];portConstraint=eastwest;startSize=40;collapsible=0;recursiveResize=0;expand=0;" vertex="1" parent="_UacAsJ8LhsHdzwPXFp5-85">
          <mxGeometry y="480" width="2400" height="120" as="geometry" />
        </mxCell>
        <mxCell id="_UacAsJ8LhsHdzwPXFp5-171" value="" style="swimlane;swimlaneHead=0;swimlaneBody=0;fontStyle=0;connectable=0;strokeColor=inherit;fillColor=none;startSize=0;collapsible=0;recursiveResize=0;expand=0;" vertex="1" parent="_UacAsJ8LhsHdzwPXFp5-170">
          <mxGeometry x="40" width="118" height="120" as="geometry">
            <mxRectangle width="118" height="120" as="alternateBounds" />
          </mxGeometry>
        </mxCell>
        <mxCell id="_UacAsJ8LhsHdzwPXFp5-172" value="" style="swimlane;swimlaneHead=0;swimlaneBody=0;fontStyle=0;connectable=0;strokeColor=inherit;fillColor=none;startSize=0;collapsible=0;recursiveResize=0;expand=0;" vertex="1" parent="_UacAsJ8LhsHdzwPXFp5-170">
          <mxGeometry x="158" width="118" height="120" as="geometry">
            <mxRectangle width="118" height="120" as="alternateBounds" />
          </mxGeometry>
        </mxCell>
        <mxCell id="_UacAsJ8LhsHdzwPXFp5-523" value="" style="verticalLabelPosition=bottom;shadow=0;dashed=0;align=center;html=1;verticalAlign=top;shape=mxgraph.electrical.logic_gates.logic_gate;operation=and;fontFamily=Helvetica;fontSize=12;fontColor=default;labelBackgroundColor=default;" vertex="1" parent="_UacAsJ8LhsHdzwPXFp5-172">
          <mxGeometry x="-9" y="4" width="100" height="60" as="geometry" />
        </mxCell>
        <mxCell id="_UacAsJ8LhsHdzwPXFp5-173" value="" style="swimlane;swimlaneHead=0;swimlaneBody=0;fontStyle=0;connectable=0;strokeColor=inherit;fillColor=none;startSize=0;collapsible=0;recursiveResize=0;expand=0;strokeWidth=2;" vertex="1" parent="_UacAsJ8LhsHdzwPXFp5-170">
          <mxGeometry x="276" width="118" height="120" as="geometry">
            <mxRectangle width="118" height="120" as="alternateBounds" />
          </mxGeometry>
        </mxCell>
        <mxCell id="_UacAsJ8LhsHdzwPXFp5-524" value="" style="verticalLabelPosition=bottom;shadow=0;dashed=0;align=center;html=1;verticalAlign=top;shape=mxgraph.electrical.logic_gates.buffer2;fontFamily=Helvetica;fontSize=12;fontColor=default;labelBackgroundColor=default;" vertex="1" parent="_UacAsJ8LhsHdzwPXFp5-173">
          <mxGeometry x="14" y="4" width="100" height="60" as="geometry" />
        </mxCell>
        <mxCell id="_UacAsJ8LhsHdzwPXFp5-174" value="" style="swimlane;swimlaneHead=0;swimlaneBody=0;fontStyle=0;connectable=0;strokeColor=inherit;fillColor=none;startSize=0;collapsible=0;recursiveResize=0;expand=0;" vertex="1" parent="_UacAsJ8LhsHdzwPXFp5-170">
          <mxGeometry x="394" width="118" height="120" as="geometry">
            <mxRectangle width="118" height="120" as="alternateBounds" />
          </mxGeometry>
        </mxCell>
        <mxCell id="_UacAsJ8LhsHdzwPXFp5-175" value="" style="swimlane;swimlaneHead=0;swimlaneBody=0;fontStyle=0;connectable=0;strokeColor=inherit;fillColor=none;startSize=0;collapsible=0;recursiveResize=0;expand=0;" vertex="1" parent="_UacAsJ8LhsHdzwPXFp5-170">
          <mxGeometry x="512" width="118" height="120" as="geometry">
            <mxRectangle width="118" height="120" as="alternateBounds" />
          </mxGeometry>
        </mxCell>
        <mxCell id="_UacAsJ8LhsHdzwPXFp5-510" value="" style="verticalLabelPosition=bottom;shadow=0;dashed=0;align=center;html=1;verticalAlign=top;shape=mxgraph.electrical.logic_gates.logic_gate;operation=and;" vertex="1" parent="_UacAsJ8LhsHdzwPXFp5-175">
          <mxGeometry x="9" y="60" width="100" height="60" as="geometry" />
        </mxCell>
        <mxCell id="_UacAsJ8LhsHdzwPXFp5-176" value="" style="swimlane;swimlaneHead=0;swimlaneBody=0;fontStyle=0;connectable=0;strokeColor=inherit;fillColor=none;startSize=0;collapsible=0;recursiveResize=0;expand=0;" vertex="1" parent="_UacAsJ8LhsHdzwPXFp5-170">
          <mxGeometry x="630" width="118" height="120" as="geometry">
            <mxRectangle width="118" height="120" as="alternateBounds" />
          </mxGeometry>
        </mxCell>
        <mxCell id="_UacAsJ8LhsHdzwPXFp5-177" value="" style="swimlane;swimlaneHead=0;swimlaneBody=0;fontStyle=0;connectable=0;strokeColor=inherit;fillColor=none;startSize=0;collapsible=0;recursiveResize=0;expand=0;" vertex="1" parent="_UacAsJ8LhsHdzwPXFp5-170">
          <mxGeometry x="748" width="118" height="120" as="geometry">
            <mxRectangle width="118" height="120" as="alternateBounds" />
          </mxGeometry>
        </mxCell>
        <mxCell id="_UacAsJ8LhsHdzwPXFp5-517" style="edgeStyle=none;curved=1;rounded=0;orthogonalLoop=1;jettySize=auto;html=1;exitX=1;exitY=0.5;exitDx=0;exitDy=0;exitPerimeter=0;fontSize=12;startSize=8;endSize=8;" edge="1" parent="_UacAsJ8LhsHdzwPXFp5-177" source="_UacAsJ8LhsHdzwPXFp5-511">
          <mxGeometry relative="1" as="geometry">
            <mxPoint x="236" y="76" as="targetPoint" />
          </mxGeometry>
        </mxCell>
        <mxCell id="_UacAsJ8LhsHdzwPXFp5-511" value="" style="verticalLabelPosition=bottom;shadow=0;dashed=0;align=center;html=1;verticalAlign=top;shape=mxgraph.electrical.logic_gates.logic_gate;operation=and;negating=1;negSize=0.15;" vertex="1" parent="_UacAsJ8LhsHdzwPXFp5-177">
          <mxGeometry x="18" y="46" width="100" height="60" as="geometry" />
        </mxCell>
        <mxCell id="_UacAsJ8LhsHdzwPXFp5-178" value="" style="swimlane;swimlaneHead=0;swimlaneBody=0;fontStyle=0;connectable=0;strokeColor=inherit;fillColor=none;startSize=0;collapsible=0;recursiveResize=0;expand=0;" vertex="1" parent="_UacAsJ8LhsHdzwPXFp5-170">
          <mxGeometry x="866" width="118" height="120" as="geometry">
            <mxRectangle width="118" height="120" as="alternateBounds" />
          </mxGeometry>
        </mxCell>
        <mxCell id="_UacAsJ8LhsHdzwPXFp5-179" value="" style="swimlane;swimlaneHead=0;swimlaneBody=0;fontStyle=0;connectable=0;strokeColor=inherit;fillColor=none;startSize=0;collapsible=0;recursiveResize=0;expand=0;" vertex="1" parent="_UacAsJ8LhsHdzwPXFp5-170">
          <mxGeometry x="984" width="118" height="120" as="geometry">
            <mxRectangle width="118" height="120" as="alternateBounds" />
          </mxGeometry>
        </mxCell>
        <mxCell id="_UacAsJ8LhsHdzwPXFp5-180" value="" style="swimlane;swimlaneHead=0;swimlaneBody=0;fontStyle=0;connectable=0;strokeColor=inherit;fillColor=none;startSize=0;collapsible=0;recursiveResize=0;expand=0;" vertex="1" parent="_UacAsJ8LhsHdzwPXFp5-170">
          <mxGeometry x="1102" width="118" height="120" as="geometry">
            <mxRectangle width="118" height="120" as="alternateBounds" />
          </mxGeometry>
        </mxCell>
        <mxCell id="_UacAsJ8LhsHdzwPXFp5-181" value="" style="swimlane;swimlaneHead=0;swimlaneBody=0;fontStyle=0;connectable=0;strokeColor=inherit;fillColor=none;startSize=0;collapsible=0;recursiveResize=0;expand=0;" vertex="1" parent="_UacAsJ8LhsHdzwPXFp5-170">
          <mxGeometry x="1220" width="118" height="120" as="geometry">
            <mxRectangle width="118" height="120" as="alternateBounds" />
          </mxGeometry>
        </mxCell>
        <mxCell id="_UacAsJ8LhsHdzwPXFp5-182" value="" style="swimlane;swimlaneHead=0;swimlaneBody=0;fontStyle=0;connectable=0;strokeColor=inherit;fillColor=none;startSize=0;collapsible=0;recursiveResize=0;expand=0;" vertex="1" parent="_UacAsJ8LhsHdzwPXFp5-170">
          <mxGeometry x="1338" width="118" height="120" as="geometry">
            <mxRectangle width="118" height="120" as="alternateBounds" />
          </mxGeometry>
        </mxCell>
        <mxCell id="_UacAsJ8LhsHdzwPXFp5-183" value="" style="swimlane;swimlaneHead=0;swimlaneBody=0;fontStyle=0;connectable=0;strokeColor=inherit;fillColor=none;startSize=0;collapsible=0;recursiveResize=0;expand=0;" vertex="1" parent="_UacAsJ8LhsHdzwPXFp5-170">
          <mxGeometry x="1456" width="118" height="120" as="geometry">
            <mxRectangle width="118" height="120" as="alternateBounds" />
          </mxGeometry>
        </mxCell>
        <mxCell id="_UacAsJ8LhsHdzwPXFp5-184" value="" style="swimlane;swimlaneHead=0;swimlaneBody=0;fontStyle=0;connectable=0;strokeColor=inherit;fillColor=none;startSize=0;collapsible=0;recursiveResize=0;expand=0;" vertex="1" parent="_UacAsJ8LhsHdzwPXFp5-170">
          <mxGeometry x="1574" width="118" height="120" as="geometry">
            <mxRectangle width="118" height="120" as="alternateBounds" />
          </mxGeometry>
        </mxCell>
        <mxCell id="_UacAsJ8LhsHdzwPXFp5-185" value="" style="swimlane;swimlaneHead=0;swimlaneBody=0;fontStyle=0;connectable=0;strokeColor=inherit;fillColor=none;startSize=0;collapsible=0;recursiveResize=0;expand=0;" vertex="1" parent="_UacAsJ8LhsHdzwPXFp5-170">
          <mxGeometry x="1692" width="118" height="120" as="geometry">
            <mxRectangle width="118" height="120" as="alternateBounds" />
          </mxGeometry>
        </mxCell>
        <mxCell id="_UacAsJ8LhsHdzwPXFp5-186" value="" style="swimlane;swimlaneHead=0;swimlaneBody=0;fontStyle=0;connectable=0;strokeColor=inherit;fillColor=none;startSize=0;collapsible=0;recursiveResize=0;expand=0;" vertex="1" parent="_UacAsJ8LhsHdzwPXFp5-170">
          <mxGeometry x="1810" width="118" height="120" as="geometry">
            <mxRectangle width="118" height="120" as="alternateBounds" />
          </mxGeometry>
        </mxCell>
        <mxCell id="_UacAsJ8LhsHdzwPXFp5-187" value="" style="swimlane;swimlaneHead=0;swimlaneBody=0;fontStyle=0;connectable=0;strokeColor=inherit;fillColor=none;startSize=0;collapsible=0;recursiveResize=0;expand=0;" vertex="1" parent="_UacAsJ8LhsHdzwPXFp5-170">
          <mxGeometry x="1928" width="118" height="120" as="geometry">
            <mxRectangle width="118" height="120" as="alternateBounds" />
          </mxGeometry>
        </mxCell>
        <mxCell id="_UacAsJ8LhsHdzwPXFp5-188" value="" style="swimlane;swimlaneHead=0;swimlaneBody=0;fontStyle=0;connectable=0;strokeColor=inherit;fillColor=none;startSize=0;collapsible=0;recursiveResize=0;expand=0;" vertex="1" parent="_UacAsJ8LhsHdzwPXFp5-170">
          <mxGeometry x="2046" width="118" height="120" as="geometry">
            <mxRectangle width="118" height="120" as="alternateBounds" />
          </mxGeometry>
        </mxCell>
        <mxCell id="_UacAsJ8LhsHdzwPXFp5-189" value="" style="swimlane;swimlaneHead=0;swimlaneBody=0;fontStyle=0;connectable=0;strokeColor=inherit;fillColor=none;startSize=0;collapsible=0;recursiveResize=0;expand=0;" vertex="1" parent="_UacAsJ8LhsHdzwPXFp5-170">
          <mxGeometry x="2164" width="118" height="120" as="geometry">
            <mxRectangle width="118" height="120" as="alternateBounds" />
          </mxGeometry>
        </mxCell>
        <mxCell id="_UacAsJ8LhsHdzwPXFp5-190" value="" style="swimlane;swimlaneHead=0;swimlaneBody=0;fontStyle=0;connectable=0;strokeColor=inherit;fillColor=none;startSize=0;collapsible=0;recursiveResize=0;expand=0;" vertex="1" parent="_UacAsJ8LhsHdzwPXFp5-170">
          <mxGeometry x="2282" width="118" height="120" as="geometry">
            <mxRectangle width="118" height="120" as="alternateBounds" />
          </mxGeometry>
        </mxCell>
        <mxCell id="_UacAsJ8LhsHdzwPXFp5-513" style="edgeStyle=none;curved=1;rounded=0;orthogonalLoop=1;jettySize=auto;html=1;exitX=1;exitY=0.5;exitDx=0;exitDy=0;exitPerimeter=0;entryX=0;entryY=0.75;entryDx=0;entryDy=0;entryPerimeter=0;fontSize=12;startSize=8;endSize=8;" edge="1" parent="_UacAsJ8LhsHdzwPXFp5-170" source="_UacAsJ8LhsHdzwPXFp5-510" target="_UacAsJ8LhsHdzwPXFp5-511">
          <mxGeometry relative="1" as="geometry" />
        </mxCell>
        <mxCell id="_UacAsJ8LhsHdzwPXFp5-525" style="edgeStyle=none;shape=connector;curved=1;rounded=0;orthogonalLoop=1;jettySize=auto;html=1;exitX=1;exitY=0.5;exitDx=0;exitDy=0;exitPerimeter=0;entryX=0;entryY=0.5;entryDx=0;entryDy=0;strokeColor=default;strokeWidth=2;align=center;verticalAlign=middle;fontFamily=Helvetica;fontSize=12;fontColor=default;labelBackgroundColor=default;startFill=0;startSize=8;endArrow=none;endSize=8;" edge="1" parent="_UacAsJ8LhsHdzwPXFp5-170" source="_UacAsJ8LhsHdzwPXFp5-523" target="_UacAsJ8LhsHdzwPXFp5-524">
          <mxGeometry relative="1" as="geometry" />
        </mxCell>
        <mxCell id="_UacAsJ8LhsHdzwPXFp5-191" value="" style="shape=tableRow;horizontal=0;swimlaneHead=0;swimlaneBody=0;top=0;left=0;strokeColor=inherit;bottom=0;right=0;dropTarget=0;fontStyle=0;fillColor=none;points=[[0,0.5],[1,0.5]];portConstraint=eastwest;startSize=40;collapsible=0;recursiveResize=0;expand=0;" vertex="1" parent="_UacAsJ8LhsHdzwPXFp5-85">
          <mxGeometry y="600" width="2400" height="120" as="geometry" />
        </mxCell>
        <mxCell id="_UacAsJ8LhsHdzwPXFp5-192" value="" style="swimlane;swimlaneHead=0;swimlaneBody=0;fontStyle=0;connectable=0;strokeColor=inherit;fillColor=none;startSize=0;collapsible=0;recursiveResize=0;expand=0;" vertex="1" parent="_UacAsJ8LhsHdzwPXFp5-191">
          <mxGeometry x="40" width="118" height="120" as="geometry">
            <mxRectangle width="118" height="120" as="alternateBounds" />
          </mxGeometry>
        </mxCell>
        <mxCell id="_UacAsJ8LhsHdzwPXFp5-193" value="" style="swimlane;swimlaneHead=0;swimlaneBody=0;fontStyle=0;connectable=0;strokeColor=inherit;fillColor=none;startSize=0;collapsible=0;recursiveResize=0;expand=0;" vertex="1" parent="_UacAsJ8LhsHdzwPXFp5-191">
          <mxGeometry x="158" width="118" height="120" as="geometry">
            <mxRectangle width="118" height="120" as="alternateBounds" />
          </mxGeometry>
        </mxCell>
        <mxCell id="_UacAsJ8LhsHdzwPXFp5-527" value="" style="verticalLabelPosition=bottom;shadow=0;dashed=0;align=center;html=1;verticalAlign=top;shape=mxgraph.electrical.logic_gates.logic_gate;operation=and;strokeColor=inherit;strokeWidth=2;fontFamily=Helvetica;fontSize=12;fontColor=default;fontStyle=0;fillColor=none;" vertex="1" parent="_UacAsJ8LhsHdzwPXFp5-193">
          <mxGeometry x="9" y="22" width="100" height="60" as="geometry" />
        </mxCell>
        <mxCell id="_UacAsJ8LhsHdzwPXFp5-194" value="" style="swimlane;swimlaneHead=0;swimlaneBody=0;fontStyle=0;connectable=0;strokeColor=inherit;fillColor=none;startSize=0;collapsible=0;recursiveResize=0;expand=0;" vertex="1" parent="_UacAsJ8LhsHdzwPXFp5-191">
          <mxGeometry x="276" width="118" height="120" as="geometry">
            <mxRectangle width="118" height="120" as="alternateBounds" />
          </mxGeometry>
        </mxCell>
        <mxCell id="_UacAsJ8LhsHdzwPXFp5-526" value="" style="verticalLabelPosition=bottom;shadow=0;dashed=0;align=center;html=1;verticalAlign=top;shape=mxgraph.electrical.logic_gates.buffer2;strokeColor=inherit;strokeWidth=2;fontFamily=Helvetica;fontSize=12;fontColor=default;fontStyle=0;fillColor=none;" vertex="1" parent="_UacAsJ8LhsHdzwPXFp5-194">
          <mxGeometry x="28" y="22" width="100" height="60" as="geometry" />
        </mxCell>
        <mxCell id="_UacAsJ8LhsHdzwPXFp5-195" value="" style="swimlane;swimlaneHead=0;swimlaneBody=0;fontStyle=0;connectable=0;strokeColor=inherit;fillColor=none;startSize=0;collapsible=0;recursiveResize=0;expand=0;" vertex="1" parent="_UacAsJ8LhsHdzwPXFp5-191">
          <mxGeometry x="394" width="118" height="120" as="geometry">
            <mxRectangle width="118" height="120" as="alternateBounds" />
          </mxGeometry>
        </mxCell>
        <mxCell id="_UacAsJ8LhsHdzwPXFp5-196" value="" style="swimlane;swimlaneHead=0;swimlaneBody=0;fontStyle=0;connectable=0;strokeColor=inherit;fillColor=none;startSize=0;collapsible=0;recursiveResize=0;expand=0;" vertex="1" parent="_UacAsJ8LhsHdzwPXFp5-191">
          <mxGeometry x="512" width="118" height="120" as="geometry">
            <mxRectangle width="118" height="120" as="alternateBounds" />
          </mxGeometry>
        </mxCell>
        <mxCell id="_UacAsJ8LhsHdzwPXFp5-197" value="" style="swimlane;swimlaneHead=0;swimlaneBody=0;fontStyle=0;connectable=0;strokeColor=inherit;fillColor=none;startSize=0;collapsible=0;recursiveResize=0;expand=0;" vertex="1" parent="_UacAsJ8LhsHdzwPXFp5-191">
          <mxGeometry x="630" width="118" height="120" as="geometry">
            <mxRectangle width="118" height="120" as="alternateBounds" />
          </mxGeometry>
        </mxCell>
        <mxCell id="_UacAsJ8LhsHdzwPXFp5-198" value="" style="swimlane;swimlaneHead=0;swimlaneBody=0;fontStyle=0;connectable=0;strokeColor=inherit;fillColor=none;startSize=0;collapsible=0;recursiveResize=0;expand=0;" vertex="1" parent="_UacAsJ8LhsHdzwPXFp5-191">
          <mxGeometry x="748" width="118" height="120" as="geometry">
            <mxRectangle width="118" height="120" as="alternateBounds" />
          </mxGeometry>
        </mxCell>
        <mxCell id="_UacAsJ8LhsHdzwPXFp5-199" value="" style="swimlane;swimlaneHead=0;swimlaneBody=0;fontStyle=0;connectable=0;strokeColor=inherit;fillColor=none;startSize=0;collapsible=0;recursiveResize=0;expand=0;" vertex="1" parent="_UacAsJ8LhsHdzwPXFp5-191">
          <mxGeometry x="866" width="118" height="120" as="geometry">
            <mxRectangle width="118" height="120" as="alternateBounds" />
          </mxGeometry>
        </mxCell>
        <mxCell id="_UacAsJ8LhsHdzwPXFp5-200" value="" style="swimlane;swimlaneHead=0;swimlaneBody=0;fontStyle=0;connectable=0;strokeColor=inherit;fillColor=none;startSize=0;collapsible=0;recursiveResize=0;expand=0;" vertex="1" parent="_UacAsJ8LhsHdzwPXFp5-191">
          <mxGeometry x="984" width="118" height="120" as="geometry">
            <mxRectangle width="118" height="120" as="alternateBounds" />
          </mxGeometry>
        </mxCell>
        <mxCell id="_UacAsJ8LhsHdzwPXFp5-201" value="" style="swimlane;swimlaneHead=0;swimlaneBody=0;fontStyle=0;connectable=0;strokeColor=inherit;fillColor=none;startSize=0;collapsible=0;recursiveResize=0;expand=0;" vertex="1" parent="_UacAsJ8LhsHdzwPXFp5-191">
          <mxGeometry x="1102" width="118" height="120" as="geometry">
            <mxRectangle width="118" height="120" as="alternateBounds" />
          </mxGeometry>
        </mxCell>
        <mxCell id="_UacAsJ8LhsHdzwPXFp5-202" value="" style="swimlane;swimlaneHead=0;swimlaneBody=0;fontStyle=0;connectable=0;strokeColor=inherit;fillColor=none;startSize=0;collapsible=0;recursiveResize=0;expand=0;" vertex="1" parent="_UacAsJ8LhsHdzwPXFp5-191">
          <mxGeometry x="1220" width="118" height="120" as="geometry">
            <mxRectangle width="118" height="120" as="alternateBounds" />
          </mxGeometry>
        </mxCell>
        <mxCell id="_UacAsJ8LhsHdzwPXFp5-203" value="" style="swimlane;swimlaneHead=0;swimlaneBody=0;fontStyle=0;connectable=0;strokeColor=inherit;fillColor=none;startSize=0;collapsible=0;recursiveResize=0;expand=0;" vertex="1" parent="_UacAsJ8LhsHdzwPXFp5-191">
          <mxGeometry x="1338" width="118" height="120" as="geometry">
            <mxRectangle width="118" height="120" as="alternateBounds" />
          </mxGeometry>
        </mxCell>
        <mxCell id="_UacAsJ8LhsHdzwPXFp5-204" value="" style="swimlane;swimlaneHead=0;swimlaneBody=0;fontStyle=0;connectable=0;strokeColor=inherit;fillColor=none;startSize=0;collapsible=0;recursiveResize=0;expand=0;" vertex="1" parent="_UacAsJ8LhsHdzwPXFp5-191">
          <mxGeometry x="1456" width="118" height="120" as="geometry">
            <mxRectangle width="118" height="120" as="alternateBounds" />
          </mxGeometry>
        </mxCell>
        <mxCell id="_UacAsJ8LhsHdzwPXFp5-205" value="" style="swimlane;swimlaneHead=0;swimlaneBody=0;fontStyle=0;connectable=0;strokeColor=inherit;fillColor=none;startSize=0;collapsible=0;recursiveResize=0;expand=0;" vertex="1" parent="_UacAsJ8LhsHdzwPXFp5-191">
          <mxGeometry x="1574" width="118" height="120" as="geometry">
            <mxRectangle width="118" height="120" as="alternateBounds" />
          </mxGeometry>
        </mxCell>
        <mxCell id="_UacAsJ8LhsHdzwPXFp5-206" value="" style="swimlane;swimlaneHead=0;swimlaneBody=0;fontStyle=0;connectable=0;strokeColor=inherit;fillColor=none;startSize=0;collapsible=0;recursiveResize=0;expand=0;" vertex="1" parent="_UacAsJ8LhsHdzwPXFp5-191">
          <mxGeometry x="1692" width="118" height="120" as="geometry">
            <mxRectangle width="118" height="120" as="alternateBounds" />
          </mxGeometry>
        </mxCell>
        <mxCell id="_UacAsJ8LhsHdzwPXFp5-207" value="" style="swimlane;swimlaneHead=0;swimlaneBody=0;fontStyle=0;connectable=0;strokeColor=inherit;fillColor=none;startSize=0;collapsible=0;recursiveResize=0;expand=0;" vertex="1" parent="_UacAsJ8LhsHdzwPXFp5-191">
          <mxGeometry x="1810" width="118" height="120" as="geometry">
            <mxRectangle width="118" height="120" as="alternateBounds" />
          </mxGeometry>
        </mxCell>
        <mxCell id="_UacAsJ8LhsHdzwPXFp5-208" value="" style="swimlane;swimlaneHead=0;swimlaneBody=0;fontStyle=0;connectable=0;strokeColor=inherit;fillColor=none;startSize=0;collapsible=0;recursiveResize=0;expand=0;" vertex="1" parent="_UacAsJ8LhsHdzwPXFp5-191">
          <mxGeometry x="1928" width="118" height="120" as="geometry">
            <mxRectangle width="118" height="120" as="alternateBounds" />
          </mxGeometry>
        </mxCell>
        <mxCell id="_UacAsJ8LhsHdzwPXFp5-209" value="" style="swimlane;swimlaneHead=0;swimlaneBody=0;fontStyle=0;connectable=0;strokeColor=inherit;fillColor=none;startSize=0;collapsible=0;recursiveResize=0;expand=0;" vertex="1" parent="_UacAsJ8LhsHdzwPXFp5-191">
          <mxGeometry x="2046" width="118" height="120" as="geometry">
            <mxRectangle width="118" height="120" as="alternateBounds" />
          </mxGeometry>
        </mxCell>
        <mxCell id="_UacAsJ8LhsHdzwPXFp5-210" value="" style="swimlane;swimlaneHead=0;swimlaneBody=0;fontStyle=0;connectable=0;strokeColor=inherit;fillColor=none;startSize=0;collapsible=0;recursiveResize=0;expand=0;" vertex="1" parent="_UacAsJ8LhsHdzwPXFp5-191">
          <mxGeometry x="2164" width="118" height="120" as="geometry">
            <mxRectangle width="118" height="120" as="alternateBounds" />
          </mxGeometry>
        </mxCell>
        <mxCell id="_UacAsJ8LhsHdzwPXFp5-211" value="" style="swimlane;swimlaneHead=0;swimlaneBody=0;fontStyle=0;connectable=0;strokeColor=inherit;fillColor=none;startSize=0;collapsible=0;recursiveResize=0;expand=0;" vertex="1" parent="_UacAsJ8LhsHdzwPXFp5-191">
          <mxGeometry x="2282" width="118" height="120" as="geometry">
            <mxRectangle width="118" height="120" as="alternateBounds" />
          </mxGeometry>
        </mxCell>
        <mxCell id="_UacAsJ8LhsHdzwPXFp5-528" style="edgeStyle=none;shape=connector;curved=1;rounded=0;orthogonalLoop=1;jettySize=auto;html=1;exitX=1;exitY=0.5;exitDx=0;exitDy=0;exitPerimeter=0;entryX=0;entryY=0.5;entryDx=0;entryDy=0;strokeColor=default;strokeWidth=2;align=center;verticalAlign=middle;fontFamily=Helvetica;fontSize=12;fontColor=default;fontStyle=0;labelBackgroundColor=default;startFill=0;startSize=8;endArrow=none;endSize=8;" edge="1" parent="_UacAsJ8LhsHdzwPXFp5-191" source="_UacAsJ8LhsHdzwPXFp5-527" target="_UacAsJ8LhsHdzwPXFp5-526">
          <mxGeometry relative="1" as="geometry" />
        </mxCell>
        <mxCell id="_UacAsJ8LhsHdzwPXFp5-212" value="" style="shape=tableRow;horizontal=0;swimlaneHead=0;swimlaneBody=0;top=0;left=0;strokeColor=inherit;bottom=0;right=0;dropTarget=0;fontStyle=0;fillColor=none;points=[[0,0.5],[1,0.5]];portConstraint=eastwest;startSize=40;collapsible=0;recursiveResize=0;expand=0;" vertex="1" parent="_UacAsJ8LhsHdzwPXFp5-85">
          <mxGeometry y="720" width="2400" height="120" as="geometry" />
        </mxCell>
        <mxCell id="_UacAsJ8LhsHdzwPXFp5-213" value="" style="swimlane;swimlaneHead=0;swimlaneBody=0;fontStyle=0;connectable=0;strokeColor=inherit;fillColor=none;startSize=0;collapsible=0;recursiveResize=0;expand=0;" vertex="1" parent="_UacAsJ8LhsHdzwPXFp5-212">
          <mxGeometry x="40" width="118" height="120" as="geometry">
            <mxRectangle width="118" height="120" as="alternateBounds" />
          </mxGeometry>
        </mxCell>
        <mxCell id="_UacAsJ8LhsHdzwPXFp5-214" value="" style="swimlane;swimlaneHead=0;swimlaneBody=0;fontStyle=0;connectable=0;strokeColor=inherit;fillColor=none;startSize=0;collapsible=0;recursiveResize=0;expand=0;" vertex="1" parent="_UacAsJ8LhsHdzwPXFp5-212">
          <mxGeometry x="158" width="118" height="120" as="geometry">
            <mxRectangle width="118" height="120" as="alternateBounds" />
          </mxGeometry>
        </mxCell>
        <mxCell id="_UacAsJ8LhsHdzwPXFp5-215" value="" style="swimlane;swimlaneHead=0;swimlaneBody=0;fontStyle=0;connectable=0;strokeColor=inherit;fillColor=none;startSize=0;collapsible=0;recursiveResize=0;expand=0;" vertex="1" parent="_UacAsJ8LhsHdzwPXFp5-212">
          <mxGeometry x="276" width="118" height="120" as="geometry">
            <mxRectangle width="118" height="120" as="alternateBounds" />
          </mxGeometry>
        </mxCell>
        <mxCell id="_UacAsJ8LhsHdzwPXFp5-216" value="" style="swimlane;swimlaneHead=0;swimlaneBody=0;fontStyle=0;connectable=0;strokeColor=inherit;fillColor=none;startSize=0;collapsible=0;recursiveResize=0;expand=0;" vertex="1" parent="_UacAsJ8LhsHdzwPXFp5-212">
          <mxGeometry x="394" width="118" height="120" as="geometry">
            <mxRectangle width="118" height="120" as="alternateBounds" />
          </mxGeometry>
        </mxCell>
        <mxCell id="_UacAsJ8LhsHdzwPXFp5-217" value="" style="swimlane;swimlaneHead=0;swimlaneBody=0;fontStyle=0;connectable=0;strokeColor=inherit;fillColor=none;startSize=0;collapsible=0;recursiveResize=0;expand=0;" vertex="1" parent="_UacAsJ8LhsHdzwPXFp5-212">
          <mxGeometry x="512" width="118" height="120" as="geometry">
            <mxRectangle width="118" height="120" as="alternateBounds" />
          </mxGeometry>
        </mxCell>
        <mxCell id="_UacAsJ8LhsHdzwPXFp5-218" value="" style="swimlane;swimlaneHead=0;swimlaneBody=0;fontStyle=0;connectable=0;strokeColor=inherit;fillColor=none;startSize=0;collapsible=0;recursiveResize=0;expand=0;" vertex="1" parent="_UacAsJ8LhsHdzwPXFp5-212">
          <mxGeometry x="630" width="118" height="120" as="geometry">
            <mxRectangle width="118" height="120" as="alternateBounds" />
          </mxGeometry>
        </mxCell>
        <mxCell id="_UacAsJ8LhsHdzwPXFp5-219" value="" style="swimlane;swimlaneHead=0;swimlaneBody=0;fontStyle=0;connectable=0;strokeColor=inherit;fillColor=none;startSize=0;collapsible=0;recursiveResize=0;expand=0;" vertex="1" parent="_UacAsJ8LhsHdzwPXFp5-212">
          <mxGeometry x="748" width="118" height="120" as="geometry">
            <mxRectangle width="118" height="120" as="alternateBounds" />
          </mxGeometry>
        </mxCell>
        <mxCell id="_UacAsJ8LhsHdzwPXFp5-220" value="" style="swimlane;swimlaneHead=0;swimlaneBody=0;fontStyle=0;connectable=0;strokeColor=inherit;fillColor=none;startSize=0;collapsible=0;recursiveResize=0;expand=0;" vertex="1" parent="_UacAsJ8LhsHdzwPXFp5-212">
          <mxGeometry x="866" width="118" height="120" as="geometry">
            <mxRectangle width="118" height="120" as="alternateBounds" />
          </mxGeometry>
        </mxCell>
        <mxCell id="_UacAsJ8LhsHdzwPXFp5-221" value="" style="swimlane;swimlaneHead=0;swimlaneBody=0;fontStyle=0;connectable=0;strokeColor=inherit;fillColor=none;startSize=0;collapsible=0;recursiveResize=0;expand=0;" vertex="1" parent="_UacAsJ8LhsHdzwPXFp5-212">
          <mxGeometry x="984" width="118" height="120" as="geometry">
            <mxRectangle width="118" height="120" as="alternateBounds" />
          </mxGeometry>
        </mxCell>
        <mxCell id="_UacAsJ8LhsHdzwPXFp5-222" value="" style="swimlane;swimlaneHead=0;swimlaneBody=0;fontStyle=0;connectable=0;strokeColor=inherit;fillColor=none;startSize=0;collapsible=0;recursiveResize=0;expand=0;" vertex="1" parent="_UacAsJ8LhsHdzwPXFp5-212">
          <mxGeometry x="1102" width="118" height="120" as="geometry">
            <mxRectangle width="118" height="120" as="alternateBounds" />
          </mxGeometry>
        </mxCell>
        <mxCell id="_UacAsJ8LhsHdzwPXFp5-223" value="" style="swimlane;swimlaneHead=0;swimlaneBody=0;fontStyle=0;connectable=0;strokeColor=inherit;fillColor=none;startSize=0;collapsible=0;recursiveResize=0;expand=0;" vertex="1" parent="_UacAsJ8LhsHdzwPXFp5-212">
          <mxGeometry x="1220" width="118" height="120" as="geometry">
            <mxRectangle width="118" height="120" as="alternateBounds" />
          </mxGeometry>
        </mxCell>
        <mxCell id="_UacAsJ8LhsHdzwPXFp5-224" value="" style="swimlane;swimlaneHead=0;swimlaneBody=0;fontStyle=0;connectable=0;strokeColor=inherit;fillColor=none;startSize=0;collapsible=0;recursiveResize=0;expand=0;" vertex="1" parent="_UacAsJ8LhsHdzwPXFp5-212">
          <mxGeometry x="1338" width="118" height="120" as="geometry">
            <mxRectangle width="118" height="120" as="alternateBounds" />
          </mxGeometry>
        </mxCell>
        <mxCell id="_UacAsJ8LhsHdzwPXFp5-225" value="" style="swimlane;swimlaneHead=0;swimlaneBody=0;fontStyle=0;connectable=0;strokeColor=inherit;fillColor=none;startSize=0;collapsible=0;recursiveResize=0;expand=0;" vertex="1" parent="_UacAsJ8LhsHdzwPXFp5-212">
          <mxGeometry x="1456" width="118" height="120" as="geometry">
            <mxRectangle width="118" height="120" as="alternateBounds" />
          </mxGeometry>
        </mxCell>
        <mxCell id="_UacAsJ8LhsHdzwPXFp5-226" value="" style="swimlane;swimlaneHead=0;swimlaneBody=0;fontStyle=0;connectable=0;strokeColor=inherit;fillColor=none;startSize=0;collapsible=0;recursiveResize=0;expand=0;" vertex="1" parent="_UacAsJ8LhsHdzwPXFp5-212">
          <mxGeometry x="1574" width="118" height="120" as="geometry">
            <mxRectangle width="118" height="120" as="alternateBounds" />
          </mxGeometry>
        </mxCell>
        <mxCell id="_UacAsJ8LhsHdzwPXFp5-227" value="" style="swimlane;swimlaneHead=0;swimlaneBody=0;fontStyle=0;connectable=0;strokeColor=inherit;fillColor=none;startSize=0;collapsible=0;recursiveResize=0;expand=0;" vertex="1" parent="_UacAsJ8LhsHdzwPXFp5-212">
          <mxGeometry x="1692" width="118" height="120" as="geometry">
            <mxRectangle width="118" height="120" as="alternateBounds" />
          </mxGeometry>
        </mxCell>
        <mxCell id="_UacAsJ8LhsHdzwPXFp5-228" value="" style="swimlane;swimlaneHead=0;swimlaneBody=0;fontStyle=0;connectable=0;strokeColor=inherit;fillColor=none;startSize=0;collapsible=0;recursiveResize=0;expand=0;" vertex="1" parent="_UacAsJ8LhsHdzwPXFp5-212">
          <mxGeometry x="1810" width="118" height="120" as="geometry">
            <mxRectangle width="118" height="120" as="alternateBounds" />
          </mxGeometry>
        </mxCell>
        <mxCell id="_UacAsJ8LhsHdzwPXFp5-229" value="" style="swimlane;swimlaneHead=0;swimlaneBody=0;fontStyle=0;connectable=0;strokeColor=inherit;fillColor=none;startSize=0;collapsible=0;recursiveResize=0;expand=0;" vertex="1" parent="_UacAsJ8LhsHdzwPXFp5-212">
          <mxGeometry x="1928" width="118" height="120" as="geometry">
            <mxRectangle width="118" height="120" as="alternateBounds" />
          </mxGeometry>
        </mxCell>
        <mxCell id="_UacAsJ8LhsHdzwPXFp5-230" value="" style="swimlane;swimlaneHead=0;swimlaneBody=0;fontStyle=0;connectable=0;strokeColor=inherit;fillColor=none;startSize=0;collapsible=0;recursiveResize=0;expand=0;" vertex="1" parent="_UacAsJ8LhsHdzwPXFp5-212">
          <mxGeometry x="2046" width="118" height="120" as="geometry">
            <mxRectangle width="118" height="120" as="alternateBounds" />
          </mxGeometry>
        </mxCell>
        <mxCell id="_UacAsJ8LhsHdzwPXFp5-231" value="" style="swimlane;swimlaneHead=0;swimlaneBody=0;fontStyle=0;connectable=0;strokeColor=inherit;fillColor=none;startSize=0;collapsible=0;recursiveResize=0;expand=0;" vertex="1" parent="_UacAsJ8LhsHdzwPXFp5-212">
          <mxGeometry x="2164" width="118" height="120" as="geometry">
            <mxRectangle width="118" height="120" as="alternateBounds" />
          </mxGeometry>
        </mxCell>
        <mxCell id="_UacAsJ8LhsHdzwPXFp5-232" value="" style="swimlane;swimlaneHead=0;swimlaneBody=0;fontStyle=0;connectable=0;strokeColor=inherit;fillColor=none;startSize=0;collapsible=0;recursiveResize=0;expand=0;" vertex="1" parent="_UacAsJ8LhsHdzwPXFp5-212">
          <mxGeometry x="2282" width="118" height="120" as="geometry">
            <mxRectangle width="118" height="120" as="alternateBounds" />
          </mxGeometry>
        </mxCell>
        <mxCell id="_UacAsJ8LhsHdzwPXFp5-233" value="" style="shape=tableRow;horizontal=0;swimlaneHead=0;swimlaneBody=0;top=0;left=0;strokeColor=inherit;bottom=0;right=0;dropTarget=0;fontStyle=0;fillColor=none;points=[[0,0.5],[1,0.5]];portConstraint=eastwest;startSize=40;collapsible=0;recursiveResize=0;expand=0;" vertex="1" parent="_UacAsJ8LhsHdzwPXFp5-85">
          <mxGeometry y="840" width="2400" height="120" as="geometry" />
        </mxCell>
        <mxCell id="_UacAsJ8LhsHdzwPXFp5-234" value="" style="swimlane;swimlaneHead=0;swimlaneBody=0;fontStyle=0;connectable=0;strokeColor=inherit;fillColor=none;startSize=0;collapsible=0;recursiveResize=0;expand=0;" vertex="1" parent="_UacAsJ8LhsHdzwPXFp5-233">
          <mxGeometry x="40" width="118" height="120" as="geometry">
            <mxRectangle width="118" height="120" as="alternateBounds" />
          </mxGeometry>
        </mxCell>
        <mxCell id="_UacAsJ8LhsHdzwPXFp5-235" value="" style="swimlane;swimlaneHead=0;swimlaneBody=0;fontStyle=0;connectable=0;strokeColor=inherit;fillColor=none;startSize=0;collapsible=0;recursiveResize=0;expand=0;" vertex="1" parent="_UacAsJ8LhsHdzwPXFp5-233">
          <mxGeometry x="158" width="118" height="120" as="geometry">
            <mxRectangle width="118" height="120" as="alternateBounds" />
          </mxGeometry>
        </mxCell>
        <mxCell id="_UacAsJ8LhsHdzwPXFp5-236" value="" style="swimlane;swimlaneHead=0;swimlaneBody=0;fontStyle=0;connectable=0;strokeColor=inherit;fillColor=none;startSize=0;collapsible=0;recursiveResize=0;expand=0;" vertex="1" parent="_UacAsJ8LhsHdzwPXFp5-233">
          <mxGeometry x="276" width="118" height="120" as="geometry">
            <mxRectangle width="118" height="120" as="alternateBounds" />
          </mxGeometry>
        </mxCell>
        <mxCell id="_UacAsJ8LhsHdzwPXFp5-237" value="" style="swimlane;swimlaneHead=0;swimlaneBody=0;fontStyle=0;connectable=0;strokeColor=inherit;fillColor=none;startSize=0;collapsible=0;recursiveResize=0;expand=0;" vertex="1" parent="_UacAsJ8LhsHdzwPXFp5-233">
          <mxGeometry x="394" width="118" height="120" as="geometry">
            <mxRectangle width="118" height="120" as="alternateBounds" />
          </mxGeometry>
        </mxCell>
        <mxCell id="_UacAsJ8LhsHdzwPXFp5-238" value="" style="swimlane;swimlaneHead=0;swimlaneBody=0;fontStyle=0;connectable=0;strokeColor=inherit;fillColor=none;startSize=0;collapsible=0;recursiveResize=0;expand=0;" vertex="1" parent="_UacAsJ8LhsHdzwPXFp5-233">
          <mxGeometry x="512" width="118" height="120" as="geometry">
            <mxRectangle width="118" height="120" as="alternateBounds" />
          </mxGeometry>
        </mxCell>
        <mxCell id="_UacAsJ8LhsHdzwPXFp5-239" value="" style="swimlane;swimlaneHead=0;swimlaneBody=0;fontStyle=0;connectable=0;strokeColor=inherit;fillColor=none;startSize=0;collapsible=0;recursiveResize=0;expand=0;" vertex="1" parent="_UacAsJ8LhsHdzwPXFp5-233">
          <mxGeometry x="630" width="118" height="120" as="geometry">
            <mxRectangle width="118" height="120" as="alternateBounds" />
          </mxGeometry>
        </mxCell>
        <mxCell id="_UacAsJ8LhsHdzwPXFp5-240" value="" style="swimlane;swimlaneHead=0;swimlaneBody=0;fontStyle=0;connectable=0;strokeColor=inherit;fillColor=none;startSize=0;collapsible=0;recursiveResize=0;expand=0;" vertex="1" parent="_UacAsJ8LhsHdzwPXFp5-233">
          <mxGeometry x="748" width="118" height="120" as="geometry">
            <mxRectangle width="118" height="120" as="alternateBounds" />
          </mxGeometry>
        </mxCell>
        <mxCell id="_UacAsJ8LhsHdzwPXFp5-241" value="" style="swimlane;swimlaneHead=0;swimlaneBody=0;fontStyle=0;connectable=0;strokeColor=inherit;fillColor=none;startSize=0;collapsible=0;recursiveResize=0;expand=0;" vertex="1" parent="_UacAsJ8LhsHdzwPXFp5-233">
          <mxGeometry x="866" width="118" height="120" as="geometry">
            <mxRectangle width="118" height="120" as="alternateBounds" />
          </mxGeometry>
        </mxCell>
        <mxCell id="_UacAsJ8LhsHdzwPXFp5-242" value="" style="swimlane;swimlaneHead=0;swimlaneBody=0;fontStyle=0;connectable=0;strokeColor=inherit;fillColor=none;startSize=0;collapsible=0;recursiveResize=0;expand=0;" vertex="1" parent="_UacAsJ8LhsHdzwPXFp5-233">
          <mxGeometry x="984" width="118" height="120" as="geometry">
            <mxRectangle width="118" height="120" as="alternateBounds" />
          </mxGeometry>
        </mxCell>
        <mxCell id="_UacAsJ8LhsHdzwPXFp5-243" value="" style="swimlane;swimlaneHead=0;swimlaneBody=0;fontStyle=0;connectable=0;strokeColor=inherit;fillColor=none;startSize=0;collapsible=0;recursiveResize=0;expand=0;" vertex="1" parent="_UacAsJ8LhsHdzwPXFp5-233">
          <mxGeometry x="1102" width="118" height="120" as="geometry">
            <mxRectangle width="118" height="120" as="alternateBounds" />
          </mxGeometry>
        </mxCell>
        <mxCell id="_UacAsJ8LhsHdzwPXFp5-244" value="" style="swimlane;swimlaneHead=0;swimlaneBody=0;fontStyle=0;connectable=0;strokeColor=inherit;fillColor=none;startSize=0;collapsible=0;recursiveResize=0;expand=0;" vertex="1" parent="_UacAsJ8LhsHdzwPXFp5-233">
          <mxGeometry x="1220" width="118" height="120" as="geometry">
            <mxRectangle width="118" height="120" as="alternateBounds" />
          </mxGeometry>
        </mxCell>
        <mxCell id="_UacAsJ8LhsHdzwPXFp5-245" value="" style="swimlane;swimlaneHead=0;swimlaneBody=0;fontStyle=0;connectable=0;strokeColor=inherit;fillColor=none;startSize=0;collapsible=0;recursiveResize=0;expand=0;" vertex="1" parent="_UacAsJ8LhsHdzwPXFp5-233">
          <mxGeometry x="1338" width="118" height="120" as="geometry">
            <mxRectangle width="118" height="120" as="alternateBounds" />
          </mxGeometry>
        </mxCell>
        <mxCell id="_UacAsJ8LhsHdzwPXFp5-246" value="" style="swimlane;swimlaneHead=0;swimlaneBody=0;fontStyle=0;connectable=0;strokeColor=inherit;fillColor=none;startSize=0;collapsible=0;recursiveResize=0;expand=0;" vertex="1" parent="_UacAsJ8LhsHdzwPXFp5-233">
          <mxGeometry x="1456" width="118" height="120" as="geometry">
            <mxRectangle width="118" height="120" as="alternateBounds" />
          </mxGeometry>
        </mxCell>
        <mxCell id="_UacAsJ8LhsHdzwPXFp5-247" value="" style="swimlane;swimlaneHead=0;swimlaneBody=0;fontStyle=0;connectable=0;strokeColor=inherit;fillColor=none;startSize=0;collapsible=0;recursiveResize=0;expand=0;" vertex="1" parent="_UacAsJ8LhsHdzwPXFp5-233">
          <mxGeometry x="1574" width="118" height="120" as="geometry">
            <mxRectangle width="118" height="120" as="alternateBounds" />
          </mxGeometry>
        </mxCell>
        <mxCell id="_UacAsJ8LhsHdzwPXFp5-248" value="" style="swimlane;swimlaneHead=0;swimlaneBody=0;fontStyle=0;connectable=0;strokeColor=inherit;fillColor=none;startSize=0;collapsible=0;recursiveResize=0;expand=0;" vertex="1" parent="_UacAsJ8LhsHdzwPXFp5-233">
          <mxGeometry x="1692" width="118" height="120" as="geometry">
            <mxRectangle width="118" height="120" as="alternateBounds" />
          </mxGeometry>
        </mxCell>
        <mxCell id="_UacAsJ8LhsHdzwPXFp5-249" value="" style="swimlane;swimlaneHead=0;swimlaneBody=0;fontStyle=0;connectable=0;strokeColor=inherit;fillColor=none;startSize=0;collapsible=0;recursiveResize=0;expand=0;" vertex="1" parent="_UacAsJ8LhsHdzwPXFp5-233">
          <mxGeometry x="1810" width="118" height="120" as="geometry">
            <mxRectangle width="118" height="120" as="alternateBounds" />
          </mxGeometry>
        </mxCell>
        <mxCell id="_UacAsJ8LhsHdzwPXFp5-250" value="" style="swimlane;swimlaneHead=0;swimlaneBody=0;fontStyle=0;connectable=0;strokeColor=inherit;fillColor=none;startSize=0;collapsible=0;recursiveResize=0;expand=0;" vertex="1" parent="_UacAsJ8LhsHdzwPXFp5-233">
          <mxGeometry x="1928" width="118" height="120" as="geometry">
            <mxRectangle width="118" height="120" as="alternateBounds" />
          </mxGeometry>
        </mxCell>
        <mxCell id="_UacAsJ8LhsHdzwPXFp5-251" value="" style="swimlane;swimlaneHead=0;swimlaneBody=0;fontStyle=0;connectable=0;strokeColor=inherit;fillColor=none;startSize=0;collapsible=0;recursiveResize=0;expand=0;" vertex="1" parent="_UacAsJ8LhsHdzwPXFp5-233">
          <mxGeometry x="2046" width="118" height="120" as="geometry">
            <mxRectangle width="118" height="120" as="alternateBounds" />
          </mxGeometry>
        </mxCell>
        <mxCell id="_UacAsJ8LhsHdzwPXFp5-252" value="" style="swimlane;swimlaneHead=0;swimlaneBody=0;fontStyle=0;connectable=0;strokeColor=inherit;fillColor=none;startSize=0;collapsible=0;recursiveResize=0;expand=0;" vertex="1" parent="_UacAsJ8LhsHdzwPXFp5-233">
          <mxGeometry x="2164" width="118" height="120" as="geometry">
            <mxRectangle width="118" height="120" as="alternateBounds" />
          </mxGeometry>
        </mxCell>
        <mxCell id="_UacAsJ8LhsHdzwPXFp5-253" value="" style="swimlane;swimlaneHead=0;swimlaneBody=0;fontStyle=0;connectable=0;strokeColor=inherit;fillColor=none;startSize=0;collapsible=0;recursiveResize=0;expand=0;" vertex="1" parent="_UacAsJ8LhsHdzwPXFp5-233">
          <mxGeometry x="2282" width="118" height="120" as="geometry">
            <mxRectangle width="118" height="120" as="alternateBounds" />
          </mxGeometry>
        </mxCell>
        <mxCell id="_UacAsJ8LhsHdzwPXFp5-254" value="" style="shape=tableRow;horizontal=0;swimlaneHead=0;swimlaneBody=0;top=0;left=0;strokeColor=inherit;bottom=0;right=0;dropTarget=0;fontStyle=0;fillColor=none;points=[[0,0.5],[1,0.5]];portConstraint=eastwest;startSize=40;collapsible=0;recursiveResize=0;expand=0;" vertex="1" parent="_UacAsJ8LhsHdzwPXFp5-85">
          <mxGeometry y="960" width="2400" height="120" as="geometry" />
        </mxCell>
        <mxCell id="_UacAsJ8LhsHdzwPXFp5-255" value="" style="swimlane;swimlaneHead=0;swimlaneBody=0;fontStyle=0;connectable=0;strokeColor=inherit;fillColor=none;startSize=0;collapsible=0;recursiveResize=0;expand=0;" vertex="1" parent="_UacAsJ8LhsHdzwPXFp5-254">
          <mxGeometry x="40" width="118" height="120" as="geometry">
            <mxRectangle width="118" height="120" as="alternateBounds" />
          </mxGeometry>
        </mxCell>
        <mxCell id="_UacAsJ8LhsHdzwPXFp5-256" value="" style="swimlane;swimlaneHead=0;swimlaneBody=0;fontStyle=0;connectable=0;strokeColor=inherit;fillColor=none;startSize=0;collapsible=0;recursiveResize=0;expand=0;" vertex="1" parent="_UacAsJ8LhsHdzwPXFp5-254">
          <mxGeometry x="158" width="118" height="120" as="geometry">
            <mxRectangle width="118" height="120" as="alternateBounds" />
          </mxGeometry>
        </mxCell>
        <mxCell id="_UacAsJ8LhsHdzwPXFp5-257" value="" style="swimlane;swimlaneHead=0;swimlaneBody=0;fontStyle=0;connectable=0;strokeColor=inherit;fillColor=none;startSize=0;collapsible=0;recursiveResize=0;expand=0;" vertex="1" parent="_UacAsJ8LhsHdzwPXFp5-254">
          <mxGeometry x="276" width="118" height="120" as="geometry">
            <mxRectangle width="118" height="120" as="alternateBounds" />
          </mxGeometry>
        </mxCell>
        <mxCell id="_UacAsJ8LhsHdzwPXFp5-258" value="" style="swimlane;swimlaneHead=0;swimlaneBody=0;fontStyle=0;connectable=0;strokeColor=inherit;fillColor=none;startSize=0;collapsible=0;recursiveResize=0;expand=0;" vertex="1" parent="_UacAsJ8LhsHdzwPXFp5-254">
          <mxGeometry x="394" width="118" height="120" as="geometry">
            <mxRectangle width="118" height="120" as="alternateBounds" />
          </mxGeometry>
        </mxCell>
        <mxCell id="_UacAsJ8LhsHdzwPXFp5-259" value="" style="swimlane;swimlaneHead=0;swimlaneBody=0;fontStyle=0;connectable=0;strokeColor=inherit;fillColor=none;startSize=0;collapsible=0;recursiveResize=0;expand=0;" vertex="1" parent="_UacAsJ8LhsHdzwPXFp5-254">
          <mxGeometry x="512" width="118" height="120" as="geometry">
            <mxRectangle width="118" height="120" as="alternateBounds" />
          </mxGeometry>
        </mxCell>
        <mxCell id="_UacAsJ8LhsHdzwPXFp5-260" value="" style="swimlane;swimlaneHead=0;swimlaneBody=0;fontStyle=0;connectable=0;strokeColor=inherit;fillColor=none;startSize=0;collapsible=0;recursiveResize=0;expand=0;" vertex="1" parent="_UacAsJ8LhsHdzwPXFp5-254">
          <mxGeometry x="630" width="118" height="120" as="geometry">
            <mxRectangle width="118" height="120" as="alternateBounds" />
          </mxGeometry>
        </mxCell>
        <mxCell id="_UacAsJ8LhsHdzwPXFp5-261" value="" style="swimlane;swimlaneHead=0;swimlaneBody=0;fontStyle=0;connectable=0;strokeColor=inherit;fillColor=none;startSize=0;collapsible=0;recursiveResize=0;expand=0;" vertex="1" parent="_UacAsJ8LhsHdzwPXFp5-254">
          <mxGeometry x="748" width="118" height="120" as="geometry">
            <mxRectangle width="118" height="120" as="alternateBounds" />
          </mxGeometry>
        </mxCell>
        <mxCell id="_UacAsJ8LhsHdzwPXFp5-262" value="" style="swimlane;swimlaneHead=0;swimlaneBody=0;fontStyle=0;connectable=0;strokeColor=inherit;fillColor=none;startSize=0;collapsible=0;recursiveResize=0;expand=0;" vertex="1" parent="_UacAsJ8LhsHdzwPXFp5-254">
          <mxGeometry x="866" width="118" height="120" as="geometry">
            <mxRectangle width="118" height="120" as="alternateBounds" />
          </mxGeometry>
        </mxCell>
        <mxCell id="_UacAsJ8LhsHdzwPXFp5-263" value="" style="swimlane;swimlaneHead=0;swimlaneBody=0;fontStyle=0;connectable=0;strokeColor=inherit;fillColor=none;startSize=0;collapsible=0;recursiveResize=0;expand=0;" vertex="1" parent="_UacAsJ8LhsHdzwPXFp5-254">
          <mxGeometry x="984" width="118" height="120" as="geometry">
            <mxRectangle width="118" height="120" as="alternateBounds" />
          </mxGeometry>
        </mxCell>
        <mxCell id="_UacAsJ8LhsHdzwPXFp5-264" value="" style="swimlane;swimlaneHead=0;swimlaneBody=0;fontStyle=0;connectable=0;strokeColor=inherit;fillColor=none;startSize=0;collapsible=0;recursiveResize=0;expand=0;" vertex="1" parent="_UacAsJ8LhsHdzwPXFp5-254">
          <mxGeometry x="1102" width="118" height="120" as="geometry">
            <mxRectangle width="118" height="120" as="alternateBounds" />
          </mxGeometry>
        </mxCell>
        <mxCell id="_UacAsJ8LhsHdzwPXFp5-265" value="" style="swimlane;swimlaneHead=0;swimlaneBody=0;fontStyle=0;connectable=0;strokeColor=inherit;fillColor=none;startSize=0;collapsible=0;recursiveResize=0;expand=0;" vertex="1" parent="_UacAsJ8LhsHdzwPXFp5-254">
          <mxGeometry x="1220" width="118" height="120" as="geometry">
            <mxRectangle width="118" height="120" as="alternateBounds" />
          </mxGeometry>
        </mxCell>
        <mxCell id="_UacAsJ8LhsHdzwPXFp5-266" value="" style="swimlane;swimlaneHead=0;swimlaneBody=0;fontStyle=0;connectable=0;strokeColor=inherit;fillColor=none;startSize=0;collapsible=0;recursiveResize=0;expand=0;" vertex="1" parent="_UacAsJ8LhsHdzwPXFp5-254">
          <mxGeometry x="1338" width="118" height="120" as="geometry">
            <mxRectangle width="118" height="120" as="alternateBounds" />
          </mxGeometry>
        </mxCell>
        <mxCell id="_UacAsJ8LhsHdzwPXFp5-267" value="" style="swimlane;swimlaneHead=0;swimlaneBody=0;fontStyle=0;connectable=0;strokeColor=inherit;fillColor=none;startSize=0;collapsible=0;recursiveResize=0;expand=0;" vertex="1" parent="_UacAsJ8LhsHdzwPXFp5-254">
          <mxGeometry x="1456" width="118" height="120" as="geometry">
            <mxRectangle width="118" height="120" as="alternateBounds" />
          </mxGeometry>
        </mxCell>
        <mxCell id="_UacAsJ8LhsHdzwPXFp5-268" value="" style="swimlane;swimlaneHead=0;swimlaneBody=0;fontStyle=0;connectable=0;strokeColor=inherit;fillColor=none;startSize=0;collapsible=0;recursiveResize=0;expand=0;" vertex="1" parent="_UacAsJ8LhsHdzwPXFp5-254">
          <mxGeometry x="1574" width="118" height="120" as="geometry">
            <mxRectangle width="118" height="120" as="alternateBounds" />
          </mxGeometry>
        </mxCell>
        <mxCell id="_UacAsJ8LhsHdzwPXFp5-269" value="" style="swimlane;swimlaneHead=0;swimlaneBody=0;fontStyle=0;connectable=0;strokeColor=inherit;fillColor=none;startSize=0;collapsible=0;recursiveResize=0;expand=0;" vertex="1" parent="_UacAsJ8LhsHdzwPXFp5-254">
          <mxGeometry x="1692" width="118" height="120" as="geometry">
            <mxRectangle width="118" height="120" as="alternateBounds" />
          </mxGeometry>
        </mxCell>
        <mxCell id="_UacAsJ8LhsHdzwPXFp5-270" value="" style="swimlane;swimlaneHead=0;swimlaneBody=0;fontStyle=0;connectable=0;strokeColor=inherit;fillColor=none;startSize=0;collapsible=0;recursiveResize=0;expand=0;" vertex="1" parent="_UacAsJ8LhsHdzwPXFp5-254">
          <mxGeometry x="1810" width="118" height="120" as="geometry">
            <mxRectangle width="118" height="120" as="alternateBounds" />
          </mxGeometry>
        </mxCell>
        <mxCell id="_UacAsJ8LhsHdzwPXFp5-271" value="" style="swimlane;swimlaneHead=0;swimlaneBody=0;fontStyle=0;connectable=0;strokeColor=inherit;fillColor=none;startSize=0;collapsible=0;recursiveResize=0;expand=0;" vertex="1" parent="_UacAsJ8LhsHdzwPXFp5-254">
          <mxGeometry x="1928" width="118" height="120" as="geometry">
            <mxRectangle width="118" height="120" as="alternateBounds" />
          </mxGeometry>
        </mxCell>
        <mxCell id="_UacAsJ8LhsHdzwPXFp5-272" value="" style="swimlane;swimlaneHead=0;swimlaneBody=0;fontStyle=0;connectable=0;strokeColor=inherit;fillColor=none;startSize=0;collapsible=0;recursiveResize=0;expand=0;" vertex="1" parent="_UacAsJ8LhsHdzwPXFp5-254">
          <mxGeometry x="2046" width="118" height="120" as="geometry">
            <mxRectangle width="118" height="120" as="alternateBounds" />
          </mxGeometry>
        </mxCell>
        <mxCell id="_UacAsJ8LhsHdzwPXFp5-273" value="" style="swimlane;swimlaneHead=0;swimlaneBody=0;fontStyle=0;connectable=0;strokeColor=inherit;fillColor=none;startSize=0;collapsible=0;recursiveResize=0;expand=0;" vertex="1" parent="_UacAsJ8LhsHdzwPXFp5-254">
          <mxGeometry x="2164" width="118" height="120" as="geometry">
            <mxRectangle width="118" height="120" as="alternateBounds" />
          </mxGeometry>
        </mxCell>
        <mxCell id="_UacAsJ8LhsHdzwPXFp5-274" value="" style="swimlane;swimlaneHead=0;swimlaneBody=0;fontStyle=0;connectable=0;strokeColor=inherit;fillColor=none;startSize=0;collapsible=0;recursiveResize=0;expand=0;" vertex="1" parent="_UacAsJ8LhsHdzwPXFp5-254">
          <mxGeometry x="2282" width="118" height="120" as="geometry">
            <mxRectangle width="118" height="120" as="alternateBounds" />
          </mxGeometry>
        </mxCell>
        <mxCell id="_UacAsJ8LhsHdzwPXFp5-275" value="" style="shape=tableRow;horizontal=0;swimlaneHead=0;swimlaneBody=0;top=0;left=0;strokeColor=inherit;bottom=0;right=0;dropTarget=0;fontStyle=0;fillColor=none;points=[[0,0.5],[1,0.5]];portConstraint=eastwest;startSize=40;collapsible=0;recursiveResize=0;expand=0;" vertex="1" parent="_UacAsJ8LhsHdzwPXFp5-85">
          <mxGeometry y="1080" width="2400" height="120" as="geometry" />
        </mxCell>
        <mxCell id="_UacAsJ8LhsHdzwPXFp5-276" value="" style="swimlane;swimlaneHead=0;swimlaneBody=0;fontStyle=0;connectable=0;strokeColor=inherit;fillColor=none;startSize=0;collapsible=0;recursiveResize=0;expand=0;" vertex="1" parent="_UacAsJ8LhsHdzwPXFp5-275">
          <mxGeometry x="40" width="118" height="120" as="geometry">
            <mxRectangle width="118" height="120" as="alternateBounds" />
          </mxGeometry>
        </mxCell>
        <mxCell id="_UacAsJ8LhsHdzwPXFp5-277" value="" style="swimlane;swimlaneHead=0;swimlaneBody=0;fontStyle=0;connectable=0;strokeColor=inherit;fillColor=none;startSize=0;collapsible=0;recursiveResize=0;expand=0;" vertex="1" parent="_UacAsJ8LhsHdzwPXFp5-275">
          <mxGeometry x="158" width="118" height="120" as="geometry">
            <mxRectangle width="118" height="120" as="alternateBounds" />
          </mxGeometry>
        </mxCell>
        <mxCell id="_UacAsJ8LhsHdzwPXFp5-278" value="" style="swimlane;swimlaneHead=0;swimlaneBody=0;fontStyle=0;connectable=0;strokeColor=inherit;fillColor=none;startSize=0;collapsible=0;recursiveResize=0;expand=0;" vertex="1" parent="_UacAsJ8LhsHdzwPXFp5-275">
          <mxGeometry x="276" width="118" height="120" as="geometry">
            <mxRectangle width="118" height="120" as="alternateBounds" />
          </mxGeometry>
        </mxCell>
        <mxCell id="_UacAsJ8LhsHdzwPXFp5-279" value="" style="swimlane;swimlaneHead=0;swimlaneBody=0;fontStyle=0;connectable=0;strokeColor=inherit;fillColor=none;startSize=0;collapsible=0;recursiveResize=0;expand=0;" vertex="1" parent="_UacAsJ8LhsHdzwPXFp5-275">
          <mxGeometry x="394" width="118" height="120" as="geometry">
            <mxRectangle width="118" height="120" as="alternateBounds" />
          </mxGeometry>
        </mxCell>
        <mxCell id="_UacAsJ8LhsHdzwPXFp5-280" value="" style="swimlane;swimlaneHead=0;swimlaneBody=0;fontStyle=0;connectable=0;strokeColor=inherit;fillColor=none;startSize=0;collapsible=0;recursiveResize=0;expand=0;" vertex="1" parent="_UacAsJ8LhsHdzwPXFp5-275">
          <mxGeometry x="512" width="118" height="120" as="geometry">
            <mxRectangle width="118" height="120" as="alternateBounds" />
          </mxGeometry>
        </mxCell>
        <mxCell id="_UacAsJ8LhsHdzwPXFp5-281" value="" style="swimlane;swimlaneHead=0;swimlaneBody=0;fontStyle=0;connectable=0;strokeColor=inherit;fillColor=none;startSize=0;collapsible=0;recursiveResize=0;expand=0;" vertex="1" parent="_UacAsJ8LhsHdzwPXFp5-275">
          <mxGeometry x="630" width="118" height="120" as="geometry">
            <mxRectangle width="118" height="120" as="alternateBounds" />
          </mxGeometry>
        </mxCell>
        <mxCell id="_UacAsJ8LhsHdzwPXFp5-282" value="" style="swimlane;swimlaneHead=0;swimlaneBody=0;fontStyle=0;connectable=0;strokeColor=inherit;fillColor=none;startSize=0;collapsible=0;recursiveResize=0;expand=0;" vertex="1" parent="_UacAsJ8LhsHdzwPXFp5-275">
          <mxGeometry x="748" width="118" height="120" as="geometry">
            <mxRectangle width="118" height="120" as="alternateBounds" />
          </mxGeometry>
        </mxCell>
        <mxCell id="_UacAsJ8LhsHdzwPXFp5-283" value="" style="swimlane;swimlaneHead=0;swimlaneBody=0;fontStyle=0;connectable=0;strokeColor=inherit;fillColor=none;startSize=0;collapsible=0;recursiveResize=0;expand=0;" vertex="1" parent="_UacAsJ8LhsHdzwPXFp5-275">
          <mxGeometry x="866" width="118" height="120" as="geometry">
            <mxRectangle width="118" height="120" as="alternateBounds" />
          </mxGeometry>
        </mxCell>
        <mxCell id="_UacAsJ8LhsHdzwPXFp5-284" value="" style="swimlane;swimlaneHead=0;swimlaneBody=0;fontStyle=0;connectable=0;strokeColor=inherit;fillColor=none;startSize=0;collapsible=0;recursiveResize=0;expand=0;" vertex="1" parent="_UacAsJ8LhsHdzwPXFp5-275">
          <mxGeometry x="984" width="118" height="120" as="geometry">
            <mxRectangle width="118" height="120" as="alternateBounds" />
          </mxGeometry>
        </mxCell>
        <mxCell id="_UacAsJ8LhsHdzwPXFp5-285" value="" style="swimlane;swimlaneHead=0;swimlaneBody=0;fontStyle=0;connectable=0;strokeColor=inherit;fillColor=none;startSize=0;collapsible=0;recursiveResize=0;expand=0;" vertex="1" parent="_UacAsJ8LhsHdzwPXFp5-275">
          <mxGeometry x="1102" width="118" height="120" as="geometry">
            <mxRectangle width="118" height="120" as="alternateBounds" />
          </mxGeometry>
        </mxCell>
        <mxCell id="_UacAsJ8LhsHdzwPXFp5-286" value="" style="swimlane;swimlaneHead=0;swimlaneBody=0;fontStyle=0;connectable=0;strokeColor=inherit;fillColor=none;startSize=0;collapsible=0;recursiveResize=0;expand=0;" vertex="1" parent="_UacAsJ8LhsHdzwPXFp5-275">
          <mxGeometry x="1220" width="118" height="120" as="geometry">
            <mxRectangle width="118" height="120" as="alternateBounds" />
          </mxGeometry>
        </mxCell>
        <mxCell id="_UacAsJ8LhsHdzwPXFp5-287" value="" style="swimlane;swimlaneHead=0;swimlaneBody=0;fontStyle=0;connectable=0;strokeColor=inherit;fillColor=none;startSize=0;collapsible=0;recursiveResize=0;expand=0;" vertex="1" parent="_UacAsJ8LhsHdzwPXFp5-275">
          <mxGeometry x="1338" width="118" height="120" as="geometry">
            <mxRectangle width="118" height="120" as="alternateBounds" />
          </mxGeometry>
        </mxCell>
        <mxCell id="_UacAsJ8LhsHdzwPXFp5-288" value="" style="swimlane;swimlaneHead=0;swimlaneBody=0;fontStyle=0;connectable=0;strokeColor=inherit;fillColor=none;startSize=0;collapsible=0;recursiveResize=0;expand=0;" vertex="1" parent="_UacAsJ8LhsHdzwPXFp5-275">
          <mxGeometry x="1456" width="118" height="120" as="geometry">
            <mxRectangle width="118" height="120" as="alternateBounds" />
          </mxGeometry>
        </mxCell>
        <mxCell id="_UacAsJ8LhsHdzwPXFp5-289" value="" style="swimlane;swimlaneHead=0;swimlaneBody=0;fontStyle=0;connectable=0;strokeColor=inherit;fillColor=none;startSize=0;collapsible=0;recursiveResize=0;expand=0;" vertex="1" parent="_UacAsJ8LhsHdzwPXFp5-275">
          <mxGeometry x="1574" width="118" height="120" as="geometry">
            <mxRectangle width="118" height="120" as="alternateBounds" />
          </mxGeometry>
        </mxCell>
        <mxCell id="_UacAsJ8LhsHdzwPXFp5-290" value="" style="swimlane;swimlaneHead=0;swimlaneBody=0;fontStyle=0;connectable=0;strokeColor=inherit;fillColor=none;startSize=0;collapsible=0;recursiveResize=0;expand=0;" vertex="1" parent="_UacAsJ8LhsHdzwPXFp5-275">
          <mxGeometry x="1692" width="118" height="120" as="geometry">
            <mxRectangle width="118" height="120" as="alternateBounds" />
          </mxGeometry>
        </mxCell>
        <mxCell id="_UacAsJ8LhsHdzwPXFp5-291" value="" style="swimlane;swimlaneHead=0;swimlaneBody=0;fontStyle=0;connectable=0;strokeColor=inherit;fillColor=none;startSize=0;collapsible=0;recursiveResize=0;expand=0;" vertex="1" parent="_UacAsJ8LhsHdzwPXFp5-275">
          <mxGeometry x="1810" width="118" height="120" as="geometry">
            <mxRectangle width="118" height="120" as="alternateBounds" />
          </mxGeometry>
        </mxCell>
        <mxCell id="_UacAsJ8LhsHdzwPXFp5-292" value="" style="swimlane;swimlaneHead=0;swimlaneBody=0;fontStyle=0;connectable=0;strokeColor=inherit;fillColor=none;startSize=0;collapsible=0;recursiveResize=0;expand=0;" vertex="1" parent="_UacAsJ8LhsHdzwPXFp5-275">
          <mxGeometry x="1928" width="118" height="120" as="geometry">
            <mxRectangle width="118" height="120" as="alternateBounds" />
          </mxGeometry>
        </mxCell>
        <mxCell id="_UacAsJ8LhsHdzwPXFp5-293" value="" style="swimlane;swimlaneHead=0;swimlaneBody=0;fontStyle=0;connectable=0;strokeColor=inherit;fillColor=none;startSize=0;collapsible=0;recursiveResize=0;expand=0;" vertex="1" parent="_UacAsJ8LhsHdzwPXFp5-275">
          <mxGeometry x="2046" width="118" height="120" as="geometry">
            <mxRectangle width="118" height="120" as="alternateBounds" />
          </mxGeometry>
        </mxCell>
        <mxCell id="_UacAsJ8LhsHdzwPXFp5-294" value="" style="swimlane;swimlaneHead=0;swimlaneBody=0;fontStyle=0;connectable=0;strokeColor=inherit;fillColor=none;startSize=0;collapsible=0;recursiveResize=0;expand=0;" vertex="1" parent="_UacAsJ8LhsHdzwPXFp5-275">
          <mxGeometry x="2164" width="118" height="120" as="geometry">
            <mxRectangle width="118" height="120" as="alternateBounds" />
          </mxGeometry>
        </mxCell>
        <mxCell id="_UacAsJ8LhsHdzwPXFp5-295" value="" style="swimlane;swimlaneHead=0;swimlaneBody=0;fontStyle=0;connectable=0;strokeColor=inherit;fillColor=none;startSize=0;collapsible=0;recursiveResize=0;expand=0;" vertex="1" parent="_UacAsJ8LhsHdzwPXFp5-275">
          <mxGeometry x="2282" width="118" height="120" as="geometry">
            <mxRectangle width="118" height="120" as="alternateBounds" />
          </mxGeometry>
        </mxCell>
        <mxCell id="_UacAsJ8LhsHdzwPXFp5-296" value="" style="shape=tableRow;horizontal=0;swimlaneHead=0;swimlaneBody=0;top=0;left=0;strokeColor=inherit;bottom=0;right=0;dropTarget=0;fontStyle=0;fillColor=none;points=[[0,0.5],[1,0.5]];portConstraint=eastwest;startSize=40;collapsible=0;recursiveResize=0;expand=0;" vertex="1" parent="_UacAsJ8LhsHdzwPXFp5-85">
          <mxGeometry y="1200" width="2400" height="120" as="geometry" />
        </mxCell>
        <mxCell id="_UacAsJ8LhsHdzwPXFp5-297" value="" style="swimlane;swimlaneHead=0;swimlaneBody=0;fontStyle=0;connectable=0;strokeColor=inherit;fillColor=none;startSize=0;collapsible=0;recursiveResize=0;expand=0;" vertex="1" parent="_UacAsJ8LhsHdzwPXFp5-296">
          <mxGeometry x="40" width="118" height="120" as="geometry">
            <mxRectangle width="118" height="120" as="alternateBounds" />
          </mxGeometry>
        </mxCell>
        <mxCell id="_UacAsJ8LhsHdzwPXFp5-298" value="" style="swimlane;swimlaneHead=0;swimlaneBody=0;fontStyle=0;connectable=0;strokeColor=inherit;fillColor=none;startSize=0;collapsible=0;recursiveResize=0;expand=0;" vertex="1" parent="_UacAsJ8LhsHdzwPXFp5-296">
          <mxGeometry x="158" width="118" height="120" as="geometry">
            <mxRectangle width="118" height="120" as="alternateBounds" />
          </mxGeometry>
        </mxCell>
        <mxCell id="_UacAsJ8LhsHdzwPXFp5-299" value="" style="swimlane;swimlaneHead=0;swimlaneBody=0;fontStyle=0;connectable=0;strokeColor=inherit;fillColor=none;startSize=0;collapsible=0;recursiveResize=0;expand=0;" vertex="1" parent="_UacAsJ8LhsHdzwPXFp5-296">
          <mxGeometry x="276" width="118" height="120" as="geometry">
            <mxRectangle width="118" height="120" as="alternateBounds" />
          </mxGeometry>
        </mxCell>
        <mxCell id="_UacAsJ8LhsHdzwPXFp5-300" value="" style="swimlane;swimlaneHead=0;swimlaneBody=0;fontStyle=0;connectable=0;strokeColor=inherit;fillColor=none;startSize=0;collapsible=0;recursiveResize=0;expand=0;" vertex="1" parent="_UacAsJ8LhsHdzwPXFp5-296">
          <mxGeometry x="394" width="118" height="120" as="geometry">
            <mxRectangle width="118" height="120" as="alternateBounds" />
          </mxGeometry>
        </mxCell>
        <mxCell id="_UacAsJ8LhsHdzwPXFp5-301" value="" style="swimlane;swimlaneHead=0;swimlaneBody=0;fontStyle=0;connectable=0;strokeColor=inherit;fillColor=none;startSize=0;collapsible=0;recursiveResize=0;expand=0;" vertex="1" parent="_UacAsJ8LhsHdzwPXFp5-296">
          <mxGeometry x="512" width="118" height="120" as="geometry">
            <mxRectangle width="118" height="120" as="alternateBounds" />
          </mxGeometry>
        </mxCell>
        <mxCell id="_UacAsJ8LhsHdzwPXFp5-302" value="" style="swimlane;swimlaneHead=0;swimlaneBody=0;fontStyle=0;connectable=0;strokeColor=inherit;fillColor=none;startSize=0;collapsible=0;recursiveResize=0;expand=0;" vertex="1" parent="_UacAsJ8LhsHdzwPXFp5-296">
          <mxGeometry x="630" width="118" height="120" as="geometry">
            <mxRectangle width="118" height="120" as="alternateBounds" />
          </mxGeometry>
        </mxCell>
        <mxCell id="_UacAsJ8LhsHdzwPXFp5-303" value="" style="swimlane;swimlaneHead=0;swimlaneBody=0;fontStyle=0;connectable=0;strokeColor=inherit;fillColor=none;startSize=0;collapsible=0;recursiveResize=0;expand=0;" vertex="1" parent="_UacAsJ8LhsHdzwPXFp5-296">
          <mxGeometry x="748" width="118" height="120" as="geometry">
            <mxRectangle width="118" height="120" as="alternateBounds" />
          </mxGeometry>
        </mxCell>
        <mxCell id="_UacAsJ8LhsHdzwPXFp5-304" value="" style="swimlane;swimlaneHead=0;swimlaneBody=0;fontStyle=0;connectable=0;strokeColor=inherit;fillColor=none;startSize=0;collapsible=0;recursiveResize=0;expand=0;" vertex="1" parent="_UacAsJ8LhsHdzwPXFp5-296">
          <mxGeometry x="866" width="118" height="120" as="geometry">
            <mxRectangle width="118" height="120" as="alternateBounds" />
          </mxGeometry>
        </mxCell>
        <mxCell id="_UacAsJ8LhsHdzwPXFp5-305" value="" style="swimlane;swimlaneHead=0;swimlaneBody=0;fontStyle=0;connectable=0;strokeColor=inherit;fillColor=none;startSize=0;collapsible=0;recursiveResize=0;expand=0;" vertex="1" parent="_UacAsJ8LhsHdzwPXFp5-296">
          <mxGeometry x="984" width="118" height="120" as="geometry">
            <mxRectangle width="118" height="120" as="alternateBounds" />
          </mxGeometry>
        </mxCell>
        <mxCell id="_UacAsJ8LhsHdzwPXFp5-306" value="" style="swimlane;swimlaneHead=0;swimlaneBody=0;fontStyle=0;connectable=0;strokeColor=inherit;fillColor=none;startSize=0;collapsible=0;recursiveResize=0;expand=0;" vertex="1" parent="_UacAsJ8LhsHdzwPXFp5-296">
          <mxGeometry x="1102" width="118" height="120" as="geometry">
            <mxRectangle width="118" height="120" as="alternateBounds" />
          </mxGeometry>
        </mxCell>
        <mxCell id="_UacAsJ8LhsHdzwPXFp5-307" value="" style="swimlane;swimlaneHead=0;swimlaneBody=0;fontStyle=0;connectable=0;strokeColor=inherit;fillColor=none;startSize=0;collapsible=0;recursiveResize=0;expand=0;" vertex="1" parent="_UacAsJ8LhsHdzwPXFp5-296">
          <mxGeometry x="1220" width="118" height="120" as="geometry">
            <mxRectangle width="118" height="120" as="alternateBounds" />
          </mxGeometry>
        </mxCell>
        <mxCell id="_UacAsJ8LhsHdzwPXFp5-308" value="" style="swimlane;swimlaneHead=0;swimlaneBody=0;fontStyle=0;connectable=0;strokeColor=inherit;fillColor=none;startSize=0;collapsible=0;recursiveResize=0;expand=0;" vertex="1" parent="_UacAsJ8LhsHdzwPXFp5-296">
          <mxGeometry x="1338" width="118" height="120" as="geometry">
            <mxRectangle width="118" height="120" as="alternateBounds" />
          </mxGeometry>
        </mxCell>
        <mxCell id="_UacAsJ8LhsHdzwPXFp5-309" value="" style="swimlane;swimlaneHead=0;swimlaneBody=0;fontStyle=0;connectable=0;strokeColor=inherit;fillColor=none;startSize=0;collapsible=0;recursiveResize=0;expand=0;" vertex="1" parent="_UacAsJ8LhsHdzwPXFp5-296">
          <mxGeometry x="1456" width="118" height="120" as="geometry">
            <mxRectangle width="118" height="120" as="alternateBounds" />
          </mxGeometry>
        </mxCell>
        <mxCell id="_UacAsJ8LhsHdzwPXFp5-310" value="" style="swimlane;swimlaneHead=0;swimlaneBody=0;fontStyle=0;connectable=0;strokeColor=inherit;fillColor=none;startSize=0;collapsible=0;recursiveResize=0;expand=0;" vertex="1" parent="_UacAsJ8LhsHdzwPXFp5-296">
          <mxGeometry x="1574" width="118" height="120" as="geometry">
            <mxRectangle width="118" height="120" as="alternateBounds" />
          </mxGeometry>
        </mxCell>
        <mxCell id="_UacAsJ8LhsHdzwPXFp5-311" value="" style="swimlane;swimlaneHead=0;swimlaneBody=0;fontStyle=0;connectable=0;strokeColor=inherit;fillColor=none;startSize=0;collapsible=0;recursiveResize=0;expand=0;" vertex="1" parent="_UacAsJ8LhsHdzwPXFp5-296">
          <mxGeometry x="1692" width="118" height="120" as="geometry">
            <mxRectangle width="118" height="120" as="alternateBounds" />
          </mxGeometry>
        </mxCell>
        <mxCell id="_UacAsJ8LhsHdzwPXFp5-312" value="" style="swimlane;swimlaneHead=0;swimlaneBody=0;fontStyle=0;connectable=0;strokeColor=inherit;fillColor=none;startSize=0;collapsible=0;recursiveResize=0;expand=0;" vertex="1" parent="_UacAsJ8LhsHdzwPXFp5-296">
          <mxGeometry x="1810" width="118" height="120" as="geometry">
            <mxRectangle width="118" height="120" as="alternateBounds" />
          </mxGeometry>
        </mxCell>
        <mxCell id="_UacAsJ8LhsHdzwPXFp5-313" value="" style="swimlane;swimlaneHead=0;swimlaneBody=0;fontStyle=0;connectable=0;strokeColor=inherit;fillColor=none;startSize=0;collapsible=0;recursiveResize=0;expand=0;" vertex="1" parent="_UacAsJ8LhsHdzwPXFp5-296">
          <mxGeometry x="1928" width="118" height="120" as="geometry">
            <mxRectangle width="118" height="120" as="alternateBounds" />
          </mxGeometry>
        </mxCell>
        <mxCell id="_UacAsJ8LhsHdzwPXFp5-314" value="" style="swimlane;swimlaneHead=0;swimlaneBody=0;fontStyle=0;connectable=0;strokeColor=inherit;fillColor=none;startSize=0;collapsible=0;recursiveResize=0;expand=0;" vertex="1" parent="_UacAsJ8LhsHdzwPXFp5-296">
          <mxGeometry x="2046" width="118" height="120" as="geometry">
            <mxRectangle width="118" height="120" as="alternateBounds" />
          </mxGeometry>
        </mxCell>
        <mxCell id="_UacAsJ8LhsHdzwPXFp5-315" value="" style="swimlane;swimlaneHead=0;swimlaneBody=0;fontStyle=0;connectable=0;strokeColor=inherit;fillColor=none;startSize=0;collapsible=0;recursiveResize=0;expand=0;" vertex="1" parent="_UacAsJ8LhsHdzwPXFp5-296">
          <mxGeometry x="2164" width="118" height="120" as="geometry">
            <mxRectangle width="118" height="120" as="alternateBounds" />
          </mxGeometry>
        </mxCell>
        <mxCell id="_UacAsJ8LhsHdzwPXFp5-316" value="" style="swimlane;swimlaneHead=0;swimlaneBody=0;fontStyle=0;connectable=0;strokeColor=inherit;fillColor=none;startSize=0;collapsible=0;recursiveResize=0;expand=0;" vertex="1" parent="_UacAsJ8LhsHdzwPXFp5-296">
          <mxGeometry x="2282" width="118" height="120" as="geometry">
            <mxRectangle width="118" height="120" as="alternateBounds" />
          </mxGeometry>
        </mxCell>
        <mxCell id="_UacAsJ8LhsHdzwPXFp5-317" value="" style="shape=tableRow;horizontal=0;swimlaneHead=0;swimlaneBody=0;top=0;left=0;strokeColor=inherit;bottom=0;right=0;dropTarget=0;fontStyle=0;fillColor=none;points=[[0,0.5],[1,0.5]];portConstraint=eastwest;startSize=40;collapsible=0;recursiveResize=0;expand=0;" vertex="1" parent="_UacAsJ8LhsHdzwPXFp5-85">
          <mxGeometry y="1320" width="2400" height="120" as="geometry" />
        </mxCell>
        <mxCell id="_UacAsJ8LhsHdzwPXFp5-318" value="" style="swimlane;swimlaneHead=0;swimlaneBody=0;fontStyle=0;connectable=0;strokeColor=inherit;fillColor=none;startSize=0;collapsible=0;recursiveResize=0;expand=0;" vertex="1" parent="_UacAsJ8LhsHdzwPXFp5-317">
          <mxGeometry x="40" width="118" height="120" as="geometry">
            <mxRectangle width="118" height="120" as="alternateBounds" />
          </mxGeometry>
        </mxCell>
        <mxCell id="_UacAsJ8LhsHdzwPXFp5-319" value="" style="swimlane;swimlaneHead=0;swimlaneBody=0;fontStyle=0;connectable=0;strokeColor=inherit;fillColor=none;startSize=0;collapsible=0;recursiveResize=0;expand=0;" vertex="1" parent="_UacAsJ8LhsHdzwPXFp5-317">
          <mxGeometry x="158" width="118" height="120" as="geometry">
            <mxRectangle width="118" height="120" as="alternateBounds" />
          </mxGeometry>
        </mxCell>
        <mxCell id="_UacAsJ8LhsHdzwPXFp5-320" value="" style="swimlane;swimlaneHead=0;swimlaneBody=0;fontStyle=0;connectable=0;strokeColor=inherit;fillColor=none;startSize=0;collapsible=0;recursiveResize=0;expand=0;" vertex="1" parent="_UacAsJ8LhsHdzwPXFp5-317">
          <mxGeometry x="276" width="118" height="120" as="geometry">
            <mxRectangle width="118" height="120" as="alternateBounds" />
          </mxGeometry>
        </mxCell>
        <mxCell id="_UacAsJ8LhsHdzwPXFp5-321" value="" style="swimlane;swimlaneHead=0;swimlaneBody=0;fontStyle=0;connectable=0;strokeColor=inherit;fillColor=none;startSize=0;collapsible=0;recursiveResize=0;expand=0;" vertex="1" parent="_UacAsJ8LhsHdzwPXFp5-317">
          <mxGeometry x="394" width="118" height="120" as="geometry">
            <mxRectangle width="118" height="120" as="alternateBounds" />
          </mxGeometry>
        </mxCell>
        <mxCell id="_UacAsJ8LhsHdzwPXFp5-322" value="" style="swimlane;swimlaneHead=0;swimlaneBody=0;fontStyle=0;connectable=0;strokeColor=inherit;fillColor=none;startSize=0;collapsible=0;recursiveResize=0;expand=0;" vertex="1" parent="_UacAsJ8LhsHdzwPXFp5-317">
          <mxGeometry x="512" width="118" height="120" as="geometry">
            <mxRectangle width="118" height="120" as="alternateBounds" />
          </mxGeometry>
        </mxCell>
        <mxCell id="_UacAsJ8LhsHdzwPXFp5-323" value="" style="swimlane;swimlaneHead=0;swimlaneBody=0;fontStyle=0;connectable=0;strokeColor=inherit;fillColor=none;startSize=0;collapsible=0;recursiveResize=0;expand=0;" vertex="1" parent="_UacAsJ8LhsHdzwPXFp5-317">
          <mxGeometry x="630" width="118" height="120" as="geometry">
            <mxRectangle width="118" height="120" as="alternateBounds" />
          </mxGeometry>
        </mxCell>
        <mxCell id="_UacAsJ8LhsHdzwPXFp5-324" value="" style="swimlane;swimlaneHead=0;swimlaneBody=0;fontStyle=0;connectable=0;strokeColor=inherit;fillColor=none;startSize=0;collapsible=0;recursiveResize=0;expand=0;" vertex="1" parent="_UacAsJ8LhsHdzwPXFp5-317">
          <mxGeometry x="748" width="118" height="120" as="geometry">
            <mxRectangle width="118" height="120" as="alternateBounds" />
          </mxGeometry>
        </mxCell>
        <mxCell id="_UacAsJ8LhsHdzwPXFp5-325" value="" style="swimlane;swimlaneHead=0;swimlaneBody=0;fontStyle=0;connectable=0;strokeColor=inherit;fillColor=none;startSize=0;collapsible=0;recursiveResize=0;expand=0;" vertex="1" parent="_UacAsJ8LhsHdzwPXFp5-317">
          <mxGeometry x="866" width="118" height="120" as="geometry">
            <mxRectangle width="118" height="120" as="alternateBounds" />
          </mxGeometry>
        </mxCell>
        <mxCell id="_UacAsJ8LhsHdzwPXFp5-326" value="" style="swimlane;swimlaneHead=0;swimlaneBody=0;fontStyle=0;connectable=0;strokeColor=inherit;fillColor=none;startSize=0;collapsible=0;recursiveResize=0;expand=0;" vertex="1" parent="_UacAsJ8LhsHdzwPXFp5-317">
          <mxGeometry x="984" width="118" height="120" as="geometry">
            <mxRectangle width="118" height="120" as="alternateBounds" />
          </mxGeometry>
        </mxCell>
        <mxCell id="_UacAsJ8LhsHdzwPXFp5-327" value="" style="swimlane;swimlaneHead=0;swimlaneBody=0;fontStyle=0;connectable=0;strokeColor=inherit;fillColor=none;startSize=0;collapsible=0;recursiveResize=0;expand=0;" vertex="1" parent="_UacAsJ8LhsHdzwPXFp5-317">
          <mxGeometry x="1102" width="118" height="120" as="geometry">
            <mxRectangle width="118" height="120" as="alternateBounds" />
          </mxGeometry>
        </mxCell>
        <mxCell id="_UacAsJ8LhsHdzwPXFp5-328" value="" style="swimlane;swimlaneHead=0;swimlaneBody=0;fontStyle=0;connectable=0;strokeColor=inherit;fillColor=none;startSize=0;collapsible=0;recursiveResize=0;expand=0;" vertex="1" parent="_UacAsJ8LhsHdzwPXFp5-317">
          <mxGeometry x="1220" width="118" height="120" as="geometry">
            <mxRectangle width="118" height="120" as="alternateBounds" />
          </mxGeometry>
        </mxCell>
        <mxCell id="_UacAsJ8LhsHdzwPXFp5-329" value="" style="swimlane;swimlaneHead=0;swimlaneBody=0;fontStyle=0;connectable=0;strokeColor=inherit;fillColor=none;startSize=0;collapsible=0;recursiveResize=0;expand=0;" vertex="1" parent="_UacAsJ8LhsHdzwPXFp5-317">
          <mxGeometry x="1338" width="118" height="120" as="geometry">
            <mxRectangle width="118" height="120" as="alternateBounds" />
          </mxGeometry>
        </mxCell>
        <mxCell id="_UacAsJ8LhsHdzwPXFp5-330" value="" style="swimlane;swimlaneHead=0;swimlaneBody=0;fontStyle=0;connectable=0;strokeColor=inherit;fillColor=none;startSize=0;collapsible=0;recursiveResize=0;expand=0;" vertex="1" parent="_UacAsJ8LhsHdzwPXFp5-317">
          <mxGeometry x="1456" width="118" height="120" as="geometry">
            <mxRectangle width="118" height="120" as="alternateBounds" />
          </mxGeometry>
        </mxCell>
        <mxCell id="_UacAsJ8LhsHdzwPXFp5-331" value="" style="swimlane;swimlaneHead=0;swimlaneBody=0;fontStyle=0;connectable=0;strokeColor=inherit;fillColor=none;startSize=0;collapsible=0;recursiveResize=0;expand=0;" vertex="1" parent="_UacAsJ8LhsHdzwPXFp5-317">
          <mxGeometry x="1574" width="118" height="120" as="geometry">
            <mxRectangle width="118" height="120" as="alternateBounds" />
          </mxGeometry>
        </mxCell>
        <mxCell id="_UacAsJ8LhsHdzwPXFp5-332" value="" style="swimlane;swimlaneHead=0;swimlaneBody=0;fontStyle=0;connectable=0;strokeColor=inherit;fillColor=none;startSize=0;collapsible=0;recursiveResize=0;expand=0;" vertex="1" parent="_UacAsJ8LhsHdzwPXFp5-317">
          <mxGeometry x="1692" width="118" height="120" as="geometry">
            <mxRectangle width="118" height="120" as="alternateBounds" />
          </mxGeometry>
        </mxCell>
        <mxCell id="_UacAsJ8LhsHdzwPXFp5-333" value="" style="swimlane;swimlaneHead=0;swimlaneBody=0;fontStyle=0;connectable=0;strokeColor=inherit;fillColor=none;startSize=0;collapsible=0;recursiveResize=0;expand=0;" vertex="1" parent="_UacAsJ8LhsHdzwPXFp5-317">
          <mxGeometry x="1810" width="118" height="120" as="geometry">
            <mxRectangle width="118" height="120" as="alternateBounds" />
          </mxGeometry>
        </mxCell>
        <mxCell id="_UacAsJ8LhsHdzwPXFp5-334" value="" style="swimlane;swimlaneHead=0;swimlaneBody=0;fontStyle=0;connectable=0;strokeColor=inherit;fillColor=none;startSize=0;collapsible=0;recursiveResize=0;expand=0;" vertex="1" parent="_UacAsJ8LhsHdzwPXFp5-317">
          <mxGeometry x="1928" width="118" height="120" as="geometry">
            <mxRectangle width="118" height="120" as="alternateBounds" />
          </mxGeometry>
        </mxCell>
        <mxCell id="_UacAsJ8LhsHdzwPXFp5-335" value="" style="swimlane;swimlaneHead=0;swimlaneBody=0;fontStyle=0;connectable=0;strokeColor=inherit;fillColor=none;startSize=0;collapsible=0;recursiveResize=0;expand=0;" vertex="1" parent="_UacAsJ8LhsHdzwPXFp5-317">
          <mxGeometry x="2046" width="118" height="120" as="geometry">
            <mxRectangle width="118" height="120" as="alternateBounds" />
          </mxGeometry>
        </mxCell>
        <mxCell id="_UacAsJ8LhsHdzwPXFp5-336" value="" style="swimlane;swimlaneHead=0;swimlaneBody=0;fontStyle=0;connectable=0;strokeColor=inherit;fillColor=none;startSize=0;collapsible=0;recursiveResize=0;expand=0;" vertex="1" parent="_UacAsJ8LhsHdzwPXFp5-317">
          <mxGeometry x="2164" width="118" height="120" as="geometry">
            <mxRectangle width="118" height="120" as="alternateBounds" />
          </mxGeometry>
        </mxCell>
        <mxCell id="_UacAsJ8LhsHdzwPXFp5-337" value="" style="swimlane;swimlaneHead=0;swimlaneBody=0;fontStyle=0;connectable=0;strokeColor=inherit;fillColor=none;startSize=0;collapsible=0;recursiveResize=0;expand=0;" vertex="1" parent="_UacAsJ8LhsHdzwPXFp5-317">
          <mxGeometry x="2282" width="118" height="120" as="geometry">
            <mxRectangle width="118" height="120" as="alternateBounds" />
          </mxGeometry>
        </mxCell>
        <mxCell id="_UacAsJ8LhsHdzwPXFp5-338" value="" style="shape=tableRow;horizontal=0;swimlaneHead=0;swimlaneBody=0;top=0;left=0;strokeColor=inherit;bottom=0;right=0;dropTarget=0;fontStyle=0;fillColor=none;points=[[0,0.5],[1,0.5]];portConstraint=eastwest;startSize=40;collapsible=0;recursiveResize=0;expand=0;" vertex="1" parent="_UacAsJ8LhsHdzwPXFp5-85">
          <mxGeometry y="1440" width="2400" height="120" as="geometry" />
        </mxCell>
        <mxCell id="_UacAsJ8LhsHdzwPXFp5-339" value="" style="swimlane;swimlaneHead=0;swimlaneBody=0;fontStyle=0;connectable=0;strokeColor=inherit;fillColor=none;startSize=0;collapsible=0;recursiveResize=0;expand=0;" vertex="1" parent="_UacAsJ8LhsHdzwPXFp5-338">
          <mxGeometry x="40" width="118" height="120" as="geometry">
            <mxRectangle width="118" height="120" as="alternateBounds" />
          </mxGeometry>
        </mxCell>
        <mxCell id="_UacAsJ8LhsHdzwPXFp5-340" value="" style="swimlane;swimlaneHead=0;swimlaneBody=0;fontStyle=0;connectable=0;strokeColor=inherit;fillColor=none;startSize=0;collapsible=0;recursiveResize=0;expand=0;" vertex="1" parent="_UacAsJ8LhsHdzwPXFp5-338">
          <mxGeometry x="158" width="118" height="120" as="geometry">
            <mxRectangle width="118" height="120" as="alternateBounds" />
          </mxGeometry>
        </mxCell>
        <mxCell id="_UacAsJ8LhsHdzwPXFp5-341" value="" style="swimlane;swimlaneHead=0;swimlaneBody=0;fontStyle=0;connectable=0;strokeColor=inherit;fillColor=none;startSize=0;collapsible=0;recursiveResize=0;expand=0;" vertex="1" parent="_UacAsJ8LhsHdzwPXFp5-338">
          <mxGeometry x="276" width="118" height="120" as="geometry">
            <mxRectangle width="118" height="120" as="alternateBounds" />
          </mxGeometry>
        </mxCell>
        <mxCell id="_UacAsJ8LhsHdzwPXFp5-342" value="" style="swimlane;swimlaneHead=0;swimlaneBody=0;fontStyle=0;connectable=0;strokeColor=inherit;fillColor=none;startSize=0;collapsible=0;recursiveResize=0;expand=0;" vertex="1" parent="_UacAsJ8LhsHdzwPXFp5-338">
          <mxGeometry x="394" width="118" height="120" as="geometry">
            <mxRectangle width="118" height="120" as="alternateBounds" />
          </mxGeometry>
        </mxCell>
        <mxCell id="_UacAsJ8LhsHdzwPXFp5-343" value="" style="swimlane;swimlaneHead=0;swimlaneBody=0;fontStyle=0;connectable=0;strokeColor=inherit;fillColor=none;startSize=0;collapsible=0;recursiveResize=0;expand=0;" vertex="1" parent="_UacAsJ8LhsHdzwPXFp5-338">
          <mxGeometry x="512" width="118" height="120" as="geometry">
            <mxRectangle width="118" height="120" as="alternateBounds" />
          </mxGeometry>
        </mxCell>
        <mxCell id="_UacAsJ8LhsHdzwPXFp5-344" value="" style="swimlane;swimlaneHead=0;swimlaneBody=0;fontStyle=0;connectable=0;strokeColor=inherit;fillColor=none;startSize=0;collapsible=0;recursiveResize=0;expand=0;" vertex="1" parent="_UacAsJ8LhsHdzwPXFp5-338">
          <mxGeometry x="630" width="118" height="120" as="geometry">
            <mxRectangle width="118" height="120" as="alternateBounds" />
          </mxGeometry>
        </mxCell>
        <mxCell id="_UacAsJ8LhsHdzwPXFp5-345" value="" style="swimlane;swimlaneHead=0;swimlaneBody=0;fontStyle=0;connectable=0;strokeColor=inherit;fillColor=none;startSize=0;collapsible=0;recursiveResize=0;expand=0;" vertex="1" parent="_UacAsJ8LhsHdzwPXFp5-338">
          <mxGeometry x="748" width="118" height="120" as="geometry">
            <mxRectangle width="118" height="120" as="alternateBounds" />
          </mxGeometry>
        </mxCell>
        <mxCell id="_UacAsJ8LhsHdzwPXFp5-346" value="" style="swimlane;swimlaneHead=0;swimlaneBody=0;fontStyle=0;connectable=0;strokeColor=inherit;fillColor=none;startSize=0;collapsible=0;recursiveResize=0;expand=0;" vertex="1" parent="_UacAsJ8LhsHdzwPXFp5-338">
          <mxGeometry x="866" width="118" height="120" as="geometry">
            <mxRectangle width="118" height="120" as="alternateBounds" />
          </mxGeometry>
        </mxCell>
        <mxCell id="_UacAsJ8LhsHdzwPXFp5-347" value="" style="swimlane;swimlaneHead=0;swimlaneBody=0;fontStyle=0;connectable=0;strokeColor=inherit;fillColor=none;startSize=0;collapsible=0;recursiveResize=0;expand=0;" vertex="1" parent="_UacAsJ8LhsHdzwPXFp5-338">
          <mxGeometry x="984" width="118" height="120" as="geometry">
            <mxRectangle width="118" height="120" as="alternateBounds" />
          </mxGeometry>
        </mxCell>
        <mxCell id="_UacAsJ8LhsHdzwPXFp5-348" value="" style="swimlane;swimlaneHead=0;swimlaneBody=0;fontStyle=0;connectable=0;strokeColor=inherit;fillColor=none;startSize=0;collapsible=0;recursiveResize=0;expand=0;" vertex="1" parent="_UacAsJ8LhsHdzwPXFp5-338">
          <mxGeometry x="1102" width="118" height="120" as="geometry">
            <mxRectangle width="118" height="120" as="alternateBounds" />
          </mxGeometry>
        </mxCell>
        <mxCell id="_UacAsJ8LhsHdzwPXFp5-349" value="" style="swimlane;swimlaneHead=0;swimlaneBody=0;fontStyle=0;connectable=0;strokeColor=inherit;fillColor=none;startSize=0;collapsible=0;recursiveResize=0;expand=0;" vertex="1" parent="_UacAsJ8LhsHdzwPXFp5-338">
          <mxGeometry x="1220" width="118" height="120" as="geometry">
            <mxRectangle width="118" height="120" as="alternateBounds" />
          </mxGeometry>
        </mxCell>
        <mxCell id="_UacAsJ8LhsHdzwPXFp5-350" value="" style="swimlane;swimlaneHead=0;swimlaneBody=0;fontStyle=0;connectable=0;strokeColor=inherit;fillColor=none;startSize=0;collapsible=0;recursiveResize=0;expand=0;" vertex="1" parent="_UacAsJ8LhsHdzwPXFp5-338">
          <mxGeometry x="1338" width="118" height="120" as="geometry">
            <mxRectangle width="118" height="120" as="alternateBounds" />
          </mxGeometry>
        </mxCell>
        <mxCell id="_UacAsJ8LhsHdzwPXFp5-351" value="" style="swimlane;swimlaneHead=0;swimlaneBody=0;fontStyle=0;connectable=0;strokeColor=inherit;fillColor=none;startSize=0;collapsible=0;recursiveResize=0;expand=0;" vertex="1" parent="_UacAsJ8LhsHdzwPXFp5-338">
          <mxGeometry x="1456" width="118" height="120" as="geometry">
            <mxRectangle width="118" height="120" as="alternateBounds" />
          </mxGeometry>
        </mxCell>
        <mxCell id="_UacAsJ8LhsHdzwPXFp5-352" value="" style="swimlane;swimlaneHead=0;swimlaneBody=0;fontStyle=0;connectable=0;strokeColor=inherit;fillColor=none;startSize=0;collapsible=0;recursiveResize=0;expand=0;" vertex="1" parent="_UacAsJ8LhsHdzwPXFp5-338">
          <mxGeometry x="1574" width="118" height="120" as="geometry">
            <mxRectangle width="118" height="120" as="alternateBounds" />
          </mxGeometry>
        </mxCell>
        <mxCell id="_UacAsJ8LhsHdzwPXFp5-353" value="" style="swimlane;swimlaneHead=0;swimlaneBody=0;fontStyle=0;connectable=0;strokeColor=inherit;fillColor=none;startSize=0;collapsible=0;recursiveResize=0;expand=0;" vertex="1" parent="_UacAsJ8LhsHdzwPXFp5-338">
          <mxGeometry x="1692" width="118" height="120" as="geometry">
            <mxRectangle width="118" height="120" as="alternateBounds" />
          </mxGeometry>
        </mxCell>
        <mxCell id="_UacAsJ8LhsHdzwPXFp5-354" value="" style="swimlane;swimlaneHead=0;swimlaneBody=0;fontStyle=0;connectable=0;strokeColor=inherit;fillColor=none;startSize=0;collapsible=0;recursiveResize=0;expand=0;" vertex="1" parent="_UacAsJ8LhsHdzwPXFp5-338">
          <mxGeometry x="1810" width="118" height="120" as="geometry">
            <mxRectangle width="118" height="120" as="alternateBounds" />
          </mxGeometry>
        </mxCell>
        <mxCell id="_UacAsJ8LhsHdzwPXFp5-355" value="" style="swimlane;swimlaneHead=0;swimlaneBody=0;fontStyle=0;connectable=0;strokeColor=inherit;fillColor=none;startSize=0;collapsible=0;recursiveResize=0;expand=0;" vertex="1" parent="_UacAsJ8LhsHdzwPXFp5-338">
          <mxGeometry x="1928" width="118" height="120" as="geometry">
            <mxRectangle width="118" height="120" as="alternateBounds" />
          </mxGeometry>
        </mxCell>
        <mxCell id="_UacAsJ8LhsHdzwPXFp5-356" value="" style="swimlane;swimlaneHead=0;swimlaneBody=0;fontStyle=0;connectable=0;strokeColor=inherit;fillColor=none;startSize=0;collapsible=0;recursiveResize=0;expand=0;" vertex="1" parent="_UacAsJ8LhsHdzwPXFp5-338">
          <mxGeometry x="2046" width="118" height="120" as="geometry">
            <mxRectangle width="118" height="120" as="alternateBounds" />
          </mxGeometry>
        </mxCell>
        <mxCell id="_UacAsJ8LhsHdzwPXFp5-357" value="" style="swimlane;swimlaneHead=0;swimlaneBody=0;fontStyle=0;connectable=0;strokeColor=inherit;fillColor=none;startSize=0;collapsible=0;recursiveResize=0;expand=0;" vertex="1" parent="_UacAsJ8LhsHdzwPXFp5-338">
          <mxGeometry x="2164" width="118" height="120" as="geometry">
            <mxRectangle width="118" height="120" as="alternateBounds" />
          </mxGeometry>
        </mxCell>
        <mxCell id="_UacAsJ8LhsHdzwPXFp5-358" value="" style="swimlane;swimlaneHead=0;swimlaneBody=0;fontStyle=0;connectable=0;strokeColor=inherit;fillColor=none;startSize=0;collapsible=0;recursiveResize=0;expand=0;" vertex="1" parent="_UacAsJ8LhsHdzwPXFp5-338">
          <mxGeometry x="2282" width="118" height="120" as="geometry">
            <mxRectangle width="118" height="120" as="alternateBounds" />
          </mxGeometry>
        </mxCell>
        <mxCell id="_UacAsJ8LhsHdzwPXFp5-359" value="" style="shape=tableRow;horizontal=0;swimlaneHead=0;swimlaneBody=0;top=0;left=0;strokeColor=inherit;bottom=0;right=0;dropTarget=0;fontStyle=0;fillColor=none;points=[[0,0.5],[1,0.5]];portConstraint=eastwest;startSize=40;collapsible=0;recursiveResize=0;expand=0;" vertex="1" parent="_UacAsJ8LhsHdzwPXFp5-85">
          <mxGeometry y="1560" width="2400" height="120" as="geometry" />
        </mxCell>
        <mxCell id="_UacAsJ8LhsHdzwPXFp5-360" value="" style="swimlane;swimlaneHead=0;swimlaneBody=0;fontStyle=0;connectable=0;strokeColor=inherit;fillColor=none;startSize=0;collapsible=0;recursiveResize=0;expand=0;" vertex="1" parent="_UacAsJ8LhsHdzwPXFp5-359">
          <mxGeometry x="40" width="118" height="120" as="geometry">
            <mxRectangle width="118" height="120" as="alternateBounds" />
          </mxGeometry>
        </mxCell>
        <mxCell id="_UacAsJ8LhsHdzwPXFp5-361" value="" style="swimlane;swimlaneHead=0;swimlaneBody=0;fontStyle=0;connectable=0;strokeColor=inherit;fillColor=none;startSize=0;collapsible=0;recursiveResize=0;expand=0;" vertex="1" parent="_UacAsJ8LhsHdzwPXFp5-359">
          <mxGeometry x="158" width="118" height="120" as="geometry">
            <mxRectangle width="118" height="120" as="alternateBounds" />
          </mxGeometry>
        </mxCell>
        <mxCell id="_UacAsJ8LhsHdzwPXFp5-362" value="" style="swimlane;swimlaneHead=0;swimlaneBody=0;fontStyle=0;connectable=0;strokeColor=inherit;fillColor=none;startSize=0;collapsible=0;recursiveResize=0;expand=0;" vertex="1" parent="_UacAsJ8LhsHdzwPXFp5-359">
          <mxGeometry x="276" width="118" height="120" as="geometry">
            <mxRectangle width="118" height="120" as="alternateBounds" />
          </mxGeometry>
        </mxCell>
        <mxCell id="_UacAsJ8LhsHdzwPXFp5-363" value="" style="swimlane;swimlaneHead=0;swimlaneBody=0;fontStyle=0;connectable=0;strokeColor=inherit;fillColor=none;startSize=0;collapsible=0;recursiveResize=0;expand=0;" vertex="1" parent="_UacAsJ8LhsHdzwPXFp5-359">
          <mxGeometry x="394" width="118" height="120" as="geometry">
            <mxRectangle width="118" height="120" as="alternateBounds" />
          </mxGeometry>
        </mxCell>
        <mxCell id="_UacAsJ8LhsHdzwPXFp5-364" value="" style="swimlane;swimlaneHead=0;swimlaneBody=0;fontStyle=0;connectable=0;strokeColor=inherit;fillColor=none;startSize=0;collapsible=0;recursiveResize=0;expand=0;" vertex="1" parent="_UacAsJ8LhsHdzwPXFp5-359">
          <mxGeometry x="512" width="118" height="120" as="geometry">
            <mxRectangle width="118" height="120" as="alternateBounds" />
          </mxGeometry>
        </mxCell>
        <mxCell id="_UacAsJ8LhsHdzwPXFp5-365" value="" style="swimlane;swimlaneHead=0;swimlaneBody=0;fontStyle=0;connectable=0;strokeColor=inherit;fillColor=none;startSize=0;collapsible=0;recursiveResize=0;expand=0;" vertex="1" parent="_UacAsJ8LhsHdzwPXFp5-359">
          <mxGeometry x="630" width="118" height="120" as="geometry">
            <mxRectangle width="118" height="120" as="alternateBounds" />
          </mxGeometry>
        </mxCell>
        <mxCell id="_UacAsJ8LhsHdzwPXFp5-366" value="" style="swimlane;swimlaneHead=0;swimlaneBody=0;fontStyle=0;connectable=0;strokeColor=inherit;fillColor=none;startSize=0;collapsible=0;recursiveResize=0;expand=0;" vertex="1" parent="_UacAsJ8LhsHdzwPXFp5-359">
          <mxGeometry x="748" width="118" height="120" as="geometry">
            <mxRectangle width="118" height="120" as="alternateBounds" />
          </mxGeometry>
        </mxCell>
        <mxCell id="_UacAsJ8LhsHdzwPXFp5-367" value="" style="swimlane;swimlaneHead=0;swimlaneBody=0;fontStyle=0;connectable=0;strokeColor=inherit;fillColor=none;startSize=0;collapsible=0;recursiveResize=0;expand=0;" vertex="1" parent="_UacAsJ8LhsHdzwPXFp5-359">
          <mxGeometry x="866" width="118" height="120" as="geometry">
            <mxRectangle width="118" height="120" as="alternateBounds" />
          </mxGeometry>
        </mxCell>
        <mxCell id="_UacAsJ8LhsHdzwPXFp5-368" value="" style="swimlane;swimlaneHead=0;swimlaneBody=0;fontStyle=0;connectable=0;strokeColor=inherit;fillColor=none;startSize=0;collapsible=0;recursiveResize=0;expand=0;" vertex="1" parent="_UacAsJ8LhsHdzwPXFp5-359">
          <mxGeometry x="984" width="118" height="120" as="geometry">
            <mxRectangle width="118" height="120" as="alternateBounds" />
          </mxGeometry>
        </mxCell>
        <mxCell id="_UacAsJ8LhsHdzwPXFp5-369" value="" style="swimlane;swimlaneHead=0;swimlaneBody=0;fontStyle=0;connectable=0;strokeColor=inherit;fillColor=none;startSize=0;collapsible=0;recursiveResize=0;expand=0;" vertex="1" parent="_UacAsJ8LhsHdzwPXFp5-359">
          <mxGeometry x="1102" width="118" height="120" as="geometry">
            <mxRectangle width="118" height="120" as="alternateBounds" />
          </mxGeometry>
        </mxCell>
        <mxCell id="_UacAsJ8LhsHdzwPXFp5-370" value="" style="swimlane;swimlaneHead=0;swimlaneBody=0;fontStyle=0;connectable=0;strokeColor=inherit;fillColor=none;startSize=0;collapsible=0;recursiveResize=0;expand=0;" vertex="1" parent="_UacAsJ8LhsHdzwPXFp5-359">
          <mxGeometry x="1220" width="118" height="120" as="geometry">
            <mxRectangle width="118" height="120" as="alternateBounds" />
          </mxGeometry>
        </mxCell>
        <mxCell id="_UacAsJ8LhsHdzwPXFp5-371" value="" style="swimlane;swimlaneHead=0;swimlaneBody=0;fontStyle=0;connectable=0;strokeColor=inherit;fillColor=none;startSize=0;collapsible=0;recursiveResize=0;expand=0;" vertex="1" parent="_UacAsJ8LhsHdzwPXFp5-359">
          <mxGeometry x="1338" width="118" height="120" as="geometry">
            <mxRectangle width="118" height="120" as="alternateBounds" />
          </mxGeometry>
        </mxCell>
        <mxCell id="_UacAsJ8LhsHdzwPXFp5-372" value="" style="swimlane;swimlaneHead=0;swimlaneBody=0;fontStyle=0;connectable=0;strokeColor=inherit;fillColor=none;startSize=0;collapsible=0;recursiveResize=0;expand=0;" vertex="1" parent="_UacAsJ8LhsHdzwPXFp5-359">
          <mxGeometry x="1456" width="118" height="120" as="geometry">
            <mxRectangle width="118" height="120" as="alternateBounds" />
          </mxGeometry>
        </mxCell>
        <mxCell id="_UacAsJ8LhsHdzwPXFp5-373" value="" style="swimlane;swimlaneHead=0;swimlaneBody=0;fontStyle=0;connectable=0;strokeColor=inherit;fillColor=none;startSize=0;collapsible=0;recursiveResize=0;expand=0;" vertex="1" parent="_UacAsJ8LhsHdzwPXFp5-359">
          <mxGeometry x="1574" width="118" height="120" as="geometry">
            <mxRectangle width="118" height="120" as="alternateBounds" />
          </mxGeometry>
        </mxCell>
        <mxCell id="_UacAsJ8LhsHdzwPXFp5-374" value="" style="swimlane;swimlaneHead=0;swimlaneBody=0;fontStyle=0;connectable=0;strokeColor=inherit;fillColor=none;startSize=0;collapsible=0;recursiveResize=0;expand=0;" vertex="1" parent="_UacAsJ8LhsHdzwPXFp5-359">
          <mxGeometry x="1692" width="118" height="120" as="geometry">
            <mxRectangle width="118" height="120" as="alternateBounds" />
          </mxGeometry>
        </mxCell>
        <mxCell id="_UacAsJ8LhsHdzwPXFp5-375" value="" style="swimlane;swimlaneHead=0;swimlaneBody=0;fontStyle=0;connectable=0;strokeColor=inherit;fillColor=none;startSize=0;collapsible=0;recursiveResize=0;expand=0;" vertex="1" parent="_UacAsJ8LhsHdzwPXFp5-359">
          <mxGeometry x="1810" width="118" height="120" as="geometry">
            <mxRectangle width="118" height="120" as="alternateBounds" />
          </mxGeometry>
        </mxCell>
        <mxCell id="_UacAsJ8LhsHdzwPXFp5-376" value="" style="swimlane;swimlaneHead=0;swimlaneBody=0;fontStyle=0;connectable=0;strokeColor=inherit;fillColor=none;startSize=0;collapsible=0;recursiveResize=0;expand=0;" vertex="1" parent="_UacAsJ8LhsHdzwPXFp5-359">
          <mxGeometry x="1928" width="118" height="120" as="geometry">
            <mxRectangle width="118" height="120" as="alternateBounds" />
          </mxGeometry>
        </mxCell>
        <mxCell id="_UacAsJ8LhsHdzwPXFp5-377" value="" style="swimlane;swimlaneHead=0;swimlaneBody=0;fontStyle=0;connectable=0;strokeColor=inherit;fillColor=none;startSize=0;collapsible=0;recursiveResize=0;expand=0;" vertex="1" parent="_UacAsJ8LhsHdzwPXFp5-359">
          <mxGeometry x="2046" width="118" height="120" as="geometry">
            <mxRectangle width="118" height="120" as="alternateBounds" />
          </mxGeometry>
        </mxCell>
        <mxCell id="_UacAsJ8LhsHdzwPXFp5-378" value="" style="swimlane;swimlaneHead=0;swimlaneBody=0;fontStyle=0;connectable=0;strokeColor=inherit;fillColor=none;startSize=0;collapsible=0;recursiveResize=0;expand=0;" vertex="1" parent="_UacAsJ8LhsHdzwPXFp5-359">
          <mxGeometry x="2164" width="118" height="120" as="geometry">
            <mxRectangle width="118" height="120" as="alternateBounds" />
          </mxGeometry>
        </mxCell>
        <mxCell id="_UacAsJ8LhsHdzwPXFp5-379" value="" style="swimlane;swimlaneHead=0;swimlaneBody=0;fontStyle=0;connectable=0;strokeColor=inherit;fillColor=none;startSize=0;collapsible=0;recursiveResize=0;expand=0;" vertex="1" parent="_UacAsJ8LhsHdzwPXFp5-359">
          <mxGeometry x="2282" width="118" height="120" as="geometry">
            <mxRectangle width="118" height="120" as="alternateBounds" />
          </mxGeometry>
        </mxCell>
        <mxCell id="_UacAsJ8LhsHdzwPXFp5-380" value="" style="shape=tableRow;horizontal=0;swimlaneHead=0;swimlaneBody=0;top=0;left=0;strokeColor=inherit;bottom=0;right=0;dropTarget=0;fontStyle=0;fillColor=none;points=[[0,0.5],[1,0.5]];portConstraint=eastwest;startSize=40;collapsible=0;recursiveResize=0;expand=0;" vertex="1" parent="_UacAsJ8LhsHdzwPXFp5-85">
          <mxGeometry y="1680" width="2400" height="120" as="geometry" />
        </mxCell>
        <mxCell id="_UacAsJ8LhsHdzwPXFp5-381" value="" style="swimlane;swimlaneHead=0;swimlaneBody=0;fontStyle=0;connectable=0;strokeColor=inherit;fillColor=none;startSize=0;collapsible=0;recursiveResize=0;expand=0;" vertex="1" parent="_UacAsJ8LhsHdzwPXFp5-380">
          <mxGeometry x="40" width="118" height="120" as="geometry">
            <mxRectangle width="118" height="120" as="alternateBounds" />
          </mxGeometry>
        </mxCell>
        <mxCell id="_UacAsJ8LhsHdzwPXFp5-382" value="" style="swimlane;swimlaneHead=0;swimlaneBody=0;fontStyle=0;connectable=0;strokeColor=inherit;fillColor=none;startSize=0;collapsible=0;recursiveResize=0;expand=0;" vertex="1" parent="_UacAsJ8LhsHdzwPXFp5-380">
          <mxGeometry x="158" width="118" height="120" as="geometry">
            <mxRectangle width="118" height="120" as="alternateBounds" />
          </mxGeometry>
        </mxCell>
        <mxCell id="_UacAsJ8LhsHdzwPXFp5-383" value="" style="swimlane;swimlaneHead=0;swimlaneBody=0;fontStyle=0;connectable=0;strokeColor=inherit;fillColor=none;startSize=0;collapsible=0;recursiveResize=0;expand=0;" vertex="1" parent="_UacAsJ8LhsHdzwPXFp5-380">
          <mxGeometry x="276" width="118" height="120" as="geometry">
            <mxRectangle width="118" height="120" as="alternateBounds" />
          </mxGeometry>
        </mxCell>
        <mxCell id="_UacAsJ8LhsHdzwPXFp5-384" value="" style="swimlane;swimlaneHead=0;swimlaneBody=0;fontStyle=0;connectable=0;strokeColor=inherit;fillColor=none;startSize=0;collapsible=0;recursiveResize=0;expand=0;" vertex="1" parent="_UacAsJ8LhsHdzwPXFp5-380">
          <mxGeometry x="394" width="118" height="120" as="geometry">
            <mxRectangle width="118" height="120" as="alternateBounds" />
          </mxGeometry>
        </mxCell>
        <mxCell id="_UacAsJ8LhsHdzwPXFp5-385" value="" style="swimlane;swimlaneHead=0;swimlaneBody=0;fontStyle=0;connectable=0;strokeColor=inherit;fillColor=none;startSize=0;collapsible=0;recursiveResize=0;expand=0;" vertex="1" parent="_UacAsJ8LhsHdzwPXFp5-380">
          <mxGeometry x="512" width="118" height="120" as="geometry">
            <mxRectangle width="118" height="120" as="alternateBounds" />
          </mxGeometry>
        </mxCell>
        <mxCell id="_UacAsJ8LhsHdzwPXFp5-386" value="" style="swimlane;swimlaneHead=0;swimlaneBody=0;fontStyle=0;connectable=0;strokeColor=inherit;fillColor=none;startSize=0;collapsible=0;recursiveResize=0;expand=0;" vertex="1" parent="_UacAsJ8LhsHdzwPXFp5-380">
          <mxGeometry x="630" width="118" height="120" as="geometry">
            <mxRectangle width="118" height="120" as="alternateBounds" />
          </mxGeometry>
        </mxCell>
        <mxCell id="_UacAsJ8LhsHdzwPXFp5-387" value="" style="swimlane;swimlaneHead=0;swimlaneBody=0;fontStyle=0;connectable=0;strokeColor=inherit;fillColor=none;startSize=0;collapsible=0;recursiveResize=0;expand=0;" vertex="1" parent="_UacAsJ8LhsHdzwPXFp5-380">
          <mxGeometry x="748" width="118" height="120" as="geometry">
            <mxRectangle width="118" height="120" as="alternateBounds" />
          </mxGeometry>
        </mxCell>
        <mxCell id="_UacAsJ8LhsHdzwPXFp5-388" value="" style="swimlane;swimlaneHead=0;swimlaneBody=0;fontStyle=0;connectable=0;strokeColor=inherit;fillColor=none;startSize=0;collapsible=0;recursiveResize=0;expand=0;" vertex="1" parent="_UacAsJ8LhsHdzwPXFp5-380">
          <mxGeometry x="866" width="118" height="120" as="geometry">
            <mxRectangle width="118" height="120" as="alternateBounds" />
          </mxGeometry>
        </mxCell>
        <mxCell id="_UacAsJ8LhsHdzwPXFp5-389" value="" style="swimlane;swimlaneHead=0;swimlaneBody=0;fontStyle=0;connectable=0;strokeColor=inherit;fillColor=none;startSize=0;collapsible=0;recursiveResize=0;expand=0;" vertex="1" parent="_UacAsJ8LhsHdzwPXFp5-380">
          <mxGeometry x="984" width="118" height="120" as="geometry">
            <mxRectangle width="118" height="120" as="alternateBounds" />
          </mxGeometry>
        </mxCell>
        <mxCell id="_UacAsJ8LhsHdzwPXFp5-390" value="" style="swimlane;swimlaneHead=0;swimlaneBody=0;fontStyle=0;connectable=0;strokeColor=inherit;fillColor=none;startSize=0;collapsible=0;recursiveResize=0;expand=0;" vertex="1" parent="_UacAsJ8LhsHdzwPXFp5-380">
          <mxGeometry x="1102" width="118" height="120" as="geometry">
            <mxRectangle width="118" height="120" as="alternateBounds" />
          </mxGeometry>
        </mxCell>
        <mxCell id="_UacAsJ8LhsHdzwPXFp5-391" value="" style="swimlane;swimlaneHead=0;swimlaneBody=0;fontStyle=0;connectable=0;strokeColor=inherit;fillColor=none;startSize=0;collapsible=0;recursiveResize=0;expand=0;" vertex="1" parent="_UacAsJ8LhsHdzwPXFp5-380">
          <mxGeometry x="1220" width="118" height="120" as="geometry">
            <mxRectangle width="118" height="120" as="alternateBounds" />
          </mxGeometry>
        </mxCell>
        <mxCell id="_UacAsJ8LhsHdzwPXFp5-392" value="" style="swimlane;swimlaneHead=0;swimlaneBody=0;fontStyle=0;connectable=0;strokeColor=inherit;fillColor=none;startSize=0;collapsible=0;recursiveResize=0;expand=0;" vertex="1" parent="_UacAsJ8LhsHdzwPXFp5-380">
          <mxGeometry x="1338" width="118" height="120" as="geometry">
            <mxRectangle width="118" height="120" as="alternateBounds" />
          </mxGeometry>
        </mxCell>
        <mxCell id="_UacAsJ8LhsHdzwPXFp5-393" value="" style="swimlane;swimlaneHead=0;swimlaneBody=0;fontStyle=0;connectable=0;strokeColor=inherit;fillColor=none;startSize=0;collapsible=0;recursiveResize=0;expand=0;" vertex="1" parent="_UacAsJ8LhsHdzwPXFp5-380">
          <mxGeometry x="1456" width="118" height="120" as="geometry">
            <mxRectangle width="118" height="120" as="alternateBounds" />
          </mxGeometry>
        </mxCell>
        <mxCell id="_UacAsJ8LhsHdzwPXFp5-394" value="" style="swimlane;swimlaneHead=0;swimlaneBody=0;fontStyle=0;connectable=0;strokeColor=inherit;fillColor=none;startSize=0;collapsible=0;recursiveResize=0;expand=0;" vertex="1" parent="_UacAsJ8LhsHdzwPXFp5-380">
          <mxGeometry x="1574" width="118" height="120" as="geometry">
            <mxRectangle width="118" height="120" as="alternateBounds" />
          </mxGeometry>
        </mxCell>
        <mxCell id="_UacAsJ8LhsHdzwPXFp5-395" value="" style="swimlane;swimlaneHead=0;swimlaneBody=0;fontStyle=0;connectable=0;strokeColor=inherit;fillColor=none;startSize=0;collapsible=0;recursiveResize=0;expand=0;" vertex="1" parent="_UacAsJ8LhsHdzwPXFp5-380">
          <mxGeometry x="1692" width="118" height="120" as="geometry">
            <mxRectangle width="118" height="120" as="alternateBounds" />
          </mxGeometry>
        </mxCell>
        <mxCell id="_UacAsJ8LhsHdzwPXFp5-396" value="" style="swimlane;swimlaneHead=0;swimlaneBody=0;fontStyle=0;connectable=0;strokeColor=inherit;fillColor=none;startSize=0;collapsible=0;recursiveResize=0;expand=0;" vertex="1" parent="_UacAsJ8LhsHdzwPXFp5-380">
          <mxGeometry x="1810" width="118" height="120" as="geometry">
            <mxRectangle width="118" height="120" as="alternateBounds" />
          </mxGeometry>
        </mxCell>
        <mxCell id="_UacAsJ8LhsHdzwPXFp5-397" value="" style="swimlane;swimlaneHead=0;swimlaneBody=0;fontStyle=0;connectable=0;strokeColor=inherit;fillColor=none;startSize=0;collapsible=0;recursiveResize=0;expand=0;" vertex="1" parent="_UacAsJ8LhsHdzwPXFp5-380">
          <mxGeometry x="1928" width="118" height="120" as="geometry">
            <mxRectangle width="118" height="120" as="alternateBounds" />
          </mxGeometry>
        </mxCell>
        <mxCell id="_UacAsJ8LhsHdzwPXFp5-398" value="" style="swimlane;swimlaneHead=0;swimlaneBody=0;fontStyle=0;connectable=0;strokeColor=inherit;fillColor=none;startSize=0;collapsible=0;recursiveResize=0;expand=0;" vertex="1" parent="_UacAsJ8LhsHdzwPXFp5-380">
          <mxGeometry x="2046" width="118" height="120" as="geometry">
            <mxRectangle width="118" height="120" as="alternateBounds" />
          </mxGeometry>
        </mxCell>
        <mxCell id="_UacAsJ8LhsHdzwPXFp5-399" value="" style="swimlane;swimlaneHead=0;swimlaneBody=0;fontStyle=0;connectable=0;strokeColor=inherit;fillColor=none;startSize=0;collapsible=0;recursiveResize=0;expand=0;" vertex="1" parent="_UacAsJ8LhsHdzwPXFp5-380">
          <mxGeometry x="2164" width="118" height="120" as="geometry">
            <mxRectangle width="118" height="120" as="alternateBounds" />
          </mxGeometry>
        </mxCell>
        <mxCell id="_UacAsJ8LhsHdzwPXFp5-400" value="" style="swimlane;swimlaneHead=0;swimlaneBody=0;fontStyle=0;connectable=0;strokeColor=inherit;fillColor=none;startSize=0;collapsible=0;recursiveResize=0;expand=0;" vertex="1" parent="_UacAsJ8LhsHdzwPXFp5-380">
          <mxGeometry x="2282" width="118" height="120" as="geometry">
            <mxRectangle width="118" height="120" as="alternateBounds" />
          </mxGeometry>
        </mxCell>
        <mxCell id="_UacAsJ8LhsHdzwPXFp5-401" value="" style="shape=tableRow;horizontal=0;swimlaneHead=0;swimlaneBody=0;top=0;left=0;strokeColor=inherit;bottom=0;right=0;dropTarget=0;fontStyle=0;fillColor=none;points=[[0,0.5],[1,0.5]];portConstraint=eastwest;startSize=40;collapsible=0;recursiveResize=0;expand=0;" vertex="1" parent="_UacAsJ8LhsHdzwPXFp5-85">
          <mxGeometry y="1800" width="2400" height="120" as="geometry" />
        </mxCell>
        <mxCell id="_UacAsJ8LhsHdzwPXFp5-402" value="" style="swimlane;swimlaneHead=0;swimlaneBody=0;fontStyle=0;connectable=0;strokeColor=inherit;fillColor=none;startSize=0;collapsible=0;recursiveResize=0;expand=0;" vertex="1" parent="_UacAsJ8LhsHdzwPXFp5-401">
          <mxGeometry x="40" width="118" height="120" as="geometry">
            <mxRectangle width="118" height="120" as="alternateBounds" />
          </mxGeometry>
        </mxCell>
        <mxCell id="_UacAsJ8LhsHdzwPXFp5-403" value="" style="swimlane;swimlaneHead=0;swimlaneBody=0;fontStyle=0;connectable=0;strokeColor=inherit;fillColor=none;startSize=0;collapsible=0;recursiveResize=0;expand=0;" vertex="1" parent="_UacAsJ8LhsHdzwPXFp5-401">
          <mxGeometry x="158" width="118" height="120" as="geometry">
            <mxRectangle width="118" height="120" as="alternateBounds" />
          </mxGeometry>
        </mxCell>
        <mxCell id="_UacAsJ8LhsHdzwPXFp5-404" value="" style="swimlane;swimlaneHead=0;swimlaneBody=0;fontStyle=0;connectable=0;strokeColor=inherit;fillColor=none;startSize=0;collapsible=0;recursiveResize=0;expand=0;" vertex="1" parent="_UacAsJ8LhsHdzwPXFp5-401">
          <mxGeometry x="276" width="118" height="120" as="geometry">
            <mxRectangle width="118" height="120" as="alternateBounds" />
          </mxGeometry>
        </mxCell>
        <mxCell id="_UacAsJ8LhsHdzwPXFp5-405" value="" style="swimlane;swimlaneHead=0;swimlaneBody=0;fontStyle=0;connectable=0;strokeColor=inherit;fillColor=none;startSize=0;collapsible=0;recursiveResize=0;expand=0;" vertex="1" parent="_UacAsJ8LhsHdzwPXFp5-401">
          <mxGeometry x="394" width="118" height="120" as="geometry">
            <mxRectangle width="118" height="120" as="alternateBounds" />
          </mxGeometry>
        </mxCell>
        <mxCell id="_UacAsJ8LhsHdzwPXFp5-406" value="" style="swimlane;swimlaneHead=0;swimlaneBody=0;fontStyle=0;connectable=0;strokeColor=inherit;fillColor=none;startSize=0;collapsible=0;recursiveResize=0;expand=0;" vertex="1" parent="_UacAsJ8LhsHdzwPXFp5-401">
          <mxGeometry x="512" width="118" height="120" as="geometry">
            <mxRectangle width="118" height="120" as="alternateBounds" />
          </mxGeometry>
        </mxCell>
        <mxCell id="_UacAsJ8LhsHdzwPXFp5-407" value="" style="swimlane;swimlaneHead=0;swimlaneBody=0;fontStyle=0;connectable=0;strokeColor=inherit;fillColor=none;startSize=0;collapsible=0;recursiveResize=0;expand=0;" vertex="1" parent="_UacAsJ8LhsHdzwPXFp5-401">
          <mxGeometry x="630" width="118" height="120" as="geometry">
            <mxRectangle width="118" height="120" as="alternateBounds" />
          </mxGeometry>
        </mxCell>
        <mxCell id="_UacAsJ8LhsHdzwPXFp5-408" value="" style="swimlane;swimlaneHead=0;swimlaneBody=0;fontStyle=0;connectable=0;strokeColor=inherit;fillColor=none;startSize=0;collapsible=0;recursiveResize=0;expand=0;" vertex="1" parent="_UacAsJ8LhsHdzwPXFp5-401">
          <mxGeometry x="748" width="118" height="120" as="geometry">
            <mxRectangle width="118" height="120" as="alternateBounds" />
          </mxGeometry>
        </mxCell>
        <mxCell id="_UacAsJ8LhsHdzwPXFp5-409" value="" style="swimlane;swimlaneHead=0;swimlaneBody=0;fontStyle=0;connectable=0;strokeColor=inherit;fillColor=none;startSize=0;collapsible=0;recursiveResize=0;expand=0;" vertex="1" parent="_UacAsJ8LhsHdzwPXFp5-401">
          <mxGeometry x="866" width="118" height="120" as="geometry">
            <mxRectangle width="118" height="120" as="alternateBounds" />
          </mxGeometry>
        </mxCell>
        <mxCell id="_UacAsJ8LhsHdzwPXFp5-410" value="" style="swimlane;swimlaneHead=0;swimlaneBody=0;fontStyle=0;connectable=0;strokeColor=inherit;fillColor=none;startSize=0;collapsible=0;recursiveResize=0;expand=0;" vertex="1" parent="_UacAsJ8LhsHdzwPXFp5-401">
          <mxGeometry x="984" width="118" height="120" as="geometry">
            <mxRectangle width="118" height="120" as="alternateBounds" />
          </mxGeometry>
        </mxCell>
        <mxCell id="_UacAsJ8LhsHdzwPXFp5-411" value="" style="swimlane;swimlaneHead=0;swimlaneBody=0;fontStyle=0;connectable=0;strokeColor=inherit;fillColor=none;startSize=0;collapsible=0;recursiveResize=0;expand=0;" vertex="1" parent="_UacAsJ8LhsHdzwPXFp5-401">
          <mxGeometry x="1102" width="118" height="120" as="geometry">
            <mxRectangle width="118" height="120" as="alternateBounds" />
          </mxGeometry>
        </mxCell>
        <mxCell id="_UacAsJ8LhsHdzwPXFp5-412" value="" style="swimlane;swimlaneHead=0;swimlaneBody=0;fontStyle=0;connectable=0;strokeColor=inherit;fillColor=none;startSize=0;collapsible=0;recursiveResize=0;expand=0;" vertex="1" parent="_UacAsJ8LhsHdzwPXFp5-401">
          <mxGeometry x="1220" width="118" height="120" as="geometry">
            <mxRectangle width="118" height="120" as="alternateBounds" />
          </mxGeometry>
        </mxCell>
        <mxCell id="_UacAsJ8LhsHdzwPXFp5-413" value="" style="swimlane;swimlaneHead=0;swimlaneBody=0;fontStyle=0;connectable=0;strokeColor=inherit;fillColor=none;startSize=0;collapsible=0;recursiveResize=0;expand=0;" vertex="1" parent="_UacAsJ8LhsHdzwPXFp5-401">
          <mxGeometry x="1338" width="118" height="120" as="geometry">
            <mxRectangle width="118" height="120" as="alternateBounds" />
          </mxGeometry>
        </mxCell>
        <mxCell id="_UacAsJ8LhsHdzwPXFp5-414" value="" style="swimlane;swimlaneHead=0;swimlaneBody=0;fontStyle=0;connectable=0;strokeColor=inherit;fillColor=none;startSize=0;collapsible=0;recursiveResize=0;expand=0;" vertex="1" parent="_UacAsJ8LhsHdzwPXFp5-401">
          <mxGeometry x="1456" width="118" height="120" as="geometry">
            <mxRectangle width="118" height="120" as="alternateBounds" />
          </mxGeometry>
        </mxCell>
        <mxCell id="_UacAsJ8LhsHdzwPXFp5-415" value="" style="swimlane;swimlaneHead=0;swimlaneBody=0;fontStyle=0;connectable=0;strokeColor=inherit;fillColor=none;startSize=0;collapsible=0;recursiveResize=0;expand=0;" vertex="1" parent="_UacAsJ8LhsHdzwPXFp5-401">
          <mxGeometry x="1574" width="118" height="120" as="geometry">
            <mxRectangle width="118" height="120" as="alternateBounds" />
          </mxGeometry>
        </mxCell>
        <mxCell id="_UacAsJ8LhsHdzwPXFp5-416" value="" style="swimlane;swimlaneHead=0;swimlaneBody=0;fontStyle=0;connectable=0;strokeColor=inherit;fillColor=none;startSize=0;collapsible=0;recursiveResize=0;expand=0;" vertex="1" parent="_UacAsJ8LhsHdzwPXFp5-401">
          <mxGeometry x="1692" width="118" height="120" as="geometry">
            <mxRectangle width="118" height="120" as="alternateBounds" />
          </mxGeometry>
        </mxCell>
        <mxCell id="_UacAsJ8LhsHdzwPXFp5-417" value="" style="swimlane;swimlaneHead=0;swimlaneBody=0;fontStyle=0;connectable=0;strokeColor=inherit;fillColor=none;startSize=0;collapsible=0;recursiveResize=0;expand=0;" vertex="1" parent="_UacAsJ8LhsHdzwPXFp5-401">
          <mxGeometry x="1810" width="118" height="120" as="geometry">
            <mxRectangle width="118" height="120" as="alternateBounds" />
          </mxGeometry>
        </mxCell>
        <mxCell id="_UacAsJ8LhsHdzwPXFp5-418" value="" style="swimlane;swimlaneHead=0;swimlaneBody=0;fontStyle=0;connectable=0;strokeColor=inherit;fillColor=none;startSize=0;collapsible=0;recursiveResize=0;expand=0;" vertex="1" parent="_UacAsJ8LhsHdzwPXFp5-401">
          <mxGeometry x="1928" width="118" height="120" as="geometry">
            <mxRectangle width="118" height="120" as="alternateBounds" />
          </mxGeometry>
        </mxCell>
        <mxCell id="_UacAsJ8LhsHdzwPXFp5-419" value="" style="swimlane;swimlaneHead=0;swimlaneBody=0;fontStyle=0;connectable=0;strokeColor=inherit;fillColor=none;startSize=0;collapsible=0;recursiveResize=0;expand=0;" vertex="1" parent="_UacAsJ8LhsHdzwPXFp5-401">
          <mxGeometry x="2046" width="118" height="120" as="geometry">
            <mxRectangle width="118" height="120" as="alternateBounds" />
          </mxGeometry>
        </mxCell>
        <mxCell id="_UacAsJ8LhsHdzwPXFp5-420" value="" style="swimlane;swimlaneHead=0;swimlaneBody=0;fontStyle=0;connectable=0;strokeColor=inherit;fillColor=none;startSize=0;collapsible=0;recursiveResize=0;expand=0;" vertex="1" parent="_UacAsJ8LhsHdzwPXFp5-401">
          <mxGeometry x="2164" width="118" height="120" as="geometry">
            <mxRectangle width="118" height="120" as="alternateBounds" />
          </mxGeometry>
        </mxCell>
        <mxCell id="_UacAsJ8LhsHdzwPXFp5-421" value="" style="swimlane;swimlaneHead=0;swimlaneBody=0;fontStyle=0;connectable=0;strokeColor=inherit;fillColor=none;startSize=0;collapsible=0;recursiveResize=0;expand=0;" vertex="1" parent="_UacAsJ8LhsHdzwPXFp5-401">
          <mxGeometry x="2282" width="118" height="120" as="geometry">
            <mxRectangle width="118" height="120" as="alternateBounds" />
          </mxGeometry>
        </mxCell>
        <mxCell id="_UacAsJ8LhsHdzwPXFp5-422" value="" style="shape=tableRow;horizontal=0;swimlaneHead=0;swimlaneBody=0;top=0;left=0;strokeColor=inherit;bottom=0;right=0;dropTarget=0;fontStyle=0;fillColor=none;points=[[0,0.5],[1,0.5]];portConstraint=eastwest;startSize=40;collapsible=0;recursiveResize=0;expand=0;" vertex="1" parent="_UacAsJ8LhsHdzwPXFp5-85">
          <mxGeometry y="1920" width="2400" height="120" as="geometry" />
        </mxCell>
        <mxCell id="_UacAsJ8LhsHdzwPXFp5-423" value="" style="swimlane;swimlaneHead=0;swimlaneBody=0;fontStyle=0;connectable=0;strokeColor=inherit;fillColor=none;startSize=0;collapsible=0;recursiveResize=0;expand=0;" vertex="1" parent="_UacAsJ8LhsHdzwPXFp5-422">
          <mxGeometry x="40" width="118" height="120" as="geometry">
            <mxRectangle width="118" height="120" as="alternateBounds" />
          </mxGeometry>
        </mxCell>
        <mxCell id="_UacAsJ8LhsHdzwPXFp5-424" value="" style="swimlane;swimlaneHead=0;swimlaneBody=0;fontStyle=0;connectable=0;strokeColor=inherit;fillColor=none;startSize=0;collapsible=0;recursiveResize=0;expand=0;" vertex="1" parent="_UacAsJ8LhsHdzwPXFp5-422">
          <mxGeometry x="158" width="118" height="120" as="geometry">
            <mxRectangle width="118" height="120" as="alternateBounds" />
          </mxGeometry>
        </mxCell>
        <mxCell id="_UacAsJ8LhsHdzwPXFp5-425" value="" style="swimlane;swimlaneHead=0;swimlaneBody=0;fontStyle=0;connectable=0;strokeColor=inherit;fillColor=none;startSize=0;collapsible=0;recursiveResize=0;expand=0;" vertex="1" parent="_UacAsJ8LhsHdzwPXFp5-422">
          <mxGeometry x="276" width="118" height="120" as="geometry">
            <mxRectangle width="118" height="120" as="alternateBounds" />
          </mxGeometry>
        </mxCell>
        <mxCell id="_UacAsJ8LhsHdzwPXFp5-426" value="" style="swimlane;swimlaneHead=0;swimlaneBody=0;fontStyle=0;connectable=0;strokeColor=inherit;fillColor=none;startSize=0;collapsible=0;recursiveResize=0;expand=0;" vertex="1" parent="_UacAsJ8LhsHdzwPXFp5-422">
          <mxGeometry x="394" width="118" height="120" as="geometry">
            <mxRectangle width="118" height="120" as="alternateBounds" />
          </mxGeometry>
        </mxCell>
        <mxCell id="_UacAsJ8LhsHdzwPXFp5-427" value="" style="swimlane;swimlaneHead=0;swimlaneBody=0;fontStyle=0;connectable=0;strokeColor=inherit;fillColor=none;startSize=0;collapsible=0;recursiveResize=0;expand=0;" vertex="1" parent="_UacAsJ8LhsHdzwPXFp5-422">
          <mxGeometry x="512" width="118" height="120" as="geometry">
            <mxRectangle width="118" height="120" as="alternateBounds" />
          </mxGeometry>
        </mxCell>
        <mxCell id="_UacAsJ8LhsHdzwPXFp5-428" value="" style="swimlane;swimlaneHead=0;swimlaneBody=0;fontStyle=0;connectable=0;strokeColor=inherit;fillColor=none;startSize=0;collapsible=0;recursiveResize=0;expand=0;" vertex="1" parent="_UacAsJ8LhsHdzwPXFp5-422">
          <mxGeometry x="630" width="118" height="120" as="geometry">
            <mxRectangle width="118" height="120" as="alternateBounds" />
          </mxGeometry>
        </mxCell>
        <mxCell id="_UacAsJ8LhsHdzwPXFp5-429" value="" style="swimlane;swimlaneHead=0;swimlaneBody=0;fontStyle=0;connectable=0;strokeColor=inherit;fillColor=none;startSize=0;collapsible=0;recursiveResize=0;expand=0;" vertex="1" parent="_UacAsJ8LhsHdzwPXFp5-422">
          <mxGeometry x="748" width="118" height="120" as="geometry">
            <mxRectangle width="118" height="120" as="alternateBounds" />
          </mxGeometry>
        </mxCell>
        <mxCell id="_UacAsJ8LhsHdzwPXFp5-430" value="" style="swimlane;swimlaneHead=0;swimlaneBody=0;fontStyle=0;connectable=0;strokeColor=inherit;fillColor=none;startSize=0;collapsible=0;recursiveResize=0;expand=0;" vertex="1" parent="_UacAsJ8LhsHdzwPXFp5-422">
          <mxGeometry x="866" width="118" height="120" as="geometry">
            <mxRectangle width="118" height="120" as="alternateBounds" />
          </mxGeometry>
        </mxCell>
        <mxCell id="_UacAsJ8LhsHdzwPXFp5-431" value="" style="swimlane;swimlaneHead=0;swimlaneBody=0;fontStyle=0;connectable=0;strokeColor=inherit;fillColor=none;startSize=0;collapsible=0;recursiveResize=0;expand=0;" vertex="1" parent="_UacAsJ8LhsHdzwPXFp5-422">
          <mxGeometry x="984" width="118" height="120" as="geometry">
            <mxRectangle width="118" height="120" as="alternateBounds" />
          </mxGeometry>
        </mxCell>
        <mxCell id="_UacAsJ8LhsHdzwPXFp5-432" value="" style="swimlane;swimlaneHead=0;swimlaneBody=0;fontStyle=0;connectable=0;strokeColor=inherit;fillColor=none;startSize=0;collapsible=0;recursiveResize=0;expand=0;" vertex="1" parent="_UacAsJ8LhsHdzwPXFp5-422">
          <mxGeometry x="1102" width="118" height="120" as="geometry">
            <mxRectangle width="118" height="120" as="alternateBounds" />
          </mxGeometry>
        </mxCell>
        <mxCell id="_UacAsJ8LhsHdzwPXFp5-433" value="" style="swimlane;swimlaneHead=0;swimlaneBody=0;fontStyle=0;connectable=0;strokeColor=inherit;fillColor=none;startSize=0;collapsible=0;recursiveResize=0;expand=0;" vertex="1" parent="_UacAsJ8LhsHdzwPXFp5-422">
          <mxGeometry x="1220" width="118" height="120" as="geometry">
            <mxRectangle width="118" height="120" as="alternateBounds" />
          </mxGeometry>
        </mxCell>
        <mxCell id="_UacAsJ8LhsHdzwPXFp5-434" value="" style="swimlane;swimlaneHead=0;swimlaneBody=0;fontStyle=0;connectable=0;strokeColor=inherit;fillColor=none;startSize=0;collapsible=0;recursiveResize=0;expand=0;" vertex="1" parent="_UacAsJ8LhsHdzwPXFp5-422">
          <mxGeometry x="1338" width="118" height="120" as="geometry">
            <mxRectangle width="118" height="120" as="alternateBounds" />
          </mxGeometry>
        </mxCell>
        <mxCell id="_UacAsJ8LhsHdzwPXFp5-435" value="" style="swimlane;swimlaneHead=0;swimlaneBody=0;fontStyle=0;connectable=0;strokeColor=inherit;fillColor=none;startSize=0;collapsible=0;recursiveResize=0;expand=0;" vertex="1" parent="_UacAsJ8LhsHdzwPXFp5-422">
          <mxGeometry x="1456" width="118" height="120" as="geometry">
            <mxRectangle width="118" height="120" as="alternateBounds" />
          </mxGeometry>
        </mxCell>
        <mxCell id="_UacAsJ8LhsHdzwPXFp5-436" value="" style="swimlane;swimlaneHead=0;swimlaneBody=0;fontStyle=0;connectable=0;strokeColor=inherit;fillColor=none;startSize=0;collapsible=0;recursiveResize=0;expand=0;" vertex="1" parent="_UacAsJ8LhsHdzwPXFp5-422">
          <mxGeometry x="1574" width="118" height="120" as="geometry">
            <mxRectangle width="118" height="120" as="alternateBounds" />
          </mxGeometry>
        </mxCell>
        <mxCell id="_UacAsJ8LhsHdzwPXFp5-437" value="" style="swimlane;swimlaneHead=0;swimlaneBody=0;fontStyle=0;connectable=0;strokeColor=inherit;fillColor=none;startSize=0;collapsible=0;recursiveResize=0;expand=0;" vertex="1" parent="_UacAsJ8LhsHdzwPXFp5-422">
          <mxGeometry x="1692" width="118" height="120" as="geometry">
            <mxRectangle width="118" height="120" as="alternateBounds" />
          </mxGeometry>
        </mxCell>
        <mxCell id="_UacAsJ8LhsHdzwPXFp5-438" value="" style="swimlane;swimlaneHead=0;swimlaneBody=0;fontStyle=0;connectable=0;strokeColor=inherit;fillColor=none;startSize=0;collapsible=0;recursiveResize=0;expand=0;" vertex="1" parent="_UacAsJ8LhsHdzwPXFp5-422">
          <mxGeometry x="1810" width="118" height="120" as="geometry">
            <mxRectangle width="118" height="120" as="alternateBounds" />
          </mxGeometry>
        </mxCell>
        <mxCell id="_UacAsJ8LhsHdzwPXFp5-439" value="" style="swimlane;swimlaneHead=0;swimlaneBody=0;fontStyle=0;connectable=0;strokeColor=inherit;fillColor=none;startSize=0;collapsible=0;recursiveResize=0;expand=0;" vertex="1" parent="_UacAsJ8LhsHdzwPXFp5-422">
          <mxGeometry x="1928" width="118" height="120" as="geometry">
            <mxRectangle width="118" height="120" as="alternateBounds" />
          </mxGeometry>
        </mxCell>
        <mxCell id="_UacAsJ8LhsHdzwPXFp5-440" value="" style="swimlane;swimlaneHead=0;swimlaneBody=0;fontStyle=0;connectable=0;strokeColor=inherit;fillColor=none;startSize=0;collapsible=0;recursiveResize=0;expand=0;" vertex="1" parent="_UacAsJ8LhsHdzwPXFp5-422">
          <mxGeometry x="2046" width="118" height="120" as="geometry">
            <mxRectangle width="118" height="120" as="alternateBounds" />
          </mxGeometry>
        </mxCell>
        <mxCell id="_UacAsJ8LhsHdzwPXFp5-441" value="" style="swimlane;swimlaneHead=0;swimlaneBody=0;fontStyle=0;connectable=0;strokeColor=inherit;fillColor=none;startSize=0;collapsible=0;recursiveResize=0;expand=0;" vertex="1" parent="_UacAsJ8LhsHdzwPXFp5-422">
          <mxGeometry x="2164" width="118" height="120" as="geometry">
            <mxRectangle width="118" height="120" as="alternateBounds" />
          </mxGeometry>
        </mxCell>
        <mxCell id="_UacAsJ8LhsHdzwPXFp5-442" value="" style="swimlane;swimlaneHead=0;swimlaneBody=0;fontStyle=0;connectable=0;strokeColor=inherit;fillColor=none;startSize=0;collapsible=0;recursiveResize=0;expand=0;" vertex="1" parent="_UacAsJ8LhsHdzwPXFp5-422">
          <mxGeometry x="2282" width="118" height="120" as="geometry">
            <mxRectangle width="118" height="120" as="alternateBounds" />
          </mxGeometry>
        </mxCell>
        <mxCell id="_UacAsJ8LhsHdzwPXFp5-443" value="" style="shape=tableRow;horizontal=0;swimlaneHead=0;swimlaneBody=0;top=0;left=0;strokeColor=inherit;bottom=0;right=0;dropTarget=0;fontStyle=0;fillColor=none;points=[[0,0.5],[1,0.5]];portConstraint=eastwest;startSize=40;collapsible=0;recursiveResize=0;expand=0;" vertex="1" parent="_UacAsJ8LhsHdzwPXFp5-85">
          <mxGeometry y="2040" width="2400" height="120" as="geometry" />
        </mxCell>
        <mxCell id="_UacAsJ8LhsHdzwPXFp5-444" value="" style="swimlane;swimlaneHead=0;swimlaneBody=0;fontStyle=0;connectable=0;strokeColor=inherit;fillColor=none;startSize=0;collapsible=0;recursiveResize=0;expand=0;" vertex="1" parent="_UacAsJ8LhsHdzwPXFp5-443">
          <mxGeometry x="40" width="118" height="120" as="geometry">
            <mxRectangle width="118" height="120" as="alternateBounds" />
          </mxGeometry>
        </mxCell>
        <mxCell id="_UacAsJ8LhsHdzwPXFp5-445" value="" style="swimlane;swimlaneHead=0;swimlaneBody=0;fontStyle=0;connectable=0;strokeColor=inherit;fillColor=none;startSize=0;collapsible=0;recursiveResize=0;expand=0;" vertex="1" parent="_UacAsJ8LhsHdzwPXFp5-443">
          <mxGeometry x="158" width="118" height="120" as="geometry">
            <mxRectangle width="118" height="120" as="alternateBounds" />
          </mxGeometry>
        </mxCell>
        <mxCell id="_UacAsJ8LhsHdzwPXFp5-446" value="" style="swimlane;swimlaneHead=0;swimlaneBody=0;fontStyle=0;connectable=0;strokeColor=inherit;fillColor=none;startSize=0;collapsible=0;recursiveResize=0;expand=0;" vertex="1" parent="_UacAsJ8LhsHdzwPXFp5-443">
          <mxGeometry x="276" width="118" height="120" as="geometry">
            <mxRectangle width="118" height="120" as="alternateBounds" />
          </mxGeometry>
        </mxCell>
        <mxCell id="_UacAsJ8LhsHdzwPXFp5-447" value="" style="swimlane;swimlaneHead=0;swimlaneBody=0;fontStyle=0;connectable=0;strokeColor=inherit;fillColor=none;startSize=0;collapsible=0;recursiveResize=0;expand=0;" vertex="1" parent="_UacAsJ8LhsHdzwPXFp5-443">
          <mxGeometry x="394" width="118" height="120" as="geometry">
            <mxRectangle width="118" height="120" as="alternateBounds" />
          </mxGeometry>
        </mxCell>
        <mxCell id="_UacAsJ8LhsHdzwPXFp5-448" value="" style="swimlane;swimlaneHead=0;swimlaneBody=0;fontStyle=0;connectable=0;strokeColor=inherit;fillColor=none;startSize=0;collapsible=0;recursiveResize=0;expand=0;" vertex="1" parent="_UacAsJ8LhsHdzwPXFp5-443">
          <mxGeometry x="512" width="118" height="120" as="geometry">
            <mxRectangle width="118" height="120" as="alternateBounds" />
          </mxGeometry>
        </mxCell>
        <mxCell id="_UacAsJ8LhsHdzwPXFp5-449" value="" style="swimlane;swimlaneHead=0;swimlaneBody=0;fontStyle=0;connectable=0;strokeColor=inherit;fillColor=none;startSize=0;collapsible=0;recursiveResize=0;expand=0;" vertex="1" parent="_UacAsJ8LhsHdzwPXFp5-443">
          <mxGeometry x="630" width="118" height="120" as="geometry">
            <mxRectangle width="118" height="120" as="alternateBounds" />
          </mxGeometry>
        </mxCell>
        <mxCell id="_UacAsJ8LhsHdzwPXFp5-450" value="" style="swimlane;swimlaneHead=0;swimlaneBody=0;fontStyle=0;connectable=0;strokeColor=inherit;fillColor=none;startSize=0;collapsible=0;recursiveResize=0;expand=0;" vertex="1" parent="_UacAsJ8LhsHdzwPXFp5-443">
          <mxGeometry x="748" width="118" height="120" as="geometry">
            <mxRectangle width="118" height="120" as="alternateBounds" />
          </mxGeometry>
        </mxCell>
        <mxCell id="_UacAsJ8LhsHdzwPXFp5-451" value="" style="swimlane;swimlaneHead=0;swimlaneBody=0;fontStyle=0;connectable=0;strokeColor=inherit;fillColor=none;startSize=0;collapsible=0;recursiveResize=0;expand=0;" vertex="1" parent="_UacAsJ8LhsHdzwPXFp5-443">
          <mxGeometry x="866" width="118" height="120" as="geometry">
            <mxRectangle width="118" height="120" as="alternateBounds" />
          </mxGeometry>
        </mxCell>
        <mxCell id="_UacAsJ8LhsHdzwPXFp5-452" value="" style="swimlane;swimlaneHead=0;swimlaneBody=0;fontStyle=0;connectable=0;strokeColor=inherit;fillColor=none;startSize=0;collapsible=0;recursiveResize=0;expand=0;" vertex="1" parent="_UacAsJ8LhsHdzwPXFp5-443">
          <mxGeometry x="984" width="118" height="120" as="geometry">
            <mxRectangle width="118" height="120" as="alternateBounds" />
          </mxGeometry>
        </mxCell>
        <mxCell id="_UacAsJ8LhsHdzwPXFp5-453" value="" style="swimlane;swimlaneHead=0;swimlaneBody=0;fontStyle=0;connectable=0;strokeColor=inherit;fillColor=none;startSize=0;collapsible=0;recursiveResize=0;expand=0;" vertex="1" parent="_UacAsJ8LhsHdzwPXFp5-443">
          <mxGeometry x="1102" width="118" height="120" as="geometry">
            <mxRectangle width="118" height="120" as="alternateBounds" />
          </mxGeometry>
        </mxCell>
        <mxCell id="_UacAsJ8LhsHdzwPXFp5-454" value="" style="swimlane;swimlaneHead=0;swimlaneBody=0;fontStyle=0;connectable=0;strokeColor=inherit;fillColor=none;startSize=0;collapsible=0;recursiveResize=0;expand=0;" vertex="1" parent="_UacAsJ8LhsHdzwPXFp5-443">
          <mxGeometry x="1220" width="118" height="120" as="geometry">
            <mxRectangle width="118" height="120" as="alternateBounds" />
          </mxGeometry>
        </mxCell>
        <mxCell id="_UacAsJ8LhsHdzwPXFp5-455" value="" style="swimlane;swimlaneHead=0;swimlaneBody=0;fontStyle=0;connectable=0;strokeColor=inherit;fillColor=none;startSize=0;collapsible=0;recursiveResize=0;expand=0;" vertex="1" parent="_UacAsJ8LhsHdzwPXFp5-443">
          <mxGeometry x="1338" width="118" height="120" as="geometry">
            <mxRectangle width="118" height="120" as="alternateBounds" />
          </mxGeometry>
        </mxCell>
        <mxCell id="_UacAsJ8LhsHdzwPXFp5-456" value="" style="swimlane;swimlaneHead=0;swimlaneBody=0;fontStyle=0;connectable=0;strokeColor=inherit;fillColor=none;startSize=0;collapsible=0;recursiveResize=0;expand=0;" vertex="1" parent="_UacAsJ8LhsHdzwPXFp5-443">
          <mxGeometry x="1456" width="118" height="120" as="geometry">
            <mxRectangle width="118" height="120" as="alternateBounds" />
          </mxGeometry>
        </mxCell>
        <mxCell id="_UacAsJ8LhsHdzwPXFp5-457" value="" style="swimlane;swimlaneHead=0;swimlaneBody=0;fontStyle=0;connectable=0;strokeColor=inherit;fillColor=none;startSize=0;collapsible=0;recursiveResize=0;expand=0;" vertex="1" parent="_UacAsJ8LhsHdzwPXFp5-443">
          <mxGeometry x="1574" width="118" height="120" as="geometry">
            <mxRectangle width="118" height="120" as="alternateBounds" />
          </mxGeometry>
        </mxCell>
        <mxCell id="_UacAsJ8LhsHdzwPXFp5-458" value="" style="swimlane;swimlaneHead=0;swimlaneBody=0;fontStyle=0;connectable=0;strokeColor=inherit;fillColor=none;startSize=0;collapsible=0;recursiveResize=0;expand=0;" vertex="1" parent="_UacAsJ8LhsHdzwPXFp5-443">
          <mxGeometry x="1692" width="118" height="120" as="geometry">
            <mxRectangle width="118" height="120" as="alternateBounds" />
          </mxGeometry>
        </mxCell>
        <mxCell id="_UacAsJ8LhsHdzwPXFp5-459" value="" style="swimlane;swimlaneHead=0;swimlaneBody=0;fontStyle=0;connectable=0;strokeColor=inherit;fillColor=none;startSize=0;collapsible=0;recursiveResize=0;expand=0;" vertex="1" parent="_UacAsJ8LhsHdzwPXFp5-443">
          <mxGeometry x="1810" width="118" height="120" as="geometry">
            <mxRectangle width="118" height="120" as="alternateBounds" />
          </mxGeometry>
        </mxCell>
        <mxCell id="_UacAsJ8LhsHdzwPXFp5-460" value="" style="swimlane;swimlaneHead=0;swimlaneBody=0;fontStyle=0;connectable=0;strokeColor=inherit;fillColor=none;startSize=0;collapsible=0;recursiveResize=0;expand=0;" vertex="1" parent="_UacAsJ8LhsHdzwPXFp5-443">
          <mxGeometry x="1928" width="118" height="120" as="geometry">
            <mxRectangle width="118" height="120" as="alternateBounds" />
          </mxGeometry>
        </mxCell>
        <mxCell id="_UacAsJ8LhsHdzwPXFp5-461" value="" style="swimlane;swimlaneHead=0;swimlaneBody=0;fontStyle=0;connectable=0;strokeColor=inherit;fillColor=none;startSize=0;collapsible=0;recursiveResize=0;expand=0;" vertex="1" parent="_UacAsJ8LhsHdzwPXFp5-443">
          <mxGeometry x="2046" width="118" height="120" as="geometry">
            <mxRectangle width="118" height="120" as="alternateBounds" />
          </mxGeometry>
        </mxCell>
        <mxCell id="_UacAsJ8LhsHdzwPXFp5-462" value="" style="swimlane;swimlaneHead=0;swimlaneBody=0;fontStyle=0;connectable=0;strokeColor=inherit;fillColor=none;startSize=0;collapsible=0;recursiveResize=0;expand=0;" vertex="1" parent="_UacAsJ8LhsHdzwPXFp5-443">
          <mxGeometry x="2164" width="118" height="120" as="geometry">
            <mxRectangle width="118" height="120" as="alternateBounds" />
          </mxGeometry>
        </mxCell>
        <mxCell id="_UacAsJ8LhsHdzwPXFp5-463" value="" style="swimlane;swimlaneHead=0;swimlaneBody=0;fontStyle=0;connectable=0;strokeColor=inherit;fillColor=none;startSize=0;collapsible=0;recursiveResize=0;expand=0;" vertex="1" parent="_UacAsJ8LhsHdzwPXFp5-443">
          <mxGeometry x="2282" width="118" height="120" as="geometry">
            <mxRectangle width="118" height="120" as="alternateBounds" />
          </mxGeometry>
        </mxCell>
        <mxCell id="_UacAsJ8LhsHdzwPXFp5-464" value="" style="shape=tableRow;horizontal=0;swimlaneHead=0;swimlaneBody=0;top=0;left=0;strokeColor=inherit;bottom=0;right=0;dropTarget=0;fontStyle=0;fillColor=none;points=[[0,0.5],[1,0.5]];portConstraint=eastwest;startSize=40;collapsible=0;recursiveResize=0;expand=0;" vertex="1" parent="_UacAsJ8LhsHdzwPXFp5-85">
          <mxGeometry y="2160" width="2400" height="120" as="geometry" />
        </mxCell>
        <mxCell id="_UacAsJ8LhsHdzwPXFp5-465" value="" style="swimlane;swimlaneHead=0;swimlaneBody=0;fontStyle=0;connectable=0;strokeColor=inherit;fillColor=none;startSize=0;collapsible=0;recursiveResize=0;expand=0;" vertex="1" parent="_UacAsJ8LhsHdzwPXFp5-464">
          <mxGeometry x="40" width="118" height="120" as="geometry">
            <mxRectangle width="118" height="120" as="alternateBounds" />
          </mxGeometry>
        </mxCell>
        <mxCell id="_UacAsJ8LhsHdzwPXFp5-466" value="" style="swimlane;swimlaneHead=0;swimlaneBody=0;fontStyle=0;connectable=0;strokeColor=inherit;fillColor=none;startSize=0;collapsible=0;recursiveResize=0;expand=0;" vertex="1" parent="_UacAsJ8LhsHdzwPXFp5-464">
          <mxGeometry x="158" width="118" height="120" as="geometry">
            <mxRectangle width="118" height="120" as="alternateBounds" />
          </mxGeometry>
        </mxCell>
        <mxCell id="_UacAsJ8LhsHdzwPXFp5-467" value="" style="swimlane;swimlaneHead=0;swimlaneBody=0;fontStyle=0;connectable=0;strokeColor=inherit;fillColor=none;startSize=0;collapsible=0;recursiveResize=0;expand=0;" vertex="1" parent="_UacAsJ8LhsHdzwPXFp5-464">
          <mxGeometry x="276" width="118" height="120" as="geometry">
            <mxRectangle width="118" height="120" as="alternateBounds" />
          </mxGeometry>
        </mxCell>
        <mxCell id="_UacAsJ8LhsHdzwPXFp5-468" value="" style="swimlane;swimlaneHead=0;swimlaneBody=0;fontStyle=0;connectable=0;strokeColor=inherit;fillColor=none;startSize=0;collapsible=0;recursiveResize=0;expand=0;" vertex="1" parent="_UacAsJ8LhsHdzwPXFp5-464">
          <mxGeometry x="394" width="118" height="120" as="geometry">
            <mxRectangle width="118" height="120" as="alternateBounds" />
          </mxGeometry>
        </mxCell>
        <mxCell id="_UacAsJ8LhsHdzwPXFp5-469" value="" style="swimlane;swimlaneHead=0;swimlaneBody=0;fontStyle=0;connectable=0;strokeColor=inherit;fillColor=none;startSize=0;collapsible=0;recursiveResize=0;expand=0;" vertex="1" parent="_UacAsJ8LhsHdzwPXFp5-464">
          <mxGeometry x="512" width="118" height="120" as="geometry">
            <mxRectangle width="118" height="120" as="alternateBounds" />
          </mxGeometry>
        </mxCell>
        <mxCell id="_UacAsJ8LhsHdzwPXFp5-470" value="" style="swimlane;swimlaneHead=0;swimlaneBody=0;fontStyle=0;connectable=0;strokeColor=inherit;fillColor=none;startSize=0;collapsible=0;recursiveResize=0;expand=0;" vertex="1" parent="_UacAsJ8LhsHdzwPXFp5-464">
          <mxGeometry x="630" width="118" height="120" as="geometry">
            <mxRectangle width="118" height="120" as="alternateBounds" />
          </mxGeometry>
        </mxCell>
        <mxCell id="_UacAsJ8LhsHdzwPXFp5-471" value="" style="swimlane;swimlaneHead=0;swimlaneBody=0;fontStyle=0;connectable=0;strokeColor=inherit;fillColor=none;startSize=0;collapsible=0;recursiveResize=0;expand=0;" vertex="1" parent="_UacAsJ8LhsHdzwPXFp5-464">
          <mxGeometry x="748" width="118" height="120" as="geometry">
            <mxRectangle width="118" height="120" as="alternateBounds" />
          </mxGeometry>
        </mxCell>
        <mxCell id="_UacAsJ8LhsHdzwPXFp5-472" value="" style="swimlane;swimlaneHead=0;swimlaneBody=0;fontStyle=0;connectable=0;strokeColor=inherit;fillColor=none;startSize=0;collapsible=0;recursiveResize=0;expand=0;" vertex="1" parent="_UacAsJ8LhsHdzwPXFp5-464">
          <mxGeometry x="866" width="118" height="120" as="geometry">
            <mxRectangle width="118" height="120" as="alternateBounds" />
          </mxGeometry>
        </mxCell>
        <mxCell id="_UacAsJ8LhsHdzwPXFp5-473" value="" style="swimlane;swimlaneHead=0;swimlaneBody=0;fontStyle=0;connectable=0;strokeColor=inherit;fillColor=none;startSize=0;collapsible=0;recursiveResize=0;expand=0;" vertex="1" parent="_UacAsJ8LhsHdzwPXFp5-464">
          <mxGeometry x="984" width="118" height="120" as="geometry">
            <mxRectangle width="118" height="120" as="alternateBounds" />
          </mxGeometry>
        </mxCell>
        <mxCell id="_UacAsJ8LhsHdzwPXFp5-474" value="" style="swimlane;swimlaneHead=0;swimlaneBody=0;fontStyle=0;connectable=0;strokeColor=inherit;fillColor=none;startSize=0;collapsible=0;recursiveResize=0;expand=0;" vertex="1" parent="_UacAsJ8LhsHdzwPXFp5-464">
          <mxGeometry x="1102" width="118" height="120" as="geometry">
            <mxRectangle width="118" height="120" as="alternateBounds" />
          </mxGeometry>
        </mxCell>
        <mxCell id="_UacAsJ8LhsHdzwPXFp5-475" value="" style="swimlane;swimlaneHead=0;swimlaneBody=0;fontStyle=0;connectable=0;strokeColor=inherit;fillColor=none;startSize=0;collapsible=0;recursiveResize=0;expand=0;" vertex="1" parent="_UacAsJ8LhsHdzwPXFp5-464">
          <mxGeometry x="1220" width="118" height="120" as="geometry">
            <mxRectangle width="118" height="120" as="alternateBounds" />
          </mxGeometry>
        </mxCell>
        <mxCell id="_UacAsJ8LhsHdzwPXFp5-476" value="" style="swimlane;swimlaneHead=0;swimlaneBody=0;fontStyle=0;connectable=0;strokeColor=inherit;fillColor=none;startSize=0;collapsible=0;recursiveResize=0;expand=0;" vertex="1" parent="_UacAsJ8LhsHdzwPXFp5-464">
          <mxGeometry x="1338" width="118" height="120" as="geometry">
            <mxRectangle width="118" height="120" as="alternateBounds" />
          </mxGeometry>
        </mxCell>
        <mxCell id="_UacAsJ8LhsHdzwPXFp5-477" value="" style="swimlane;swimlaneHead=0;swimlaneBody=0;fontStyle=0;connectable=0;strokeColor=inherit;fillColor=none;startSize=0;collapsible=0;recursiveResize=0;expand=0;" vertex="1" parent="_UacAsJ8LhsHdzwPXFp5-464">
          <mxGeometry x="1456" width="118" height="120" as="geometry">
            <mxRectangle width="118" height="120" as="alternateBounds" />
          </mxGeometry>
        </mxCell>
        <mxCell id="_UacAsJ8LhsHdzwPXFp5-478" value="" style="swimlane;swimlaneHead=0;swimlaneBody=0;fontStyle=0;connectable=0;strokeColor=inherit;fillColor=none;startSize=0;collapsible=0;recursiveResize=0;expand=0;" vertex="1" parent="_UacAsJ8LhsHdzwPXFp5-464">
          <mxGeometry x="1574" width="118" height="120" as="geometry">
            <mxRectangle width="118" height="120" as="alternateBounds" />
          </mxGeometry>
        </mxCell>
        <mxCell id="_UacAsJ8LhsHdzwPXFp5-479" value="" style="swimlane;swimlaneHead=0;swimlaneBody=0;fontStyle=0;connectable=0;strokeColor=inherit;fillColor=none;startSize=0;collapsible=0;recursiveResize=0;expand=0;" vertex="1" parent="_UacAsJ8LhsHdzwPXFp5-464">
          <mxGeometry x="1692" width="118" height="120" as="geometry">
            <mxRectangle width="118" height="120" as="alternateBounds" />
          </mxGeometry>
        </mxCell>
        <mxCell id="_UacAsJ8LhsHdzwPXFp5-480" value="" style="swimlane;swimlaneHead=0;swimlaneBody=0;fontStyle=0;connectable=0;strokeColor=inherit;fillColor=none;startSize=0;collapsible=0;recursiveResize=0;expand=0;" vertex="1" parent="_UacAsJ8LhsHdzwPXFp5-464">
          <mxGeometry x="1810" width="118" height="120" as="geometry">
            <mxRectangle width="118" height="120" as="alternateBounds" />
          </mxGeometry>
        </mxCell>
        <mxCell id="_UacAsJ8LhsHdzwPXFp5-481" value="" style="swimlane;swimlaneHead=0;swimlaneBody=0;fontStyle=0;connectable=0;strokeColor=inherit;fillColor=none;startSize=0;collapsible=0;recursiveResize=0;expand=0;" vertex="1" parent="_UacAsJ8LhsHdzwPXFp5-464">
          <mxGeometry x="1928" width="118" height="120" as="geometry">
            <mxRectangle width="118" height="120" as="alternateBounds" />
          </mxGeometry>
        </mxCell>
        <mxCell id="_UacAsJ8LhsHdzwPXFp5-482" value="" style="swimlane;swimlaneHead=0;swimlaneBody=0;fontStyle=0;connectable=0;strokeColor=inherit;fillColor=none;startSize=0;collapsible=0;recursiveResize=0;expand=0;" vertex="1" parent="_UacAsJ8LhsHdzwPXFp5-464">
          <mxGeometry x="2046" width="118" height="120" as="geometry">
            <mxRectangle width="118" height="120" as="alternateBounds" />
          </mxGeometry>
        </mxCell>
        <mxCell id="_UacAsJ8LhsHdzwPXFp5-483" value="" style="swimlane;swimlaneHead=0;swimlaneBody=0;fontStyle=0;connectable=0;strokeColor=inherit;fillColor=none;startSize=0;collapsible=0;recursiveResize=0;expand=0;" vertex="1" parent="_UacAsJ8LhsHdzwPXFp5-464">
          <mxGeometry x="2164" width="118" height="120" as="geometry">
            <mxRectangle width="118" height="120" as="alternateBounds" />
          </mxGeometry>
        </mxCell>
        <mxCell id="_UacAsJ8LhsHdzwPXFp5-484" value="" style="swimlane;swimlaneHead=0;swimlaneBody=0;fontStyle=0;connectable=0;strokeColor=inherit;fillColor=none;startSize=0;collapsible=0;recursiveResize=0;expand=0;" vertex="1" parent="_UacAsJ8LhsHdzwPXFp5-464">
          <mxGeometry x="2282" width="118" height="120" as="geometry">
            <mxRectangle width="118" height="120" as="alternateBounds" />
          </mxGeometry>
        </mxCell>
        <mxCell id="_UacAsJ8LhsHdzwPXFp5-485" value="" style="shape=tableRow;horizontal=0;swimlaneHead=0;swimlaneBody=0;top=0;left=0;strokeColor=inherit;bottom=0;right=0;dropTarget=0;fontStyle=0;fillColor=none;points=[[0,0.5],[1,0.5]];portConstraint=eastwest;startSize=40;collapsible=0;recursiveResize=0;expand=0;" vertex="1" parent="_UacAsJ8LhsHdzwPXFp5-85">
          <mxGeometry y="2280" width="2400" height="120" as="geometry" />
        </mxCell>
        <mxCell id="_UacAsJ8LhsHdzwPXFp5-486" value="" style="swimlane;swimlaneHead=0;swimlaneBody=0;fontStyle=0;connectable=0;strokeColor=inherit;fillColor=none;startSize=0;collapsible=0;recursiveResize=0;expand=0;" vertex="1" parent="_UacAsJ8LhsHdzwPXFp5-485">
          <mxGeometry x="40" width="118" height="120" as="geometry">
            <mxRectangle width="118" height="120" as="alternateBounds" />
          </mxGeometry>
        </mxCell>
        <mxCell id="_UacAsJ8LhsHdzwPXFp5-487" value="" style="swimlane;swimlaneHead=0;swimlaneBody=0;fontStyle=0;connectable=0;strokeColor=inherit;fillColor=none;startSize=0;collapsible=0;recursiveResize=0;expand=0;" vertex="1" parent="_UacAsJ8LhsHdzwPXFp5-485">
          <mxGeometry x="158" width="118" height="120" as="geometry">
            <mxRectangle width="118" height="120" as="alternateBounds" />
          </mxGeometry>
        </mxCell>
        <mxCell id="_UacAsJ8LhsHdzwPXFp5-488" value="" style="swimlane;swimlaneHead=0;swimlaneBody=0;fontStyle=0;connectable=0;strokeColor=inherit;fillColor=none;startSize=0;collapsible=0;recursiveResize=0;expand=0;" vertex="1" parent="_UacAsJ8LhsHdzwPXFp5-485">
          <mxGeometry x="276" width="118" height="120" as="geometry">
            <mxRectangle width="118" height="120" as="alternateBounds" />
          </mxGeometry>
        </mxCell>
        <mxCell id="_UacAsJ8LhsHdzwPXFp5-489" value="" style="swimlane;swimlaneHead=0;swimlaneBody=0;fontStyle=0;connectable=0;strokeColor=inherit;fillColor=none;startSize=0;collapsible=0;recursiveResize=0;expand=0;" vertex="1" parent="_UacAsJ8LhsHdzwPXFp5-485">
          <mxGeometry x="394" width="118" height="120" as="geometry">
            <mxRectangle width="118" height="120" as="alternateBounds" />
          </mxGeometry>
        </mxCell>
        <mxCell id="_UacAsJ8LhsHdzwPXFp5-490" value="" style="swimlane;swimlaneHead=0;swimlaneBody=0;fontStyle=0;connectable=0;strokeColor=inherit;fillColor=none;startSize=0;collapsible=0;recursiveResize=0;expand=0;" vertex="1" parent="_UacAsJ8LhsHdzwPXFp5-485">
          <mxGeometry x="512" width="118" height="120" as="geometry">
            <mxRectangle width="118" height="120" as="alternateBounds" />
          </mxGeometry>
        </mxCell>
        <mxCell id="_UacAsJ8LhsHdzwPXFp5-491" value="" style="swimlane;swimlaneHead=0;swimlaneBody=0;fontStyle=0;connectable=0;strokeColor=inherit;fillColor=none;startSize=0;collapsible=0;recursiveResize=0;expand=0;" vertex="1" parent="_UacAsJ8LhsHdzwPXFp5-485">
          <mxGeometry x="630" width="118" height="120" as="geometry">
            <mxRectangle width="118" height="120" as="alternateBounds" />
          </mxGeometry>
        </mxCell>
        <mxCell id="_UacAsJ8LhsHdzwPXFp5-492" value="" style="swimlane;swimlaneHead=0;swimlaneBody=0;fontStyle=0;connectable=0;strokeColor=inherit;fillColor=none;startSize=0;collapsible=0;recursiveResize=0;expand=0;" vertex="1" parent="_UacAsJ8LhsHdzwPXFp5-485">
          <mxGeometry x="748" width="118" height="120" as="geometry">
            <mxRectangle width="118" height="120" as="alternateBounds" />
          </mxGeometry>
        </mxCell>
        <mxCell id="_UacAsJ8LhsHdzwPXFp5-493" value="" style="swimlane;swimlaneHead=0;swimlaneBody=0;fontStyle=0;connectable=0;strokeColor=inherit;fillColor=none;startSize=0;collapsible=0;recursiveResize=0;expand=0;" vertex="1" parent="_UacAsJ8LhsHdzwPXFp5-485">
          <mxGeometry x="866" width="118" height="120" as="geometry">
            <mxRectangle width="118" height="120" as="alternateBounds" />
          </mxGeometry>
        </mxCell>
        <mxCell id="_UacAsJ8LhsHdzwPXFp5-494" value="" style="swimlane;swimlaneHead=0;swimlaneBody=0;fontStyle=0;connectable=0;strokeColor=inherit;fillColor=none;startSize=0;collapsible=0;recursiveResize=0;expand=0;" vertex="1" parent="_UacAsJ8LhsHdzwPXFp5-485">
          <mxGeometry x="984" width="118" height="120" as="geometry">
            <mxRectangle width="118" height="120" as="alternateBounds" />
          </mxGeometry>
        </mxCell>
        <mxCell id="_UacAsJ8LhsHdzwPXFp5-495" value="" style="swimlane;swimlaneHead=0;swimlaneBody=0;fontStyle=0;connectable=0;strokeColor=inherit;fillColor=none;startSize=0;collapsible=0;recursiveResize=0;expand=0;" vertex="1" parent="_UacAsJ8LhsHdzwPXFp5-485">
          <mxGeometry x="1102" width="118" height="120" as="geometry">
            <mxRectangle width="118" height="120" as="alternateBounds" />
          </mxGeometry>
        </mxCell>
        <mxCell id="_UacAsJ8LhsHdzwPXFp5-496" value="" style="swimlane;swimlaneHead=0;swimlaneBody=0;fontStyle=0;connectable=0;strokeColor=inherit;fillColor=none;startSize=0;collapsible=0;recursiveResize=0;expand=0;" vertex="1" parent="_UacAsJ8LhsHdzwPXFp5-485">
          <mxGeometry x="1220" width="118" height="120" as="geometry">
            <mxRectangle width="118" height="120" as="alternateBounds" />
          </mxGeometry>
        </mxCell>
        <mxCell id="_UacAsJ8LhsHdzwPXFp5-497" value="" style="swimlane;swimlaneHead=0;swimlaneBody=0;fontStyle=0;connectable=0;strokeColor=inherit;fillColor=none;startSize=0;collapsible=0;recursiveResize=0;expand=0;" vertex="1" parent="_UacAsJ8LhsHdzwPXFp5-485">
          <mxGeometry x="1338" width="118" height="120" as="geometry">
            <mxRectangle width="118" height="120" as="alternateBounds" />
          </mxGeometry>
        </mxCell>
        <mxCell id="_UacAsJ8LhsHdzwPXFp5-498" value="" style="swimlane;swimlaneHead=0;swimlaneBody=0;fontStyle=0;connectable=0;strokeColor=inherit;fillColor=none;startSize=0;collapsible=0;recursiveResize=0;expand=0;" vertex="1" parent="_UacAsJ8LhsHdzwPXFp5-485">
          <mxGeometry x="1456" width="118" height="120" as="geometry">
            <mxRectangle width="118" height="120" as="alternateBounds" />
          </mxGeometry>
        </mxCell>
        <mxCell id="_UacAsJ8LhsHdzwPXFp5-499" value="" style="swimlane;swimlaneHead=0;swimlaneBody=0;fontStyle=0;connectable=0;strokeColor=inherit;fillColor=none;startSize=0;collapsible=0;recursiveResize=0;expand=0;" vertex="1" parent="_UacAsJ8LhsHdzwPXFp5-485">
          <mxGeometry x="1574" width="118" height="120" as="geometry">
            <mxRectangle width="118" height="120" as="alternateBounds" />
          </mxGeometry>
        </mxCell>
        <mxCell id="_UacAsJ8LhsHdzwPXFp5-500" value="" style="swimlane;swimlaneHead=0;swimlaneBody=0;fontStyle=0;connectable=0;strokeColor=inherit;fillColor=none;startSize=0;collapsible=0;recursiveResize=0;expand=0;" vertex="1" parent="_UacAsJ8LhsHdzwPXFp5-485">
          <mxGeometry x="1692" width="118" height="120" as="geometry">
            <mxRectangle width="118" height="120" as="alternateBounds" />
          </mxGeometry>
        </mxCell>
        <mxCell id="_UacAsJ8LhsHdzwPXFp5-501" value="" style="swimlane;swimlaneHead=0;swimlaneBody=0;fontStyle=0;connectable=0;strokeColor=inherit;fillColor=none;startSize=0;collapsible=0;recursiveResize=0;expand=0;" vertex="1" parent="_UacAsJ8LhsHdzwPXFp5-485">
          <mxGeometry x="1810" width="118" height="120" as="geometry">
            <mxRectangle width="118" height="120" as="alternateBounds" />
          </mxGeometry>
        </mxCell>
        <mxCell id="_UacAsJ8LhsHdzwPXFp5-502" value="" style="swimlane;swimlaneHead=0;swimlaneBody=0;fontStyle=0;connectable=0;strokeColor=inherit;fillColor=none;startSize=0;collapsible=0;recursiveResize=0;expand=0;" vertex="1" parent="_UacAsJ8LhsHdzwPXFp5-485">
          <mxGeometry x="1928" width="118" height="120" as="geometry">
            <mxRectangle width="118" height="120" as="alternateBounds" />
          </mxGeometry>
        </mxCell>
        <mxCell id="_UacAsJ8LhsHdzwPXFp5-503" value="" style="swimlane;swimlaneHead=0;swimlaneBody=0;fontStyle=0;connectable=0;strokeColor=inherit;fillColor=none;startSize=0;collapsible=0;recursiveResize=0;expand=0;" vertex="1" parent="_UacAsJ8LhsHdzwPXFp5-485">
          <mxGeometry x="2046" width="118" height="120" as="geometry">
            <mxRectangle width="118" height="120" as="alternateBounds" />
          </mxGeometry>
        </mxCell>
        <mxCell id="_UacAsJ8LhsHdzwPXFp5-504" value="" style="swimlane;swimlaneHead=0;swimlaneBody=0;fontStyle=0;connectable=0;strokeColor=inherit;fillColor=none;startSize=0;collapsible=0;recursiveResize=0;expand=0;" vertex="1" parent="_UacAsJ8LhsHdzwPXFp5-485">
          <mxGeometry x="2164" width="118" height="120" as="geometry">
            <mxRectangle width="118" height="120" as="alternateBounds" />
          </mxGeometry>
        </mxCell>
        <mxCell id="_UacAsJ8LhsHdzwPXFp5-505" value="" style="swimlane;swimlaneHead=0;swimlaneBody=0;fontStyle=0;connectable=0;strokeColor=inherit;fillColor=none;startSize=0;collapsible=0;recursiveResize=0;expand=0;" vertex="1" parent="_UacAsJ8LhsHdzwPXFp5-485">
          <mxGeometry x="2282" width="118" height="120" as="geometry">
            <mxRectangle width="118" height="120" as="alternateBounds" />
          </mxGeometry>
        </mxCell>
        <mxCell id="_UacAsJ8LhsHdzwPXFp5-515" style="edgeStyle=none;curved=1;rounded=0;orthogonalLoop=1;jettySize=auto;html=1;exitX=1;exitY=0.5;exitDx=0;exitDy=0;exitPerimeter=0;entryX=0;entryY=0.75;entryDx=0;entryDy=0;entryPerimeter=0;fontSize=12;startSize=8;endSize=8;" edge="1" parent="_UacAsJ8LhsHdzwPXFp5-85" source="_UacAsJ8LhsHdzwPXFp5-511" target="_UacAsJ8LhsHdzwPXFp5-512">
          <mxGeometry relative="1" as="geometry" />
        </mxCell>
        <mxCell id="_UacAsJ8LhsHdzwPXFp5-516" style="edgeStyle=none;curved=1;rounded=0;orthogonalLoop=1;jettySize=auto;html=1;exitX=1;exitY=0.5;exitDx=0;exitDy=0;exitPerimeter=0;entryX=0;entryY=0.25;entryDx=0;entryDy=0;entryPerimeter=0;fontSize=12;startSize=8;endSize=8;" edge="1" parent="_UacAsJ8LhsHdzwPXFp5-85" source="_UacAsJ8LhsHdzwPXFp5-512" target="_UacAsJ8LhsHdzwPXFp5-511">
          <mxGeometry relative="1" as="geometry" />
        </mxCell>
        <mxCell id="_UacAsJ8LhsHdzwPXFp5-519" value="Text" style="edgeLabel;html=1;align=center;verticalAlign=middle;resizable=0;points=[];fontSize=12;" vertex="1" connectable="0" parent="_UacAsJ8LhsHdzwPXFp5-516">
          <mxGeometry x="-0.3357" relative="1" as="geometry">
            <mxPoint as="offset" />
          </mxGeometry>
        </mxCell>
        <mxCell id="_UacAsJ8LhsHdzwPXFp5-508" value="&lt;br&gt;&lt;div&gt;&lt;br&gt;&lt;/div&gt;" style="text;strokeColor=none;fillColor=none;html=1;align=center;verticalAlign=middle;whiteSpace=wrap;rounded=0;fontSize=16;" vertex="1" parent="1">
          <mxGeometry x="-182" y="-197" width="60" height="30" as="geometry" />
        </mxCell>
      </root>
    </mxGraphModel>
  </diagram>
</mxfile>
